G04 #@! TF.GenerationSoftware,KiCad,Pcbnew,9.0.1*
G04 #@! TF.CreationDate,2025-10-04T13:40:40+13:00*
G04 #@! TF.ProjectId,RGB-to-component-covers,5247422d-746f-42d6-936f-6d706f6e656e,rev?*
G04 #@! TF.SameCoordinates,Original*
G04 #@! TF.FileFunction,Legend,Top*
G04 #@! TF.FilePolarity,Positive*
%FSLAX46Y46*%
G04 Gerber Fmt 4.6, Leading zero omitted, Abs format (unit mm)*
G04 Created by KiCad (PCBNEW 9.0.1) date 2025-10-04 13:40:40*
%MOMM*%
%LPD*%
G01*
G04 APERTURE LIST*
%ADD10C,0.010000*%
G04 APERTURE END LIST*
D10*
X115315538Y-94685453D02*
X115322667Y-94702804D01*
X115288978Y-94749082D01*
X115259167Y-94764975D01*
X115204553Y-94758471D01*
X115195667Y-94727171D01*
X115229583Y-94672206D01*
X115259167Y-94665000D01*
X115315538Y-94685453D01*
G36*
X115315538Y-94685453D02*
G01*
X115322667Y-94702804D01*
X115288978Y-94749082D01*
X115259167Y-94764975D01*
X115204553Y-94758471D01*
X115195667Y-94727171D01*
X115229583Y-94672206D01*
X115259167Y-94665000D01*
X115315538Y-94685453D01*
G37*
X115300741Y-95023980D02*
X115316127Y-95064967D01*
X115306945Y-95120834D01*
X115273793Y-95121451D01*
X115217594Y-95068020D01*
X115202208Y-95027033D01*
X115211390Y-94971166D01*
X115244541Y-94970549D01*
X115300741Y-95023980D01*
G36*
X115300741Y-95023980D02*
G01*
X115316127Y-95064967D01*
X115306945Y-95120834D01*
X115273793Y-95121451D01*
X115217594Y-95068020D01*
X115202208Y-95027033D01*
X115211390Y-94971166D01*
X115244541Y-94970549D01*
X115300741Y-95023980D01*
G37*
X115199293Y-95513607D02*
X115260000Y-95556316D01*
X115268852Y-95579593D01*
X115216429Y-95583687D01*
X115148258Y-95552766D01*
X115111217Y-95508791D01*
X115111000Y-95505648D01*
X115141676Y-95492342D01*
X115199293Y-95513607D01*
G36*
X115199293Y-95513607D02*
G01*
X115260000Y-95556316D01*
X115268852Y-95579593D01*
X115216429Y-95583687D01*
X115148258Y-95552766D01*
X115111217Y-95508791D01*
X115111000Y-95505648D01*
X115141676Y-95492342D01*
X115199293Y-95513607D01*
G37*
X115240146Y-93842919D02*
X115303993Y-93880487D01*
X115351997Y-93927487D01*
X115335869Y-93940460D01*
X115269073Y-93919238D01*
X115195667Y-93881833D01*
X115135182Y-93837740D01*
X115151717Y-93820004D01*
X115155826Y-93819833D01*
X115240146Y-93842919D01*
G36*
X115240146Y-93842919D02*
G01*
X115303993Y-93880487D01*
X115351997Y-93927487D01*
X115335869Y-93940460D01*
X115269073Y-93919238D01*
X115195667Y-93881833D01*
X115135182Y-93837740D01*
X115151717Y-93820004D01*
X115155826Y-93819833D01*
X115240146Y-93842919D01*
G37*
X115267066Y-95699921D02*
X115365165Y-95755200D01*
X115425389Y-95803587D01*
X115428314Y-95807699D01*
X115438562Y-95847716D01*
X115396403Y-95839089D01*
X115314899Y-95786863D01*
X115259167Y-95742345D01*
X115132167Y-95634778D01*
X115267066Y-95699921D01*
G36*
X115267066Y-95699921D02*
G01*
X115365165Y-95755200D01*
X115425389Y-95803587D01*
X115428314Y-95807699D01*
X115438562Y-95847716D01*
X115396403Y-95839089D01*
X115314899Y-95786863D01*
X115259167Y-95742345D01*
X115132167Y-95634778D01*
X115267066Y-95699921D01*
G37*
X115261474Y-96175492D02*
X115299799Y-96199194D01*
X115381217Y-96260326D01*
X115413045Y-96301152D01*
X115408214Y-96308084D01*
X115347019Y-96295984D01*
X115261024Y-96248873D01*
X115184913Y-96189429D01*
X115153334Y-96141409D01*
X115184107Y-96138357D01*
X115261474Y-96175492D01*
G36*
X115261474Y-96175492D02*
G01*
X115299799Y-96199194D01*
X115381217Y-96260326D01*
X115413045Y-96301152D01*
X115408214Y-96308084D01*
X115347019Y-96295984D01*
X115261024Y-96248873D01*
X115184913Y-96189429D01*
X115153334Y-96141409D01*
X115184107Y-96138357D01*
X115261474Y-96175492D01*
G37*
X115236569Y-95827836D02*
X115305837Y-95874119D01*
X115368547Y-95927006D01*
X115400174Y-95966659D01*
X115392844Y-95975925D01*
X115337714Y-95953015D01*
X115253382Y-95895661D01*
X115249552Y-95892667D01*
X115188819Y-95836118D01*
X115181091Y-95808531D01*
X115185268Y-95808000D01*
X115236569Y-95827836D01*
G36*
X115236569Y-95827836D02*
G01*
X115305837Y-95874119D01*
X115368547Y-95927006D01*
X115400174Y-95966659D01*
X115392844Y-95975925D01*
X115337714Y-95953015D01*
X115253382Y-95895661D01*
X115249552Y-95892667D01*
X115188819Y-95836118D01*
X115181091Y-95808531D01*
X115185268Y-95808000D01*
X115236569Y-95827836D01*
G37*
X115205039Y-93629277D02*
X115279890Y-93682315D01*
X115351932Y-93743593D01*
X115393862Y-93790922D01*
X115395261Y-93802184D01*
X115340589Y-93806103D01*
X115254293Y-93774920D01*
X115171276Y-93725907D01*
X115126436Y-93676338D01*
X115125112Y-93668485D01*
X115141539Y-93613148D01*
X115154680Y-93606667D01*
X115205039Y-93629277D01*
G36*
X115205039Y-93629277D02*
G01*
X115279890Y-93682315D01*
X115351932Y-93743593D01*
X115393862Y-93790922D01*
X115395261Y-93802184D01*
X115340589Y-93806103D01*
X115254293Y-93774920D01*
X115171276Y-93725907D01*
X115126436Y-93676338D01*
X115125112Y-93668485D01*
X115141539Y-93613148D01*
X115154680Y-93606667D01*
X115205039Y-93629277D01*
G37*
X115256537Y-96003260D02*
X115279054Y-96018755D01*
X115386400Y-96103979D01*
X115436562Y-96163564D01*
X115422442Y-96188713D01*
X115416417Y-96189000D01*
X115358981Y-96162779D01*
X115276784Y-96100962D01*
X115199177Y-96028814D01*
X115155509Y-95971603D01*
X115153334Y-95962519D01*
X115182998Y-95962228D01*
X115256537Y-96003260D01*
G36*
X115256537Y-96003260D02*
G01*
X115279054Y-96018755D01*
X115386400Y-96103979D01*
X115436562Y-96163564D01*
X115422442Y-96188713D01*
X115416417Y-96189000D01*
X115358981Y-96162779D01*
X115276784Y-96100962D01*
X115199177Y-96028814D01*
X115155509Y-95971603D01*
X115153334Y-95962519D01*
X115182998Y-95962228D01*
X115256537Y-96003260D01*
G37*
X115187899Y-93952489D02*
X115222004Y-93965932D01*
X115323303Y-94006718D01*
X115385176Y-94028743D01*
X115391337Y-94030000D01*
X115407092Y-94062403D01*
X115407334Y-94069189D01*
X115373112Y-94078396D01*
X115286719Y-94056078D01*
X115238431Y-94037439D01*
X115135252Y-93987379D01*
X115075243Y-93945261D01*
X115069098Y-93934182D01*
X115102916Y-93928166D01*
X115187899Y-93952489D01*
G36*
X115187899Y-93952489D02*
G01*
X115222004Y-93965932D01*
X115323303Y-94006718D01*
X115385176Y-94028743D01*
X115391337Y-94030000D01*
X115407092Y-94062403D01*
X115407334Y-94069189D01*
X115373112Y-94078396D01*
X115286719Y-94056078D01*
X115238431Y-94037439D01*
X115135252Y-93987379D01*
X115075243Y-93945261D01*
X115069098Y-93934182D01*
X115102916Y-93928166D01*
X115187899Y-93952489D01*
G37*
X115204913Y-94077485D02*
X115245253Y-94097250D01*
X115324719Y-94146663D01*
X115353039Y-94181719D01*
X115351394Y-94184718D01*
X115302252Y-94184194D01*
X115244409Y-94160430D01*
X115155929Y-94120701D01*
X115123592Y-94121510D01*
X115156566Y-94160630D01*
X115176993Y-94176820D01*
X115230474Y-94227215D01*
X115210045Y-94238765D01*
X115135630Y-94215971D01*
X115080544Y-94181545D01*
X115082228Y-94122016D01*
X115096494Y-94083545D01*
X115130540Y-94056282D01*
X115204913Y-94077485D01*
G36*
X115204913Y-94077485D02*
G01*
X115245253Y-94097250D01*
X115324719Y-94146663D01*
X115353039Y-94181719D01*
X115351394Y-94184718D01*
X115302252Y-94184194D01*
X115244409Y-94160430D01*
X115155929Y-94120701D01*
X115123592Y-94121510D01*
X115156566Y-94160630D01*
X115176993Y-94176820D01*
X115230474Y-94227215D01*
X115210045Y-94238765D01*
X115135630Y-94215971D01*
X115080544Y-94181545D01*
X115082228Y-94122016D01*
X115096494Y-94083545D01*
X115130540Y-94056282D01*
X115204913Y-94077485D01*
G37*
X116881559Y-95344325D02*
X116872686Y-95450421D01*
X116799942Y-95596091D01*
X116783167Y-95621527D01*
X116697393Y-95803783D01*
X116677334Y-95937445D01*
X116665797Y-96102759D01*
X116627971Y-96196950D01*
X116559033Y-96230795D01*
X116545805Y-96231333D01*
X116501635Y-96221140D01*
X116477353Y-96178057D01*
X116467291Y-96083329D01*
X116465667Y-95966185D01*
X116472170Y-95802885D01*
X116500291Y-95681342D01*
X116562955Y-95559270D01*
X116614017Y-95480750D01*
X116717662Y-95344608D01*
X116794096Y-95285353D01*
X116825683Y-95284761D01*
X116881559Y-95344325D01*
G36*
X116881559Y-95344325D02*
G01*
X116872686Y-95450421D01*
X116799942Y-95596091D01*
X116783167Y-95621527D01*
X116697393Y-95803783D01*
X116677334Y-95937445D01*
X116665797Y-96102759D01*
X116627971Y-96196950D01*
X116559033Y-96230795D01*
X116545805Y-96231333D01*
X116501635Y-96221140D01*
X116477353Y-96178057D01*
X116467291Y-96083329D01*
X116465667Y-95966185D01*
X116472170Y-95802885D01*
X116500291Y-95681342D01*
X116562955Y-95559270D01*
X116614017Y-95480750D01*
X116717662Y-95344608D01*
X116794096Y-95285353D01*
X116825683Y-95284761D01*
X116881559Y-95344325D01*
G37*
X116735258Y-94099053D02*
X116771471Y-94189026D01*
X116783724Y-94252250D01*
X116815586Y-94389341D01*
X116868594Y-94562044D01*
X116918939Y-94700722D01*
X116975817Y-94859570D01*
X116995363Y-94958866D01*
X116980330Y-95013631D01*
X116976996Y-95017271D01*
X116910584Y-95042887D01*
X116856085Y-95019772D01*
X116799289Y-94952409D01*
X116736983Y-94829168D01*
X116675619Y-94671199D01*
X116621646Y-94499651D01*
X116581516Y-94335672D01*
X116561678Y-94200412D01*
X116568582Y-94115021D01*
X116576393Y-94102719D01*
X116641129Y-94076146D01*
X116680668Y-94072333D01*
X116735258Y-94099053D01*
G36*
X116735258Y-94099053D02*
G01*
X116771471Y-94189026D01*
X116783724Y-94252250D01*
X116815586Y-94389341D01*
X116868594Y-94562044D01*
X116918939Y-94700722D01*
X116975817Y-94859570D01*
X116995363Y-94958866D01*
X116980330Y-95013631D01*
X116976996Y-95017271D01*
X116910584Y-95042887D01*
X116856085Y-95019772D01*
X116799289Y-94952409D01*
X116736983Y-94829168D01*
X116675619Y-94671199D01*
X116621646Y-94499651D01*
X116581516Y-94335672D01*
X116561678Y-94200412D01*
X116568582Y-94115021D01*
X116576393Y-94102719D01*
X116641129Y-94076146D01*
X116680668Y-94072333D01*
X116735258Y-94099053D01*
G37*
X116207253Y-95293990D02*
X116248974Y-95356349D01*
X116224323Y-95420596D01*
X116147824Y-95463635D01*
X116096579Y-95469981D01*
X115990219Y-95481823D01*
X115926569Y-95503827D01*
X115901959Y-95557469D01*
X115939094Y-95630098D01*
X116023257Y-95704333D01*
X116139736Y-95762796D01*
X116148298Y-95765710D01*
X116261532Y-95823752D01*
X116296334Y-95895950D01*
X116279067Y-95951615D01*
X116212765Y-95974513D01*
X116143187Y-95977333D01*
X116031343Y-95962277D01*
X115929544Y-95906534D01*
X115825687Y-95812980D01*
X115703539Y-95659202D01*
X115663639Y-95523916D01*
X115705817Y-95406219D01*
X115742715Y-95366473D01*
X115844032Y-95310535D01*
X115980148Y-95276137D01*
X116114067Y-95269052D01*
X116207253Y-95293990D01*
G36*
X116207253Y-95293990D02*
G01*
X116248974Y-95356349D01*
X116224323Y-95420596D01*
X116147824Y-95463635D01*
X116096579Y-95469981D01*
X115990219Y-95481823D01*
X115926569Y-95503827D01*
X115901959Y-95557469D01*
X115939094Y-95630098D01*
X116023257Y-95704333D01*
X116139736Y-95762796D01*
X116148298Y-95765710D01*
X116261532Y-95823752D01*
X116296334Y-95895950D01*
X116279067Y-95951615D01*
X116212765Y-95974513D01*
X116143187Y-95977333D01*
X116031343Y-95962277D01*
X115929544Y-95906534D01*
X115825687Y-95812980D01*
X115703539Y-95659202D01*
X115663639Y-95523916D01*
X115705817Y-95406219D01*
X115742715Y-95366473D01*
X115844032Y-95310535D01*
X115980148Y-95276137D01*
X116114067Y-95269052D01*
X116207253Y-95293990D01*
G37*
X116212878Y-94072981D02*
X116276998Y-94135732D01*
X116278451Y-94184875D01*
X116256797Y-94250812D01*
X116254000Y-94266296D01*
X116217204Y-94278853D01*
X116130024Y-94284000D01*
X116014645Y-94305519D01*
X115930785Y-94358743D01*
X115897613Y-94426674D01*
X115915276Y-94474430D01*
X115984402Y-94527068D01*
X116090229Y-94580287D01*
X116096654Y-94582874D01*
X116236782Y-94647009D01*
X116305439Y-94703755D01*
X116313987Y-94763263D01*
X116310455Y-94773928D01*
X116249613Y-94830829D01*
X116143443Y-94834669D01*
X116008702Y-94789952D01*
X115862149Y-94701184D01*
X115777750Y-94630740D01*
X115682700Y-94503155D01*
X115671781Y-94372323D01*
X115744513Y-94232022D01*
X115746662Y-94229273D01*
X115864494Y-94125730D01*
X116007931Y-94063406D01*
X116146945Y-94052368D01*
X116212878Y-94072981D01*
G36*
X116212878Y-94072981D02*
G01*
X116276998Y-94135732D01*
X116278451Y-94184875D01*
X116256797Y-94250812D01*
X116254000Y-94266296D01*
X116217204Y-94278853D01*
X116130024Y-94284000D01*
X116014645Y-94305519D01*
X115930785Y-94358743D01*
X115897613Y-94426674D01*
X115915276Y-94474430D01*
X115984402Y-94527068D01*
X116090229Y-94580287D01*
X116096654Y-94582874D01*
X116236782Y-94647009D01*
X116305439Y-94703755D01*
X116313987Y-94763263D01*
X116310455Y-94773928D01*
X116249613Y-94830829D01*
X116143443Y-94834669D01*
X116008702Y-94789952D01*
X115862149Y-94701184D01*
X115777750Y-94630740D01*
X115682700Y-94503155D01*
X115671781Y-94372323D01*
X115744513Y-94232022D01*
X115746662Y-94229273D01*
X115864494Y-94125730D01*
X116007931Y-94063406D01*
X116146945Y-94052368D01*
X116212878Y-94072981D01*
G37*
X114704564Y-94410969D02*
X114714214Y-94430922D01*
X114706391Y-94503977D01*
X114655258Y-94598248D01*
X114648737Y-94606789D01*
X114592080Y-94689156D01*
X114588560Y-94743126D01*
X114623519Y-94791283D01*
X114682536Y-94894915D01*
X114658327Y-94986738D01*
X114613584Y-95030778D01*
X114566913Y-95076299D01*
X114578870Y-95117654D01*
X114634750Y-95169230D01*
X114711557Y-95263834D01*
X114724077Y-95350786D01*
X114669947Y-95410191D01*
X114663710Y-95412762D01*
X114587531Y-95399781D01*
X114479913Y-95323236D01*
X114452044Y-95297295D01*
X114346210Y-95175207D01*
X114310387Y-95073968D01*
X114339029Y-94976222D01*
X114345859Y-94964966D01*
X114366357Y-94882752D01*
X114362176Y-94772124D01*
X114369520Y-94661494D01*
X114416327Y-94552067D01*
X114487916Y-94458072D01*
X114569605Y-94393738D01*
X114646715Y-94373294D01*
X114704564Y-94410969D01*
G36*
X114704564Y-94410969D02*
G01*
X114714214Y-94430922D01*
X114706391Y-94503977D01*
X114655258Y-94598248D01*
X114648737Y-94606789D01*
X114592080Y-94689156D01*
X114588560Y-94743126D01*
X114623519Y-94791283D01*
X114682536Y-94894915D01*
X114658327Y-94986738D01*
X114613584Y-95030778D01*
X114566913Y-95076299D01*
X114578870Y-95117654D01*
X114634750Y-95169230D01*
X114711557Y-95263834D01*
X114724077Y-95350786D01*
X114669947Y-95410191D01*
X114663710Y-95412762D01*
X114587531Y-95399781D01*
X114479913Y-95323236D01*
X114452044Y-95297295D01*
X114346210Y-95175207D01*
X114310387Y-95073968D01*
X114339029Y-94976222D01*
X114345859Y-94964966D01*
X114366357Y-94882752D01*
X114362176Y-94772124D01*
X114369520Y-94661494D01*
X114416327Y-94552067D01*
X114487916Y-94458072D01*
X114569605Y-94393738D01*
X114646715Y-94373294D01*
X114704564Y-94410969D01*
G37*
X115013216Y-92618941D02*
X115064972Y-92628253D01*
X115192484Y-92666973D01*
X115370063Y-92735950D01*
X115573332Y-92825116D01*
X115760798Y-92915674D01*
X116025019Y-93049494D01*
X116226392Y-93150635D01*
X116377498Y-93224874D01*
X116490916Y-93277988D01*
X116579228Y-93315755D01*
X116655014Y-93343951D01*
X116730855Y-93368355D01*
X116776251Y-93381987D01*
X116995880Y-93463072D01*
X117151584Y-93561866D01*
X117264005Y-93691951D01*
X117275799Y-93710688D01*
X117354351Y-93839500D01*
X117353579Y-93691333D01*
X117322972Y-93510901D01*
X117240541Y-93301973D01*
X117117921Y-93092105D01*
X117076425Y-93034898D01*
X117013539Y-92936235D01*
X117013788Y-92890588D01*
X117074207Y-92898069D01*
X117191828Y-92958790D01*
X117297128Y-93026574D01*
X117501067Y-93210131D01*
X117608581Y-93375824D01*
X117714329Y-93585500D01*
X117738717Y-93437333D01*
X117763104Y-93289167D01*
X117858973Y-93500833D01*
X117925950Y-93693921D01*
X117939023Y-93876344D01*
X117936506Y-93909728D01*
X117930514Y-94030799D01*
X117944457Y-94083475D01*
X117975085Y-94085115D01*
X118019977Y-94097152D01*
X118030111Y-94171056D01*
X118005894Y-94291679D01*
X117966586Y-94400944D01*
X117927846Y-94504851D01*
X117926174Y-94561965D01*
X117961572Y-94601614D01*
X117966586Y-94605335D01*
X118018870Y-94666399D01*
X118030450Y-94725238D01*
X117997758Y-94749667D01*
X117939343Y-94772231D01*
X117887921Y-94804943D01*
X117842581Y-94846774D01*
X117835444Y-94897424D01*
X117865394Y-94986803D01*
X117879830Y-95021780D01*
X117925205Y-95165845D01*
X117941989Y-95324312D01*
X117928824Y-95511765D01*
X117884351Y-95742786D01*
X117807212Y-96031961D01*
X117775873Y-96137613D01*
X117703675Y-96382454D01*
X117658801Y-96562161D01*
X117642818Y-96692256D01*
X117657293Y-96788259D01*
X117703793Y-96865689D01*
X117783884Y-96940067D01*
X117862949Y-97000236D01*
X117962144Y-97086417D01*
X117983078Y-97140406D01*
X117925742Y-97162173D01*
X117907662Y-97162667D01*
X117853791Y-97175514D01*
X117839872Y-97229700D01*
X117848828Y-97305451D01*
X117852383Y-97415879D01*
X117825414Y-97477022D01*
X117824999Y-97477283D01*
X117785932Y-97470112D01*
X117777790Y-97429748D01*
X117751980Y-97348207D01*
X117688628Y-97245460D01*
X117673479Y-97226167D01*
X117569379Y-97099167D01*
X117567856Y-97236750D01*
X117555424Y-97330420D01*
X117527187Y-97373945D01*
X117524000Y-97374333D01*
X117490914Y-97338453D01*
X117481553Y-97279083D01*
X117475316Y-97232348D01*
X117448489Y-97233621D01*
X117388654Y-97289363D01*
X117322803Y-97361642D01*
X117060907Y-97594580D01*
X116733324Y-97783300D01*
X116444500Y-97894106D01*
X116304051Y-97933665D01*
X116166406Y-97960295D01*
X116009638Y-97976239D01*
X115811822Y-97983740D01*
X115555500Y-97985055D01*
X115176566Y-97973026D01*
X114862412Y-97937005D01*
X114595530Y-97872932D01*
X114358412Y-97776747D01*
X114158500Y-97661024D01*
X114038894Y-97577281D01*
X113973896Y-97509211D01*
X113945089Y-97429644D01*
X113935238Y-97331673D01*
X113938802Y-97299091D01*
X114014118Y-97299091D01*
X114043439Y-97443389D01*
X114105584Y-97527846D01*
X114261901Y-97637581D01*
X114468985Y-97745723D01*
X114694094Y-97836718D01*
X114857000Y-97884815D01*
X114997572Y-97907805D01*
X115193557Y-97926457D01*
X115415726Y-97938463D01*
X115576667Y-97941698D01*
X115810148Y-97939651D01*
X115989676Y-97928664D01*
X116145834Y-97904502D01*
X116309206Y-97862929D01*
X116442265Y-97821835D01*
X116620706Y-97757848D01*
X116776954Y-97689837D01*
X116886752Y-97628849D01*
X116914288Y-97606894D01*
X117001256Y-97532013D01*
X117070795Y-97489365D01*
X117132656Y-97442327D01*
X117215776Y-97351553D01*
X117253335Y-97303297D01*
X117374340Y-97146154D01*
X117462708Y-97051955D01*
X117530337Y-97011634D01*
X117589128Y-97016130D01*
X117613577Y-97028908D01*
X117707327Y-97075468D01*
X117741406Y-97064910D01*
X117713774Y-97002142D01*
X117655386Y-96928360D01*
X117579046Y-96830311D01*
X117539541Y-96737162D01*
X117525284Y-96613439D01*
X117524000Y-96526193D01*
X117530461Y-96391501D01*
X117547319Y-96300248D01*
X117566334Y-96273667D01*
X117608466Y-96307409D01*
X117612887Y-96326583D01*
X117623010Y-96351326D01*
X117640204Y-96312577D01*
X117659845Y-96230698D01*
X117677307Y-96126053D01*
X117687968Y-96019004D01*
X117689114Y-95990940D01*
X117706971Y-95862372D01*
X117746192Y-95764257D01*
X117758596Y-95748785D01*
X117848686Y-95624452D01*
X117883300Y-95477195D01*
X117864037Y-95290540D01*
X117819018Y-95126575D01*
X117723539Y-94829633D01*
X117819769Y-94762230D01*
X117916000Y-94694828D01*
X117815250Y-94613286D01*
X117752538Y-94547676D01*
X117765140Y-94511269D01*
X117768308Y-94509881D01*
X117818958Y-94461941D01*
X117880752Y-94372878D01*
X117930894Y-94279135D01*
X117947334Y-94223650D01*
X117913714Y-94220130D01*
X117842999Y-94241097D01*
X117749268Y-94260634D01*
X117719025Y-94224866D01*
X117752831Y-94135127D01*
X117780132Y-94090859D01*
X117829236Y-93980977D01*
X117857053Y-93849796D01*
X117860767Y-93727372D01*
X117837566Y-93643758D01*
X117823312Y-93629674D01*
X117785424Y-93648683D01*
X117740966Y-93726346D01*
X117730956Y-93751921D01*
X117681696Y-93852123D01*
X117640908Y-93869685D01*
X117614831Y-93806607D01*
X117608667Y-93712757D01*
X117569227Y-93473334D01*
X117450669Y-93263960D01*
X117407554Y-93215083D01*
X117312905Y-93126230D01*
X117265575Y-93104725D01*
X117268540Y-93149228D01*
X117321958Y-93253638D01*
X117378418Y-93378377D01*
X117407583Y-93528320D01*
X117415780Y-93704608D01*
X117409183Y-93888083D01*
X117386101Y-93989824D01*
X117347025Y-94009382D01*
X117292446Y-93946306D01*
X117247990Y-93858794D01*
X117154797Y-93699040D01*
X117030438Y-93584199D01*
X116853961Y-93498114D01*
X116727252Y-93457215D01*
X116597731Y-93410687D01*
X116417033Y-93333310D01*
X116207966Y-93235394D01*
X115993340Y-93127253D01*
X115968690Y-93114287D01*
X115656459Y-92954356D01*
X115400200Y-92835996D01*
X115185238Y-92754112D01*
X114996901Y-92703609D01*
X114820515Y-92679392D01*
X114704567Y-92675333D01*
X114489300Y-92692204D01*
X114341286Y-92749847D01*
X114248694Y-92858803D01*
X114199691Y-93029616D01*
X114188273Y-93135346D01*
X114182266Y-93293129D01*
X114197351Y-93403293D01*
X114241176Y-93501812D01*
X114279020Y-93562134D01*
X114388656Y-93727804D01*
X114516858Y-93608046D01*
X114674020Y-93513731D01*
X114889822Y-93459522D01*
X115148659Y-93444828D01*
X115434924Y-93469059D01*
X115733013Y-93531625D01*
X116027320Y-93631934D01*
X116110454Y-93668333D01*
X116288752Y-93743842D01*
X116462526Y-93805849D01*
X116600105Y-93843316D01*
X116624417Y-93847457D01*
X116734199Y-93871422D01*
X116797889Y-93902516D01*
X116804334Y-93914651D01*
X116768001Y-93942779D01*
X116669936Y-93941814D01*
X116526536Y-93915281D01*
X116354199Y-93866707D01*
X116169323Y-93799618D01*
X116069363Y-93756618D01*
X115719795Y-93627935D01*
X115367577Y-93555847D01*
X115035657Y-93544265D01*
X114907144Y-93558496D01*
X114677682Y-93637943D01*
X114473922Y-93796998D01*
X114297695Y-94034040D01*
X114232164Y-94156805D01*
X114175174Y-94286448D01*
X114141197Y-94405761D01*
X114124789Y-94544710D01*
X114120503Y-94733265D01*
X114120581Y-94770833D01*
X114127528Y-94987495D01*
X114150758Y-95173252D01*
X114196892Y-95366483D01*
X114256020Y-95556117D01*
X114378904Y-95867714D01*
X114521649Y-96109678D01*
X114694292Y-96296474D01*
X114846826Y-96407460D01*
X114916282Y-96446873D01*
X114985707Y-96473439D01*
X115072452Y-96489176D01*
X115193867Y-96496103D01*
X115367302Y-96496240D01*
X115576347Y-96492356D01*
X115974674Y-96473777D01*
X116301551Y-96435852D01*
X116568433Y-96376429D01*
X116786771Y-96293352D01*
X116869887Y-96249059D01*
X117003141Y-96182904D01*
X117082798Y-96164920D01*
X117101651Y-96188656D01*
X117052490Y-96247665D01*
X116950768Y-96321422D01*
X116695058Y-96448571D01*
X116396293Y-96529414D01*
X116041144Y-96567036D01*
X115874690Y-96570689D01*
X115544709Y-96576795D01*
X115226523Y-96592972D01*
X114934929Y-96617701D01*
X114684724Y-96649463D01*
X114490708Y-96686740D01*
X114374387Y-96724680D01*
X114225720Y-96828920D01*
X114111775Y-96972383D01*
X114039069Y-97135598D01*
X114014118Y-97299091D01*
X113938802Y-97299091D01*
X113961202Y-97094330D01*
X114013233Y-96962618D01*
X114126276Y-96799239D01*
X114287201Y-96678170D01*
X114511167Y-96589037D01*
X114590379Y-96567604D01*
X114810591Y-96512705D01*
X114640673Y-96382602D01*
X114502937Y-96238470D01*
X114368962Y-96028787D01*
X114246154Y-95772590D01*
X114141919Y-95488915D01*
X114063664Y-95196801D01*
X114018794Y-94915285D01*
X114010984Y-94764021D01*
X114028660Y-94564111D01*
X114076647Y-94343832D01*
X114145782Y-94134476D01*
X114226902Y-93967336D01*
X114256985Y-93923893D01*
X114344971Y-93812038D01*
X114219986Y-93639500D01*
X114143478Y-93517317D01*
X114105978Y-93399586D01*
X114095104Y-93244825D01*
X114095000Y-93220751D01*
X114111843Y-93027028D01*
X114157158Y-92853530D01*
X114223130Y-92721893D01*
X114299537Y-92654638D01*
X114437991Y-92622358D01*
X114625858Y-92604864D01*
X114704567Y-92604271D01*
X114828984Y-92603332D01*
X115013216Y-92618941D01*
G36*
X115013216Y-92618941D02*
G01*
X115064972Y-92628253D01*
X115192484Y-92666973D01*
X115370063Y-92735950D01*
X115573332Y-92825116D01*
X115760798Y-92915674D01*
X116025019Y-93049494D01*
X116226392Y-93150635D01*
X116377498Y-93224874D01*
X116490916Y-93277988D01*
X116579228Y-93315755D01*
X116655014Y-93343951D01*
X116730855Y-93368355D01*
X116776251Y-93381987D01*
X116995880Y-93463072D01*
X117151584Y-93561866D01*
X117264005Y-93691951D01*
X117275799Y-93710688D01*
X117354351Y-93839500D01*
X117353579Y-93691333D01*
X117322972Y-93510901D01*
X117240541Y-93301973D01*
X117117921Y-93092105D01*
X117076425Y-93034898D01*
X117013539Y-92936235D01*
X117013788Y-92890588D01*
X117074207Y-92898069D01*
X117191828Y-92958790D01*
X117297128Y-93026574D01*
X117501067Y-93210131D01*
X117608581Y-93375824D01*
X117714329Y-93585500D01*
X117738717Y-93437333D01*
X117763104Y-93289167D01*
X117858973Y-93500833D01*
X117925950Y-93693921D01*
X117939023Y-93876344D01*
X117936506Y-93909728D01*
X117930514Y-94030799D01*
X117944457Y-94083475D01*
X117975085Y-94085115D01*
X118019977Y-94097152D01*
X118030111Y-94171056D01*
X118005894Y-94291679D01*
X117966586Y-94400944D01*
X117927846Y-94504851D01*
X117926174Y-94561965D01*
X117961572Y-94601614D01*
X117966586Y-94605335D01*
X118018870Y-94666399D01*
X118030450Y-94725238D01*
X117997758Y-94749667D01*
X117939343Y-94772231D01*
X117887921Y-94804943D01*
X117842581Y-94846774D01*
X117835444Y-94897424D01*
X117865394Y-94986803D01*
X117879830Y-95021780D01*
X117925205Y-95165845D01*
X117941989Y-95324312D01*
X117928824Y-95511765D01*
X117884351Y-95742786D01*
X117807212Y-96031961D01*
X117775873Y-96137613D01*
X117703675Y-96382454D01*
X117658801Y-96562161D01*
X117642818Y-96692256D01*
X117657293Y-96788259D01*
X117703793Y-96865689D01*
X117783884Y-96940067D01*
X117862949Y-97000236D01*
X117962144Y-97086417D01*
X117983078Y-97140406D01*
X117925742Y-97162173D01*
X117907662Y-97162667D01*
X117853791Y-97175514D01*
X117839872Y-97229700D01*
X117848828Y-97305451D01*
X117852383Y-97415879D01*
X117825414Y-97477022D01*
X117824999Y-97477283D01*
X117785932Y-97470112D01*
X117777790Y-97429748D01*
X117751980Y-97348207D01*
X117688628Y-97245460D01*
X117673479Y-97226167D01*
X117569379Y-97099167D01*
X117567856Y-97236750D01*
X117555424Y-97330420D01*
X117527187Y-97373945D01*
X117524000Y-97374333D01*
X117490914Y-97338453D01*
X117481553Y-97279083D01*
X117475316Y-97232348D01*
X117448489Y-97233621D01*
X117388654Y-97289363D01*
X117322803Y-97361642D01*
X117060907Y-97594580D01*
X116733324Y-97783300D01*
X116444500Y-97894106D01*
X116304051Y-97933665D01*
X116166406Y-97960295D01*
X116009638Y-97976239D01*
X115811822Y-97983740D01*
X115555500Y-97985055D01*
X115176566Y-97973026D01*
X114862412Y-97937005D01*
X114595530Y-97872932D01*
X114358412Y-97776747D01*
X114158500Y-97661024D01*
X114038894Y-97577281D01*
X113973896Y-97509211D01*
X113945089Y-97429644D01*
X113935238Y-97331673D01*
X113938802Y-97299091D01*
X114014118Y-97299091D01*
X114043439Y-97443389D01*
X114105584Y-97527846D01*
X114261901Y-97637581D01*
X114468985Y-97745723D01*
X114694094Y-97836718D01*
X114857000Y-97884815D01*
X114997572Y-97907805D01*
X115193557Y-97926457D01*
X115415726Y-97938463D01*
X115576667Y-97941698D01*
X115810148Y-97939651D01*
X115989676Y-97928664D01*
X116145834Y-97904502D01*
X116309206Y-97862929D01*
X116442265Y-97821835D01*
X116620706Y-97757848D01*
X116776954Y-97689837D01*
X116886752Y-97628849D01*
X116914288Y-97606894D01*
X117001256Y-97532013D01*
X117070795Y-97489365D01*
X117132656Y-97442327D01*
X117215776Y-97351553D01*
X117253335Y-97303297D01*
X117374340Y-97146154D01*
X117462708Y-97051955D01*
X117530337Y-97011634D01*
X117589128Y-97016130D01*
X117613577Y-97028908D01*
X117707327Y-97075468D01*
X117741406Y-97064910D01*
X117713774Y-97002142D01*
X117655386Y-96928360D01*
X117579046Y-96830311D01*
X117539541Y-96737162D01*
X117525284Y-96613439D01*
X117524000Y-96526193D01*
X117530461Y-96391501D01*
X117547319Y-96300248D01*
X117566334Y-96273667D01*
X117608466Y-96307409D01*
X117612887Y-96326583D01*
X117623010Y-96351326D01*
X117640204Y-96312577D01*
X117659845Y-96230698D01*
X117677307Y-96126053D01*
X117687968Y-96019004D01*
X117689114Y-95990940D01*
X117706971Y-95862372D01*
X117746192Y-95764257D01*
X117758596Y-95748785D01*
X117848686Y-95624452D01*
X117883300Y-95477195D01*
X117864037Y-95290540D01*
X117819018Y-95126575D01*
X117723539Y-94829633D01*
X117819769Y-94762230D01*
X117916000Y-94694828D01*
X117815250Y-94613286D01*
X117752538Y-94547676D01*
X117765140Y-94511269D01*
X117768308Y-94509881D01*
X117818958Y-94461941D01*
X117880752Y-94372878D01*
X117930894Y-94279135D01*
X117947334Y-94223650D01*
X117913714Y-94220130D01*
X117842999Y-94241097D01*
X117749268Y-94260634D01*
X117719025Y-94224866D01*
X117752831Y-94135127D01*
X117780132Y-94090859D01*
X117829236Y-93980977D01*
X117857053Y-93849796D01*
X117860767Y-93727372D01*
X117837566Y-93643758D01*
X117823312Y-93629674D01*
X117785424Y-93648683D01*
X117740966Y-93726346D01*
X117730956Y-93751921D01*
X117681696Y-93852123D01*
X117640908Y-93869685D01*
X117614831Y-93806607D01*
X117608667Y-93712757D01*
X117569227Y-93473334D01*
X117450669Y-93263960D01*
X117407554Y-93215083D01*
X117312905Y-93126230D01*
X117265575Y-93104725D01*
X117268540Y-93149228D01*
X117321958Y-93253638D01*
X117378418Y-93378377D01*
X117407583Y-93528320D01*
X117415780Y-93704608D01*
X117409183Y-93888083D01*
X117386101Y-93989824D01*
X117347025Y-94009382D01*
X117292446Y-93946306D01*
X117247990Y-93858794D01*
X117154797Y-93699040D01*
X117030438Y-93584199D01*
X116853961Y-93498114D01*
X116727252Y-93457215D01*
X116597731Y-93410687D01*
X116417033Y-93333310D01*
X116207966Y-93235394D01*
X115993340Y-93127253D01*
X115968690Y-93114287D01*
X115656459Y-92954356D01*
X115400200Y-92835996D01*
X115185238Y-92754112D01*
X114996901Y-92703609D01*
X114820515Y-92679392D01*
X114704567Y-92675333D01*
X114489300Y-92692204D01*
X114341286Y-92749847D01*
X114248694Y-92858803D01*
X114199691Y-93029616D01*
X114188273Y-93135346D01*
X114182266Y-93293129D01*
X114197351Y-93403293D01*
X114241176Y-93501812D01*
X114279020Y-93562134D01*
X114388656Y-93727804D01*
X114516858Y-93608046D01*
X114674020Y-93513731D01*
X114889822Y-93459522D01*
X115148659Y-93444828D01*
X115434924Y-93469059D01*
X115733013Y-93531625D01*
X116027320Y-93631934D01*
X116110454Y-93668333D01*
X116288752Y-93743842D01*
X116462526Y-93805849D01*
X116600105Y-93843316D01*
X116624417Y-93847457D01*
X116734199Y-93871422D01*
X116797889Y-93902516D01*
X116804334Y-93914651D01*
X116768001Y-93942779D01*
X116669936Y-93941814D01*
X116526536Y-93915281D01*
X116354199Y-93866707D01*
X116169323Y-93799618D01*
X116069363Y-93756618D01*
X115719795Y-93627935D01*
X115367577Y-93555847D01*
X115035657Y-93544265D01*
X114907144Y-93558496D01*
X114677682Y-93637943D01*
X114473922Y-93796998D01*
X114297695Y-94034040D01*
X114232164Y-94156805D01*
X114175174Y-94286448D01*
X114141197Y-94405761D01*
X114124789Y-94544710D01*
X114120503Y-94733265D01*
X114120581Y-94770833D01*
X114127528Y-94987495D01*
X114150758Y-95173252D01*
X114196892Y-95366483D01*
X114256020Y-95556117D01*
X114378904Y-95867714D01*
X114521649Y-96109678D01*
X114694292Y-96296474D01*
X114846826Y-96407460D01*
X114916282Y-96446873D01*
X114985707Y-96473439D01*
X115072452Y-96489176D01*
X115193867Y-96496103D01*
X115367302Y-96496240D01*
X115576347Y-96492356D01*
X115974674Y-96473777D01*
X116301551Y-96435852D01*
X116568433Y-96376429D01*
X116786771Y-96293352D01*
X116869887Y-96249059D01*
X117003141Y-96182904D01*
X117082798Y-96164920D01*
X117101651Y-96188656D01*
X117052490Y-96247665D01*
X116950768Y-96321422D01*
X116695058Y-96448571D01*
X116396293Y-96529414D01*
X116041144Y-96567036D01*
X115874690Y-96570689D01*
X115544709Y-96576795D01*
X115226523Y-96592972D01*
X114934929Y-96617701D01*
X114684724Y-96649463D01*
X114490708Y-96686740D01*
X114374387Y-96724680D01*
X114225720Y-96828920D01*
X114111775Y-96972383D01*
X114039069Y-97135598D01*
X114014118Y-97299091D01*
X113938802Y-97299091D01*
X113961202Y-97094330D01*
X114013233Y-96962618D01*
X114126276Y-96799239D01*
X114287201Y-96678170D01*
X114511167Y-96589037D01*
X114590379Y-96567604D01*
X114810591Y-96512705D01*
X114640673Y-96382602D01*
X114502937Y-96238470D01*
X114368962Y-96028787D01*
X114246154Y-95772590D01*
X114141919Y-95488915D01*
X114063664Y-95196801D01*
X114018794Y-94915285D01*
X114010984Y-94764021D01*
X114028660Y-94564111D01*
X114076647Y-94343832D01*
X114145782Y-94134476D01*
X114226902Y-93967336D01*
X114256985Y-93923893D01*
X114344971Y-93812038D01*
X114219986Y-93639500D01*
X114143478Y-93517317D01*
X114105978Y-93399586D01*
X114095104Y-93244825D01*
X114095000Y-93220751D01*
X114111843Y-93027028D01*
X114157158Y-92853530D01*
X114223130Y-92721893D01*
X114299537Y-92654638D01*
X114437991Y-92622358D01*
X114625858Y-92604864D01*
X114704567Y-92604271D01*
X114828984Y-92603332D01*
X115013216Y-92618941D01*
G37*
G36*
X127873000Y-100173000D02*
G01*
X123127000Y-100173000D01*
X123127000Y-91427000D01*
X127873000Y-91427000D01*
X127873000Y-100173000D01*
G37*
M02*
