G04 #@! TF.GenerationSoftware,KiCad,Pcbnew,9.0.1*
G04 #@! TF.CreationDate,2025-10-04T13:40:40+13:00*
G04 #@! TF.ProjectId,RGB-to-component-covers,5247422d-746f-42d6-936f-6d706f6e656e,rev?*
G04 #@! TF.SameCoordinates,Original*
G04 #@! TF.FileFunction,Soldermask,Top*
G04 #@! TF.FilePolarity,Negative*
%FSLAX46Y46*%
G04 Gerber Fmt 4.6, Leading zero omitted, Abs format (unit mm)*
G04 Created by KiCad (PCBNEW 9.0.1) date 2025-10-04 13:40:40*
%MOMM*%
%LPD*%
G01*
G04 APERTURE LIST*
G04 APERTURE END LIST*
G36*
X109202182Y-106632924D02*
G01*
X109464682Y-106692838D01*
X109718823Y-106781765D01*
X109961409Y-106898589D01*
X110189390Y-107041838D01*
X110399898Y-107209713D01*
X110590287Y-107400102D01*
X110758162Y-107610610D01*
X110901411Y-107838591D01*
X111018235Y-108081177D01*
X111107162Y-108335318D01*
X111167076Y-108597818D01*
X111197223Y-108865375D01*
X111197223Y-109134625D01*
X111167076Y-109402182D01*
X111107162Y-109664682D01*
X111018235Y-109918823D01*
X110901411Y-110161409D01*
X110758162Y-110389390D01*
X110590287Y-110599898D01*
X110399898Y-110790287D01*
X110189390Y-110958162D01*
X109961409Y-111101411D01*
X109718823Y-111218235D01*
X109464682Y-111307162D01*
X109202182Y-111367076D01*
X108934625Y-111397223D01*
X108665375Y-111397223D01*
X108397818Y-111367076D01*
X108135318Y-111307162D01*
X107881177Y-111218235D01*
X107638591Y-111101411D01*
X107410610Y-110958162D01*
X107200102Y-110790287D01*
X107009713Y-110599898D01*
X106841838Y-110389390D01*
X106698589Y-110161409D01*
X106581765Y-109918823D01*
X106492838Y-109664682D01*
X106432924Y-109402182D01*
X106402777Y-109134625D01*
X106402777Y-108865375D01*
X106432924Y-108597818D01*
X106492838Y-108335318D01*
X106581765Y-108081177D01*
X106698589Y-107838591D01*
X106841838Y-107610610D01*
X107009713Y-107400102D01*
X107200102Y-107209713D01*
X107410610Y-107041838D01*
X107638591Y-106898589D01*
X107881177Y-106781765D01*
X108135318Y-106692838D01*
X108397818Y-106632924D01*
X108665375Y-106602777D01*
X108934625Y-106602777D01*
X109202182Y-106632924D01*
G37*
G36*
X132602182Y-106632924D02*
G01*
X132864682Y-106692838D01*
X133118823Y-106781765D01*
X133361409Y-106898589D01*
X133589390Y-107041838D01*
X133799898Y-107209713D01*
X133990287Y-107400102D01*
X134158162Y-107610610D01*
X134301411Y-107838591D01*
X134418235Y-108081177D01*
X134507162Y-108335318D01*
X134567076Y-108597818D01*
X134597223Y-108865375D01*
X134597223Y-109134625D01*
X134567076Y-109402182D01*
X134507162Y-109664682D01*
X134418235Y-109918823D01*
X134301411Y-110161409D01*
X134158162Y-110389390D01*
X133990287Y-110599898D01*
X133799898Y-110790287D01*
X133589390Y-110958162D01*
X133361409Y-111101411D01*
X133118823Y-111218235D01*
X132864682Y-111307162D01*
X132602182Y-111367076D01*
X132334625Y-111397223D01*
X132065375Y-111397223D01*
X131797818Y-111367076D01*
X131535318Y-111307162D01*
X131281177Y-111218235D01*
X131038591Y-111101411D01*
X130810610Y-110958162D01*
X130600102Y-110790287D01*
X130409713Y-110599898D01*
X130241838Y-110389390D01*
X130098589Y-110161409D01*
X129981765Y-109918823D01*
X129892838Y-109664682D01*
X129832924Y-109402182D01*
X129802777Y-109134625D01*
X129802777Y-108865375D01*
X129832924Y-108597818D01*
X129892838Y-108335318D01*
X129981765Y-108081177D01*
X130098589Y-107838591D01*
X130241838Y-107610610D01*
X130409713Y-107400102D01*
X130600102Y-107209713D01*
X130810610Y-107041838D01*
X131038591Y-106898589D01*
X131281177Y-106781765D01*
X131535318Y-106692838D01*
X131797818Y-106632924D01*
X132065375Y-106602777D01*
X132334625Y-106602777D01*
X132602182Y-106632924D01*
G37*
G36*
X109202182Y-38632924D02*
G01*
X109464682Y-38692838D01*
X109718823Y-38781765D01*
X109961409Y-38898589D01*
X110189390Y-39041838D01*
X110399898Y-39209713D01*
X110590287Y-39400102D01*
X110758162Y-39610610D01*
X110901411Y-39838591D01*
X111018235Y-40081177D01*
X111107162Y-40335318D01*
X111167076Y-40597818D01*
X111197223Y-40865375D01*
X111197223Y-41134625D01*
X111167076Y-41402182D01*
X111107162Y-41664682D01*
X111018235Y-41918823D01*
X110901411Y-42161409D01*
X110758162Y-42389390D01*
X110590287Y-42599898D01*
X110399898Y-42790287D01*
X110189390Y-42958162D01*
X109961409Y-43101411D01*
X109718823Y-43218235D01*
X109464682Y-43307162D01*
X109202182Y-43367076D01*
X108934625Y-43397223D01*
X108665375Y-43397223D01*
X108397818Y-43367076D01*
X108135318Y-43307162D01*
X107881177Y-43218235D01*
X107638591Y-43101411D01*
X107410610Y-42958162D01*
X107200102Y-42790287D01*
X107009713Y-42599898D01*
X106841838Y-42389390D01*
X106698589Y-42161409D01*
X106581765Y-41918823D01*
X106492838Y-41664682D01*
X106432924Y-41402182D01*
X106402777Y-41134625D01*
X106402777Y-40865375D01*
X106432924Y-40597818D01*
X106492838Y-40335318D01*
X106581765Y-40081177D01*
X106698589Y-39838591D01*
X106841838Y-39610610D01*
X107009713Y-39400102D01*
X107200102Y-39209713D01*
X107410610Y-39041838D01*
X107638591Y-38898589D01*
X107881177Y-38781765D01*
X108135318Y-38692838D01*
X108397818Y-38632924D01*
X108665375Y-38602777D01*
X108934625Y-38602777D01*
X109202182Y-38632924D01*
G37*
G36*
X132552182Y-38632924D02*
G01*
X132814682Y-38692838D01*
X133068823Y-38781765D01*
X133311409Y-38898589D01*
X133539390Y-39041838D01*
X133749898Y-39209713D01*
X133940287Y-39400102D01*
X134108162Y-39610610D01*
X134251411Y-39838591D01*
X134368235Y-40081177D01*
X134457162Y-40335318D01*
X134517076Y-40597818D01*
X134547223Y-40865375D01*
X134547223Y-41134625D01*
X134517076Y-41402182D01*
X134457162Y-41664682D01*
X134368235Y-41918823D01*
X134251411Y-42161409D01*
X134108162Y-42389390D01*
X133940287Y-42599898D01*
X133749898Y-42790287D01*
X133539390Y-42958162D01*
X133311409Y-43101411D01*
X133068823Y-43218235D01*
X132814682Y-43307162D01*
X132552182Y-43367076D01*
X132284625Y-43397223D01*
X132015375Y-43397223D01*
X131747818Y-43367076D01*
X131485318Y-43307162D01*
X131231177Y-43218235D01*
X130988591Y-43101411D01*
X130760610Y-42958162D01*
X130550102Y-42790287D01*
X130359713Y-42599898D01*
X130191838Y-42389390D01*
X130048589Y-42161409D01*
X129931765Y-41918823D01*
X129842838Y-41664682D01*
X129782924Y-41402182D01*
X129752777Y-41134625D01*
X129752777Y-40865375D01*
X129782924Y-40597818D01*
X129842838Y-40335318D01*
X129931765Y-40081177D01*
X130048589Y-39838591D01*
X130191838Y-39610610D01*
X130359713Y-39400102D01*
X130550102Y-39209713D01*
X130760610Y-39041838D01*
X130988591Y-38898589D01*
X131231177Y-38781765D01*
X131485318Y-38692838D01*
X131747818Y-38632924D01*
X132015375Y-38602777D01*
X132284625Y-38602777D01*
X132552182Y-38632924D01*
G37*
M02*
