G04 #@! TF.GenerationSoftware,KiCad,Pcbnew,9.0.1*
G04 #@! TF.CreationDate,2025-10-04T13:40:40+13:00*
G04 #@! TF.ProjectId,RGB-to-component-covers,5247422d-746f-42d6-936f-6d706f6e656e,rev?*
G04 #@! TF.SameCoordinates,Original*
G04 #@! TF.FileFunction,Copper,L2,Bot*
G04 #@! TF.FilePolarity,Positive*
%FSLAX46Y46*%
G04 Gerber Fmt 4.6, Leading zero omitted, Abs format (unit mm)*
G04 Created by KiCad (PCBNEW 9.0.1) date 2025-10-04 13:40:40*
%MOMM*%
%LPD*%
G01*
G04 APERTURE LIST*
G04 #@! TA.AperFunction,ComponentPad*
%ADD10C,4.700000*%
G04 #@! TD*
G04 #@! TA.AperFunction,ViaPad*
%ADD11C,10.000000*%
G04 #@! TD*
G04 #@! TA.AperFunction,Conductor*
%ADD12C,0.250000*%
G04 #@! TD*
G04 APERTURE END LIST*
D10*
X108800000Y-41000000D03*
X108800000Y-109000000D03*
X132150000Y-41000000D03*
X132200000Y-109000000D03*
D11*
X121100000Y-77000000D03*
X121100000Y-62000000D03*
X121100000Y-47000000D03*
D12*
X128000000Y-113300000D02*
X128000000Y-115400000D01*
X128000000Y-189600000D02*
X128000000Y-191700000D01*
G04 #@! TA.AperFunction,NonConductor*
G36*
X132807129Y-38293847D02*
G01*
X133198748Y-38412084D01*
X133559947Y-38604136D01*
X133876963Y-38862687D01*
X133913920Y-38907360D01*
X133888361Y-38881801D01*
X133441719Y-38583364D01*
X132945437Y-38377797D01*
X132418586Y-38273000D01*
X131881414Y-38273000D01*
X131354563Y-38377797D01*
X130858281Y-38583364D01*
X130411639Y-38881801D01*
X130031801Y-39261639D01*
X129733364Y-39708281D01*
X129527797Y-40204563D01*
X129423000Y-40731414D01*
X129423000Y-41268586D01*
X129527797Y-41795437D01*
X129733364Y-42291719D01*
X130031801Y-42738361D01*
X130411639Y-43118199D01*
X130858281Y-43416636D01*
X131354563Y-43622203D01*
X131881414Y-43727000D01*
X132418586Y-43727000D01*
X132945437Y-43622203D01*
X133441719Y-43416636D01*
X133888361Y-43118199D01*
X134268199Y-42738361D01*
X134498001Y-42394439D01*
X134498000Y-74980253D01*
X134498000Y-74980254D01*
X134498001Y-107530731D01*
X134318199Y-107261639D01*
X133938361Y-106881801D01*
X133491719Y-106583364D01*
X132995437Y-106377797D01*
X132468586Y-106273000D01*
X131931414Y-106273000D01*
X131404563Y-106377797D01*
X130908281Y-106583364D01*
X130461639Y-106881801D01*
X130081801Y-107261639D01*
X129783364Y-107708281D01*
X129577797Y-108204563D01*
X129473000Y-108731414D01*
X129473000Y-109268586D01*
X129577797Y-109795437D01*
X129783364Y-110291719D01*
X130081801Y-110738361D01*
X130461639Y-111118199D01*
X130908281Y-111416636D01*
X131404563Y-111622203D01*
X131931414Y-111727000D01*
X132468586Y-111727000D01*
X132995437Y-111622203D01*
X133491719Y-111416636D01*
X133728001Y-111258757D01*
X133572109Y-111387722D01*
X133212260Y-111582292D01*
X132821475Y-111703260D01*
X132395803Y-111748000D01*
X108519657Y-111748000D01*
X108092874Y-111706154D01*
X107701252Y-111587916D01*
X107340052Y-111395863D01*
X107023035Y-111137311D01*
X106762278Y-110822109D01*
X106758427Y-110814987D01*
X107061639Y-111118199D01*
X107508281Y-111416636D01*
X108004563Y-111622203D01*
X108531414Y-111727000D01*
X109068586Y-111727000D01*
X109595437Y-111622203D01*
X110091719Y-111416636D01*
X110538361Y-111118199D01*
X110918199Y-110738361D01*
X111216636Y-110291719D01*
X111422203Y-109795437D01*
X111527000Y-109268586D01*
X111527000Y-108731414D01*
X111422203Y-108204563D01*
X111216636Y-107708281D01*
X110918199Y-107261639D01*
X110538361Y-106881801D01*
X110091719Y-106583364D01*
X109595437Y-106377797D01*
X109068586Y-106273000D01*
X108531414Y-106273000D01*
X108004563Y-106377797D01*
X107508281Y-106583364D01*
X107061639Y-106881801D01*
X106681801Y-107261639D01*
X106402000Y-107680390D01*
X106402000Y-76470412D01*
X115723000Y-76470412D01*
X115723000Y-77529588D01*
X115929635Y-78568413D01*
X116334964Y-79546965D01*
X116923411Y-80427638D01*
X117672362Y-81176589D01*
X118553035Y-81765036D01*
X119531587Y-82170365D01*
X120570412Y-82377000D01*
X121629588Y-82377000D01*
X122668413Y-82170365D01*
X123646965Y-81765036D01*
X124527638Y-81176589D01*
X125276589Y-80427638D01*
X125865036Y-79546965D01*
X126270365Y-78568413D01*
X126477000Y-77529588D01*
X126477000Y-76470412D01*
X126270365Y-75431587D01*
X125865036Y-74453035D01*
X125276589Y-73572362D01*
X124527638Y-72823411D01*
X123646965Y-72234964D01*
X122668413Y-71829635D01*
X121629588Y-71623000D01*
X120570412Y-71623000D01*
X119531587Y-71829635D01*
X118553035Y-72234964D01*
X117672362Y-72823411D01*
X116923411Y-73572362D01*
X116334964Y-74453035D01*
X115929635Y-75431587D01*
X115723000Y-76470412D01*
X106402000Y-76470412D01*
X106402000Y-61470412D01*
X115723000Y-61470412D01*
X115723000Y-62529588D01*
X115929635Y-63568413D01*
X116334964Y-64546965D01*
X116923411Y-65427638D01*
X117672362Y-66176589D01*
X118553035Y-66765036D01*
X119531587Y-67170365D01*
X120570412Y-67377000D01*
X121629588Y-67377000D01*
X122668413Y-67170365D01*
X123646965Y-66765036D01*
X124527638Y-66176589D01*
X125276589Y-65427638D01*
X125865036Y-64546965D01*
X126270365Y-63568413D01*
X126477000Y-62529588D01*
X126477000Y-61470412D01*
X126270365Y-60431587D01*
X125865036Y-59453035D01*
X125276589Y-58572362D01*
X124527638Y-57823411D01*
X123646965Y-57234964D01*
X122668413Y-56829635D01*
X121629588Y-56623000D01*
X120570412Y-56623000D01*
X119531587Y-56829635D01*
X118553035Y-57234964D01*
X117672362Y-57823411D01*
X116923411Y-58572362D01*
X116334964Y-59453035D01*
X115929635Y-60431587D01*
X115723000Y-61470412D01*
X106402000Y-61470412D01*
X106402000Y-46470412D01*
X115723000Y-46470412D01*
X115723000Y-47529588D01*
X115929635Y-48568413D01*
X116334964Y-49546965D01*
X116923411Y-50427638D01*
X117672362Y-51176589D01*
X118553035Y-51765036D01*
X119531587Y-52170365D01*
X120570412Y-52377000D01*
X121629588Y-52377000D01*
X122668413Y-52170365D01*
X123646965Y-51765036D01*
X124527638Y-51176589D01*
X125276589Y-50427638D01*
X125865036Y-49546965D01*
X126270365Y-48568413D01*
X126477000Y-47529588D01*
X126477000Y-46470412D01*
X126270365Y-45431587D01*
X125865036Y-44453035D01*
X125276589Y-43572362D01*
X124527638Y-42823411D01*
X123646965Y-42234964D01*
X122668413Y-41829635D01*
X121629588Y-41623000D01*
X120570412Y-41623000D01*
X119531587Y-41829635D01*
X118553035Y-42234964D01*
X117672362Y-42823411D01*
X116923411Y-43572362D01*
X116334964Y-44453035D01*
X115929635Y-45431587D01*
X115723000Y-46470412D01*
X106402000Y-46470412D01*
X106402000Y-42319610D01*
X106681801Y-42738361D01*
X107061639Y-43118199D01*
X107508281Y-43416636D01*
X108004563Y-43622203D01*
X108531414Y-43727000D01*
X109068586Y-43727000D01*
X109595437Y-43622203D01*
X110091719Y-43416636D01*
X110538361Y-43118199D01*
X110918199Y-42738361D01*
X111216636Y-42291719D01*
X111422203Y-41795437D01*
X111527000Y-41268586D01*
X111527000Y-40731414D01*
X111422203Y-40204563D01*
X111216636Y-39708281D01*
X110918199Y-39261639D01*
X110538361Y-38881801D01*
X110091719Y-38583364D01*
X109595437Y-38377797D01*
X109068586Y-38273000D01*
X108531414Y-38273000D01*
X108004563Y-38377797D01*
X107508281Y-38583364D01*
X107061639Y-38881801D01*
X106757448Y-39185992D01*
X107012687Y-38873037D01*
X107327888Y-38612279D01*
X107687741Y-38417708D01*
X108078525Y-38296740D01*
X108504198Y-38252000D01*
X132380344Y-38252000D01*
X132807129Y-38293847D01*
G37*
G04 #@! TD.AperFunction*
M02*
