G04 #@! TF.GenerationSoftware,KiCad,Pcbnew,9.0.1*
G04 #@! TF.CreationDate,2025-10-04T13:41:08+13:00*
G04 #@! TF.ProjectId,RGB-to-component-covers,5247422d-746f-42d6-936f-6d706f6e656e,rev?*
G04 #@! TF.SameCoordinates,Original*
G04 #@! TF.FileFunction,Legend,Bot*
G04 #@! TF.FilePolarity,Positive*
%FSLAX46Y46*%
G04 Gerber Fmt 4.6, Leading zero omitted, Abs format (unit mm)*
G04 Created by KiCad (PCBNEW 9.0.1) date 2025-10-04 13:41:08*
%MOMM*%
%LPD*%
G01*
G04 APERTURE LIST*
%ADD10C,0.010000*%
G04 APERTURE END LIST*
D10*
X79588978Y-91450918D02*
X79622667Y-91497196D01*
X79615538Y-91514547D01*
X79559167Y-91535000D01*
X79529583Y-91527794D01*
X79495667Y-91472829D01*
X79504553Y-91441529D01*
X79559167Y-91435025D01*
X79588978Y-91450918D01*
G36*
X79588978Y-91450918D02*
G01*
X79622667Y-91497196D01*
X79615538Y-91514547D01*
X79559167Y-91535000D01*
X79529583Y-91527794D01*
X79495667Y-91472829D01*
X79504553Y-91441529D01*
X79559167Y-91435025D01*
X79588978Y-91450918D01*
G37*
X79606945Y-91079166D02*
X79616127Y-91135033D01*
X79600741Y-91176020D01*
X79544541Y-91229451D01*
X79511390Y-91228834D01*
X79502208Y-91172967D01*
X79517594Y-91131980D01*
X79573793Y-91078549D01*
X79606945Y-91079166D01*
G36*
X79606945Y-91079166D02*
G01*
X79616127Y-91135033D01*
X79600741Y-91176020D01*
X79544541Y-91229451D01*
X79511390Y-91228834D01*
X79502208Y-91172967D01*
X79517594Y-91131980D01*
X79573793Y-91078549D01*
X79606945Y-91079166D01*
G37*
X79568852Y-90620407D02*
X79560000Y-90643684D01*
X79499293Y-90686393D01*
X79441676Y-90707658D01*
X79411000Y-90694352D01*
X79411217Y-90691209D01*
X79448258Y-90647234D01*
X79516429Y-90616313D01*
X79568852Y-90620407D01*
G36*
X79568852Y-90620407D02*
G01*
X79560000Y-90643684D01*
X79499293Y-90686393D01*
X79441676Y-90707658D01*
X79411000Y-90694352D01*
X79411217Y-90691209D01*
X79448258Y-90647234D01*
X79516429Y-90616313D01*
X79568852Y-90620407D01*
G37*
X79651997Y-92272513D02*
X79603993Y-92319513D01*
X79540146Y-92357081D01*
X79455826Y-92380167D01*
X79451717Y-92379996D01*
X79435182Y-92362260D01*
X79495667Y-92318167D01*
X79569073Y-92280762D01*
X79635869Y-92259540D01*
X79651997Y-92272513D01*
G36*
X79651997Y-92272513D02*
G01*
X79603993Y-92319513D01*
X79540146Y-92357081D01*
X79455826Y-92380167D01*
X79451717Y-92379996D01*
X79435182Y-92362260D01*
X79495667Y-92318167D01*
X79569073Y-92280762D01*
X79635869Y-92259540D01*
X79651997Y-92272513D01*
G37*
X79728314Y-90392301D02*
X79725389Y-90396413D01*
X79665165Y-90444800D01*
X79567066Y-90500079D01*
X79432167Y-90565222D01*
X79559167Y-90457655D01*
X79614899Y-90413137D01*
X79696403Y-90360911D01*
X79738562Y-90352284D01*
X79728314Y-90392301D01*
G36*
X79728314Y-90392301D02*
G01*
X79725389Y-90396413D01*
X79665165Y-90444800D01*
X79567066Y-90500079D01*
X79432167Y-90565222D01*
X79559167Y-90457655D01*
X79614899Y-90413137D01*
X79696403Y-90360911D01*
X79738562Y-90352284D01*
X79728314Y-90392301D01*
G37*
X79713045Y-89898848D02*
X79681217Y-89939674D01*
X79599799Y-90000806D01*
X79561474Y-90024508D01*
X79484107Y-90061643D01*
X79453334Y-90058591D01*
X79484913Y-90010571D01*
X79561024Y-89951127D01*
X79647019Y-89904016D01*
X79708214Y-89891916D01*
X79713045Y-89898848D01*
G36*
X79713045Y-89898848D02*
G01*
X79681217Y-89939674D01*
X79599799Y-90000806D01*
X79561474Y-90024508D01*
X79484107Y-90061643D01*
X79453334Y-90058591D01*
X79484913Y-90010571D01*
X79561024Y-89951127D01*
X79647019Y-89904016D01*
X79708214Y-89891916D01*
X79713045Y-89898848D01*
G37*
X79700174Y-90233341D02*
X79668547Y-90272994D01*
X79605837Y-90325881D01*
X79536569Y-90372164D01*
X79485268Y-90392000D01*
X79481091Y-90391469D01*
X79488819Y-90363882D01*
X79549552Y-90307333D01*
X79553382Y-90304339D01*
X79637714Y-90246985D01*
X79692844Y-90224075D01*
X79700174Y-90233341D01*
G36*
X79700174Y-90233341D02*
G01*
X79668547Y-90272994D01*
X79605837Y-90325881D01*
X79536569Y-90372164D01*
X79485268Y-90392000D01*
X79481091Y-90391469D01*
X79488819Y-90363882D01*
X79549552Y-90307333D01*
X79553382Y-90304339D01*
X79637714Y-90246985D01*
X79692844Y-90224075D01*
X79700174Y-90233341D01*
G37*
X79695261Y-92397816D02*
X79693862Y-92409078D01*
X79651932Y-92456407D01*
X79579890Y-92517685D01*
X79505039Y-92570723D01*
X79454680Y-92593333D01*
X79441539Y-92586852D01*
X79425112Y-92531515D01*
X79426436Y-92523662D01*
X79471276Y-92474093D01*
X79554293Y-92425080D01*
X79640589Y-92393897D01*
X79695261Y-92397816D01*
G36*
X79695261Y-92397816D02*
G01*
X79693862Y-92409078D01*
X79651932Y-92456407D01*
X79579890Y-92517685D01*
X79505039Y-92570723D01*
X79454680Y-92593333D01*
X79441539Y-92586852D01*
X79425112Y-92531515D01*
X79426436Y-92523662D01*
X79471276Y-92474093D01*
X79554293Y-92425080D01*
X79640589Y-92393897D01*
X79695261Y-92397816D01*
G37*
X79722442Y-90011287D02*
X79736562Y-90036436D01*
X79686400Y-90096021D01*
X79579054Y-90181245D01*
X79556537Y-90196740D01*
X79482998Y-90237772D01*
X79453334Y-90237481D01*
X79455509Y-90228397D01*
X79499177Y-90171186D01*
X79576784Y-90099038D01*
X79658981Y-90037221D01*
X79716417Y-90011000D01*
X79722442Y-90011287D01*
G36*
X79722442Y-90011287D02*
G01*
X79736562Y-90036436D01*
X79686400Y-90096021D01*
X79579054Y-90181245D01*
X79556537Y-90196740D01*
X79482998Y-90237772D01*
X79453334Y-90237481D01*
X79455509Y-90228397D01*
X79499177Y-90171186D01*
X79576784Y-90099038D01*
X79658981Y-90037221D01*
X79716417Y-90011000D01*
X79722442Y-90011287D01*
G37*
X79707334Y-92130811D02*
X79707092Y-92137597D01*
X79691337Y-92170000D01*
X79685176Y-92171257D01*
X79623303Y-92193282D01*
X79522004Y-92234068D01*
X79487899Y-92247511D01*
X79402916Y-92271834D01*
X79369098Y-92265818D01*
X79375243Y-92254739D01*
X79435252Y-92212621D01*
X79538431Y-92162561D01*
X79586719Y-92143922D01*
X79673112Y-92121604D01*
X79707334Y-92130811D01*
G36*
X79707334Y-92130811D02*
G01*
X79707092Y-92137597D01*
X79691337Y-92170000D01*
X79685176Y-92171257D01*
X79623303Y-92193282D01*
X79522004Y-92234068D01*
X79487899Y-92247511D01*
X79402916Y-92271834D01*
X79369098Y-92265818D01*
X79375243Y-92254739D01*
X79435252Y-92212621D01*
X79538431Y-92162561D01*
X79586719Y-92143922D01*
X79673112Y-92121604D01*
X79707334Y-92130811D01*
G37*
X79530474Y-91972785D02*
X79476993Y-92023180D01*
X79456566Y-92039370D01*
X79423592Y-92078490D01*
X79455929Y-92079299D01*
X79544409Y-92039570D01*
X79602252Y-92015806D01*
X79651394Y-92015282D01*
X79653039Y-92018281D01*
X79624719Y-92053337D01*
X79545253Y-92102750D01*
X79504913Y-92122515D01*
X79430540Y-92143718D01*
X79396494Y-92116455D01*
X79382228Y-92077984D01*
X79380544Y-92018455D01*
X79435630Y-91984029D01*
X79510045Y-91961235D01*
X79530474Y-91972785D01*
G36*
X79530474Y-91972785D02*
G01*
X79476993Y-92023180D01*
X79456566Y-92039370D01*
X79423592Y-92078490D01*
X79455929Y-92079299D01*
X79544409Y-92039570D01*
X79602252Y-92015806D01*
X79651394Y-92015282D01*
X79653039Y-92018281D01*
X79624719Y-92053337D01*
X79545253Y-92102750D01*
X79504913Y-92122515D01*
X79430540Y-92143718D01*
X79396494Y-92116455D01*
X79382228Y-92077984D01*
X79380544Y-92018455D01*
X79435630Y-91984029D01*
X79510045Y-91961235D01*
X79530474Y-91972785D01*
G37*
X80859033Y-89969205D02*
X80927971Y-90003050D01*
X80965797Y-90097241D01*
X80977334Y-90262555D01*
X80997393Y-90396217D01*
X81083167Y-90578473D01*
X81099942Y-90603909D01*
X81172686Y-90749579D01*
X81181559Y-90855675D01*
X81125683Y-90915239D01*
X81094096Y-90914647D01*
X81017662Y-90855392D01*
X80914017Y-90719250D01*
X80862955Y-90640730D01*
X80800291Y-90518658D01*
X80772170Y-90397115D01*
X80765667Y-90233815D01*
X80767291Y-90116671D01*
X80777353Y-90021943D01*
X80801635Y-89978860D01*
X80845805Y-89968667D01*
X80859033Y-89969205D01*
G36*
X80859033Y-89969205D02*
G01*
X80927971Y-90003050D01*
X80965797Y-90097241D01*
X80977334Y-90262555D01*
X80997393Y-90396217D01*
X81083167Y-90578473D01*
X81099942Y-90603909D01*
X81172686Y-90749579D01*
X81181559Y-90855675D01*
X81125683Y-90915239D01*
X81094096Y-90914647D01*
X81017662Y-90855392D01*
X80914017Y-90719250D01*
X80862955Y-90640730D01*
X80800291Y-90518658D01*
X80772170Y-90397115D01*
X80765667Y-90233815D01*
X80767291Y-90116671D01*
X80777353Y-90021943D01*
X80801635Y-89978860D01*
X80845805Y-89968667D01*
X80859033Y-89969205D01*
G37*
X81276996Y-91182729D02*
X81280330Y-91186369D01*
X81295363Y-91241134D01*
X81275817Y-91340430D01*
X81218939Y-91499278D01*
X81168594Y-91637956D01*
X81115586Y-91810659D01*
X81083724Y-91947750D01*
X81071471Y-92010974D01*
X81035258Y-92100947D01*
X80980668Y-92127667D01*
X80941129Y-92123854D01*
X80876393Y-92097281D01*
X80868582Y-92084979D01*
X80861678Y-91999588D01*
X80881516Y-91864328D01*
X80921646Y-91700349D01*
X80975619Y-91528801D01*
X81036983Y-91370832D01*
X81099289Y-91247591D01*
X81156085Y-91180228D01*
X81210584Y-91157113D01*
X81276996Y-91182729D01*
G36*
X81276996Y-91182729D02*
G01*
X81280330Y-91186369D01*
X81295363Y-91241134D01*
X81275817Y-91340430D01*
X81218939Y-91499278D01*
X81168594Y-91637956D01*
X81115586Y-91810659D01*
X81083724Y-91947750D01*
X81071471Y-92010974D01*
X81035258Y-92100947D01*
X80980668Y-92127667D01*
X80941129Y-92123854D01*
X80876393Y-92097281D01*
X80868582Y-92084979D01*
X80861678Y-91999588D01*
X80881516Y-91864328D01*
X80921646Y-91700349D01*
X80975619Y-91528801D01*
X81036983Y-91370832D01*
X81099289Y-91247591D01*
X81156085Y-91180228D01*
X81210584Y-91157113D01*
X81276996Y-91182729D01*
G37*
X80512765Y-90225487D02*
X80579067Y-90248385D01*
X80596334Y-90304050D01*
X80561532Y-90376248D01*
X80448298Y-90434290D01*
X80439736Y-90437204D01*
X80323257Y-90495667D01*
X80239094Y-90569902D01*
X80201959Y-90642531D01*
X80226569Y-90696173D01*
X80290219Y-90718177D01*
X80396579Y-90730019D01*
X80447824Y-90736365D01*
X80524323Y-90779404D01*
X80548974Y-90843651D01*
X80507253Y-90906010D01*
X80414067Y-90930948D01*
X80280148Y-90923863D01*
X80144032Y-90889465D01*
X80042715Y-90833527D01*
X80005817Y-90793781D01*
X79963639Y-90676084D01*
X80003539Y-90540798D01*
X80125687Y-90387020D01*
X80229544Y-90293466D01*
X80331343Y-90237723D01*
X80443187Y-90222667D01*
X80512765Y-90225487D01*
G36*
X80512765Y-90225487D02*
G01*
X80579067Y-90248385D01*
X80596334Y-90304050D01*
X80561532Y-90376248D01*
X80448298Y-90434290D01*
X80439736Y-90437204D01*
X80323257Y-90495667D01*
X80239094Y-90569902D01*
X80201959Y-90642531D01*
X80226569Y-90696173D01*
X80290219Y-90718177D01*
X80396579Y-90730019D01*
X80447824Y-90736365D01*
X80524323Y-90779404D01*
X80548974Y-90843651D01*
X80507253Y-90906010D01*
X80414067Y-90930948D01*
X80280148Y-90923863D01*
X80144032Y-90889465D01*
X80042715Y-90833527D01*
X80005817Y-90793781D01*
X79963639Y-90676084D01*
X80003539Y-90540798D01*
X80125687Y-90387020D01*
X80229544Y-90293466D01*
X80331343Y-90237723D01*
X80443187Y-90222667D01*
X80512765Y-90225487D01*
G37*
X80549613Y-91369171D02*
X80610455Y-91426072D01*
X80613987Y-91436737D01*
X80605439Y-91496245D01*
X80536782Y-91552991D01*
X80396654Y-91617126D01*
X80390229Y-91619713D01*
X80284402Y-91672932D01*
X80215276Y-91725570D01*
X80197613Y-91773326D01*
X80230785Y-91841257D01*
X80314645Y-91894481D01*
X80430024Y-91916000D01*
X80517204Y-91921147D01*
X80554000Y-91933704D01*
X80556797Y-91949188D01*
X80578451Y-92015125D01*
X80576998Y-92064268D01*
X80512878Y-92127019D01*
X80446945Y-92147632D01*
X80307931Y-92136594D01*
X80164494Y-92074270D01*
X80046662Y-91970727D01*
X80044513Y-91967978D01*
X79971781Y-91827677D01*
X79982700Y-91696845D01*
X80077750Y-91569260D01*
X80162149Y-91498816D01*
X80308702Y-91410048D01*
X80443443Y-91365331D01*
X80549613Y-91369171D01*
G36*
X80549613Y-91369171D02*
G01*
X80610455Y-91426072D01*
X80613987Y-91436737D01*
X80605439Y-91496245D01*
X80536782Y-91552991D01*
X80396654Y-91617126D01*
X80390229Y-91619713D01*
X80284402Y-91672932D01*
X80215276Y-91725570D01*
X80197613Y-91773326D01*
X80230785Y-91841257D01*
X80314645Y-91894481D01*
X80430024Y-91916000D01*
X80517204Y-91921147D01*
X80554000Y-91933704D01*
X80556797Y-91949188D01*
X80578451Y-92015125D01*
X80576998Y-92064268D01*
X80512878Y-92127019D01*
X80446945Y-92147632D01*
X80307931Y-92136594D01*
X80164494Y-92074270D01*
X80046662Y-91970727D01*
X80044513Y-91967978D01*
X79971781Y-91827677D01*
X79982700Y-91696845D01*
X80077750Y-91569260D01*
X80162149Y-91498816D01*
X80308702Y-91410048D01*
X80443443Y-91365331D01*
X80549613Y-91369171D01*
G37*
X78969947Y-90789809D02*
X79024077Y-90849214D01*
X79011557Y-90936166D01*
X78934750Y-91030770D01*
X78878870Y-91082346D01*
X78866913Y-91123701D01*
X78913584Y-91169222D01*
X78958327Y-91213262D01*
X78982536Y-91305085D01*
X78923519Y-91408717D01*
X78888560Y-91456874D01*
X78892080Y-91510844D01*
X78948737Y-91593211D01*
X78955258Y-91601752D01*
X79006391Y-91696023D01*
X79014214Y-91769078D01*
X79004564Y-91789031D01*
X78946715Y-91826706D01*
X78869605Y-91806262D01*
X78787916Y-91741928D01*
X78716327Y-91647933D01*
X78669520Y-91538506D01*
X78662176Y-91427876D01*
X78666357Y-91317248D01*
X78645859Y-91235034D01*
X78639029Y-91223778D01*
X78610387Y-91126032D01*
X78646210Y-91024793D01*
X78752044Y-90902705D01*
X78779913Y-90876764D01*
X78887531Y-90800219D01*
X78963710Y-90787238D01*
X78969947Y-90789809D01*
G36*
X78969947Y-90789809D02*
G01*
X79024077Y-90849214D01*
X79011557Y-90936166D01*
X78934750Y-91030770D01*
X78878870Y-91082346D01*
X78866913Y-91123701D01*
X78913584Y-91169222D01*
X78958327Y-91213262D01*
X78982536Y-91305085D01*
X78923519Y-91408717D01*
X78888560Y-91456874D01*
X78892080Y-91510844D01*
X78948737Y-91593211D01*
X78955258Y-91601752D01*
X79006391Y-91696023D01*
X79014214Y-91769078D01*
X79004564Y-91789031D01*
X78946715Y-91826706D01*
X78869605Y-91806262D01*
X78787916Y-91741928D01*
X78716327Y-91647933D01*
X78669520Y-91538506D01*
X78662176Y-91427876D01*
X78666357Y-91317248D01*
X78645859Y-91235034D01*
X78639029Y-91223778D01*
X78610387Y-91126032D01*
X78646210Y-91024793D01*
X78752044Y-90902705D01*
X78779913Y-90876764D01*
X78887531Y-90800219D01*
X78963710Y-90787238D01*
X78969947Y-90789809D01*
G37*
X80111822Y-88216260D02*
X80309638Y-88223761D01*
X80466406Y-88239705D01*
X80604051Y-88266335D01*
X80744500Y-88305894D01*
X81033324Y-88416700D01*
X81360907Y-88605420D01*
X81622803Y-88838358D01*
X81688654Y-88910637D01*
X81748489Y-88966379D01*
X81775316Y-88967652D01*
X81781553Y-88920917D01*
X81790914Y-88861547D01*
X81824000Y-88825667D01*
X81827187Y-88826055D01*
X81855424Y-88869580D01*
X81867856Y-88963250D01*
X81869379Y-89100833D01*
X81973479Y-88973833D01*
X81988628Y-88954540D01*
X82051980Y-88851793D01*
X82077790Y-88770252D01*
X82085932Y-88729888D01*
X82124999Y-88722717D01*
X82125414Y-88722978D01*
X82152383Y-88784121D01*
X82148828Y-88894549D01*
X82139872Y-88970300D01*
X82153791Y-89024486D01*
X82207662Y-89037333D01*
X82225742Y-89037827D01*
X82283078Y-89059594D01*
X82262144Y-89113583D01*
X82162949Y-89199764D01*
X82083884Y-89259933D01*
X82003793Y-89334311D01*
X81957293Y-89411741D01*
X81942818Y-89507744D01*
X81958801Y-89637839D01*
X82003675Y-89817546D01*
X82075873Y-90062387D01*
X82107212Y-90168039D01*
X82184351Y-90457214D01*
X82228824Y-90688235D01*
X82241989Y-90875688D01*
X82225205Y-91034155D01*
X82179830Y-91178220D01*
X82165394Y-91213197D01*
X82135444Y-91302576D01*
X82142581Y-91353226D01*
X82187921Y-91395057D01*
X82239343Y-91427769D01*
X82297758Y-91450333D01*
X82330450Y-91474762D01*
X82318870Y-91533601D01*
X82266586Y-91594665D01*
X82261572Y-91598386D01*
X82226174Y-91638035D01*
X82227846Y-91695149D01*
X82266586Y-91799056D01*
X82305894Y-91908321D01*
X82330111Y-92028944D01*
X82319977Y-92102848D01*
X82275085Y-92114885D01*
X82244457Y-92116525D01*
X82230514Y-92169201D01*
X82236506Y-92290272D01*
X82239023Y-92323656D01*
X82225950Y-92506079D01*
X82158973Y-92699167D01*
X82063104Y-92910833D01*
X82038717Y-92762667D01*
X82014329Y-92614500D01*
X81908581Y-92824176D01*
X81801067Y-92989869D01*
X81597128Y-93173426D01*
X81491828Y-93241210D01*
X81374207Y-93301931D01*
X81313788Y-93309412D01*
X81313539Y-93263765D01*
X81376425Y-93165102D01*
X81417921Y-93107895D01*
X81540541Y-92898027D01*
X81622972Y-92689099D01*
X81653579Y-92508667D01*
X81654351Y-92360500D01*
X81575799Y-92489312D01*
X81564005Y-92508049D01*
X81451584Y-92638134D01*
X81295880Y-92736928D01*
X81076251Y-92818013D01*
X81030855Y-92831645D01*
X80955014Y-92856049D01*
X80879228Y-92884245D01*
X80790916Y-92922012D01*
X80677498Y-92975126D01*
X80526392Y-93049365D01*
X80325019Y-93150506D01*
X80060798Y-93284326D01*
X79873332Y-93374884D01*
X79670063Y-93464050D01*
X79492484Y-93533027D01*
X79364972Y-93571747D01*
X79313216Y-93581059D01*
X79128984Y-93596668D01*
X79004567Y-93595729D01*
X78925858Y-93595136D01*
X78737991Y-93577642D01*
X78599537Y-93545362D01*
X78523130Y-93478107D01*
X78457158Y-93346470D01*
X78411843Y-93172972D01*
X78395000Y-92979249D01*
X78395104Y-92955175D01*
X78405978Y-92800414D01*
X78443478Y-92682683D01*
X78519986Y-92560500D01*
X78644971Y-92387962D01*
X78556985Y-92276107D01*
X78526902Y-92232664D01*
X78445782Y-92065524D01*
X78376647Y-91856168D01*
X78328660Y-91635889D01*
X78310984Y-91435979D01*
X78318794Y-91284715D01*
X78363664Y-91003199D01*
X78441919Y-90711085D01*
X78546154Y-90427410D01*
X78668962Y-90171213D01*
X78802937Y-89961530D01*
X78940673Y-89817398D01*
X79110591Y-89687295D01*
X78890379Y-89632396D01*
X78811167Y-89610963D01*
X78587201Y-89521830D01*
X78426276Y-89400761D01*
X78313233Y-89237382D01*
X78261202Y-89105670D01*
X78238802Y-88900909D01*
X78314118Y-88900909D01*
X78339069Y-89064402D01*
X78411775Y-89227617D01*
X78525720Y-89371080D01*
X78674387Y-89475320D01*
X78790708Y-89513260D01*
X78984724Y-89550537D01*
X79234929Y-89582299D01*
X79526523Y-89607028D01*
X79844709Y-89623205D01*
X80174690Y-89629311D01*
X80341144Y-89632964D01*
X80696293Y-89670586D01*
X80995058Y-89751429D01*
X81250768Y-89878578D01*
X81352490Y-89952335D01*
X81401651Y-90011344D01*
X81382798Y-90035080D01*
X81303141Y-90017096D01*
X81169887Y-89950941D01*
X81086771Y-89906648D01*
X80868433Y-89823571D01*
X80601551Y-89764148D01*
X80274674Y-89726223D01*
X79876347Y-89707644D01*
X79667302Y-89703760D01*
X79493867Y-89703897D01*
X79372452Y-89710824D01*
X79285707Y-89726561D01*
X79216282Y-89753127D01*
X79146826Y-89792540D01*
X78994292Y-89903526D01*
X78821649Y-90090322D01*
X78678904Y-90332286D01*
X78556020Y-90643883D01*
X78496892Y-90833517D01*
X78450758Y-91026748D01*
X78427528Y-91212505D01*
X78420581Y-91429167D01*
X78420503Y-91466735D01*
X78424789Y-91655290D01*
X78441197Y-91794239D01*
X78475174Y-91913552D01*
X78532164Y-92043195D01*
X78597695Y-92165960D01*
X78773922Y-92403002D01*
X78977682Y-92562057D01*
X79207144Y-92641504D01*
X79335657Y-92655735D01*
X79667577Y-92644153D01*
X80019795Y-92572065D01*
X80369363Y-92443382D01*
X80469323Y-92400382D01*
X80654199Y-92333293D01*
X80826536Y-92284719D01*
X80969936Y-92258186D01*
X81068001Y-92257221D01*
X81104334Y-92285349D01*
X81097889Y-92297484D01*
X81034199Y-92328578D01*
X80924417Y-92352543D01*
X80900105Y-92356684D01*
X80762526Y-92394151D01*
X80588752Y-92456158D01*
X80410454Y-92531667D01*
X80327320Y-92568066D01*
X80033013Y-92668375D01*
X79734924Y-92730941D01*
X79448659Y-92755172D01*
X79189822Y-92740478D01*
X78974020Y-92686269D01*
X78816858Y-92591954D01*
X78688656Y-92472196D01*
X78579020Y-92637866D01*
X78541176Y-92698188D01*
X78497351Y-92796707D01*
X78482266Y-92906871D01*
X78488273Y-93064654D01*
X78499691Y-93170384D01*
X78548694Y-93341197D01*
X78641286Y-93450153D01*
X78789300Y-93507796D01*
X79004567Y-93524667D01*
X79120515Y-93520608D01*
X79296901Y-93496391D01*
X79485238Y-93445888D01*
X79700200Y-93364004D01*
X79956459Y-93245644D01*
X80268690Y-93085713D01*
X80293340Y-93072747D01*
X80507966Y-92964606D01*
X80717033Y-92866690D01*
X80897731Y-92789313D01*
X81027252Y-92742785D01*
X81153961Y-92701886D01*
X81330438Y-92615801D01*
X81454797Y-92500960D01*
X81547990Y-92341206D01*
X81592446Y-92253694D01*
X81647025Y-92190618D01*
X81686101Y-92210176D01*
X81709183Y-92311917D01*
X81715780Y-92495392D01*
X81707583Y-92671680D01*
X81678418Y-92821623D01*
X81621958Y-92946362D01*
X81568540Y-93050772D01*
X81565575Y-93095275D01*
X81612905Y-93073770D01*
X81707554Y-92984917D01*
X81750669Y-92936040D01*
X81869227Y-92726666D01*
X81908667Y-92487243D01*
X81914831Y-92393393D01*
X81940908Y-92330315D01*
X81981696Y-92347877D01*
X82030956Y-92448079D01*
X82040966Y-92473654D01*
X82085424Y-92551317D01*
X82123312Y-92570326D01*
X82137566Y-92556242D01*
X82160767Y-92472628D01*
X82157053Y-92350204D01*
X82129236Y-92219023D01*
X82080132Y-92109141D01*
X82052831Y-92064873D01*
X82019025Y-91975134D01*
X82049268Y-91939366D01*
X82142999Y-91958903D01*
X82213714Y-91979870D01*
X82247334Y-91976350D01*
X82230894Y-91920865D01*
X82180752Y-91827122D01*
X82118958Y-91738059D01*
X82068308Y-91690119D01*
X82065140Y-91688731D01*
X82052538Y-91652324D01*
X82115250Y-91586714D01*
X82216000Y-91505172D01*
X82119769Y-91437770D01*
X82023539Y-91370367D01*
X82119018Y-91073425D01*
X82164037Y-90909460D01*
X82183300Y-90722805D01*
X82148686Y-90575548D01*
X82058596Y-90451215D01*
X82046192Y-90435743D01*
X82006971Y-90337628D01*
X81989114Y-90209060D01*
X81987968Y-90180996D01*
X81977307Y-90073947D01*
X81959845Y-89969302D01*
X81940204Y-89887423D01*
X81923010Y-89848674D01*
X81912887Y-89873417D01*
X81908466Y-89892591D01*
X81866334Y-89926333D01*
X81847319Y-89899752D01*
X81830461Y-89808499D01*
X81824000Y-89673807D01*
X81825284Y-89586561D01*
X81839541Y-89462838D01*
X81879046Y-89369689D01*
X81955386Y-89271640D01*
X82013774Y-89197858D01*
X82041406Y-89135090D01*
X82007327Y-89124532D01*
X81913577Y-89171092D01*
X81889128Y-89183870D01*
X81830337Y-89188366D01*
X81762708Y-89148045D01*
X81674340Y-89053846D01*
X81553335Y-88896703D01*
X81515776Y-88848447D01*
X81432656Y-88757673D01*
X81370795Y-88710635D01*
X81301256Y-88667987D01*
X81214288Y-88593106D01*
X81186752Y-88571151D01*
X81076954Y-88510163D01*
X80920706Y-88442152D01*
X80742265Y-88378165D01*
X80609206Y-88337071D01*
X80445834Y-88295498D01*
X80289676Y-88271336D01*
X80110148Y-88260349D01*
X79876667Y-88258302D01*
X79715726Y-88261537D01*
X79493557Y-88273543D01*
X79297572Y-88292195D01*
X79157000Y-88315185D01*
X78994094Y-88363282D01*
X78768985Y-88454277D01*
X78561901Y-88562419D01*
X78405584Y-88672154D01*
X78343439Y-88756611D01*
X78314118Y-88900909D01*
X78238802Y-88900909D01*
X78235238Y-88868327D01*
X78245089Y-88770356D01*
X78273896Y-88690789D01*
X78338894Y-88622719D01*
X78458500Y-88538976D01*
X78658412Y-88423253D01*
X78895530Y-88327068D01*
X79162412Y-88262995D01*
X79476566Y-88226974D01*
X79855500Y-88214945D01*
X80111822Y-88216260D01*
G36*
X80111822Y-88216260D02*
G01*
X80309638Y-88223761D01*
X80466406Y-88239705D01*
X80604051Y-88266335D01*
X80744500Y-88305894D01*
X81033324Y-88416700D01*
X81360907Y-88605420D01*
X81622803Y-88838358D01*
X81688654Y-88910637D01*
X81748489Y-88966379D01*
X81775316Y-88967652D01*
X81781553Y-88920917D01*
X81790914Y-88861547D01*
X81824000Y-88825667D01*
X81827187Y-88826055D01*
X81855424Y-88869580D01*
X81867856Y-88963250D01*
X81869379Y-89100833D01*
X81973479Y-88973833D01*
X81988628Y-88954540D01*
X82051980Y-88851793D01*
X82077790Y-88770252D01*
X82085932Y-88729888D01*
X82124999Y-88722717D01*
X82125414Y-88722978D01*
X82152383Y-88784121D01*
X82148828Y-88894549D01*
X82139872Y-88970300D01*
X82153791Y-89024486D01*
X82207662Y-89037333D01*
X82225742Y-89037827D01*
X82283078Y-89059594D01*
X82262144Y-89113583D01*
X82162949Y-89199764D01*
X82083884Y-89259933D01*
X82003793Y-89334311D01*
X81957293Y-89411741D01*
X81942818Y-89507744D01*
X81958801Y-89637839D01*
X82003675Y-89817546D01*
X82075873Y-90062387D01*
X82107212Y-90168039D01*
X82184351Y-90457214D01*
X82228824Y-90688235D01*
X82241989Y-90875688D01*
X82225205Y-91034155D01*
X82179830Y-91178220D01*
X82165394Y-91213197D01*
X82135444Y-91302576D01*
X82142581Y-91353226D01*
X82187921Y-91395057D01*
X82239343Y-91427769D01*
X82297758Y-91450333D01*
X82330450Y-91474762D01*
X82318870Y-91533601D01*
X82266586Y-91594665D01*
X82261572Y-91598386D01*
X82226174Y-91638035D01*
X82227846Y-91695149D01*
X82266586Y-91799056D01*
X82305894Y-91908321D01*
X82330111Y-92028944D01*
X82319977Y-92102848D01*
X82275085Y-92114885D01*
X82244457Y-92116525D01*
X82230514Y-92169201D01*
X82236506Y-92290272D01*
X82239023Y-92323656D01*
X82225950Y-92506079D01*
X82158973Y-92699167D01*
X82063104Y-92910833D01*
X82038717Y-92762667D01*
X82014329Y-92614500D01*
X81908581Y-92824176D01*
X81801067Y-92989869D01*
X81597128Y-93173426D01*
X81491828Y-93241210D01*
X81374207Y-93301931D01*
X81313788Y-93309412D01*
X81313539Y-93263765D01*
X81376425Y-93165102D01*
X81417921Y-93107895D01*
X81540541Y-92898027D01*
X81622972Y-92689099D01*
X81653579Y-92508667D01*
X81654351Y-92360500D01*
X81575799Y-92489312D01*
X81564005Y-92508049D01*
X81451584Y-92638134D01*
X81295880Y-92736928D01*
X81076251Y-92818013D01*
X81030855Y-92831645D01*
X80955014Y-92856049D01*
X80879228Y-92884245D01*
X80790916Y-92922012D01*
X80677498Y-92975126D01*
X80526392Y-93049365D01*
X80325019Y-93150506D01*
X80060798Y-93284326D01*
X79873332Y-93374884D01*
X79670063Y-93464050D01*
X79492484Y-93533027D01*
X79364972Y-93571747D01*
X79313216Y-93581059D01*
X79128984Y-93596668D01*
X79004567Y-93595729D01*
X78925858Y-93595136D01*
X78737991Y-93577642D01*
X78599537Y-93545362D01*
X78523130Y-93478107D01*
X78457158Y-93346470D01*
X78411843Y-93172972D01*
X78395000Y-92979249D01*
X78395104Y-92955175D01*
X78405978Y-92800414D01*
X78443478Y-92682683D01*
X78519986Y-92560500D01*
X78644971Y-92387962D01*
X78556985Y-92276107D01*
X78526902Y-92232664D01*
X78445782Y-92065524D01*
X78376647Y-91856168D01*
X78328660Y-91635889D01*
X78310984Y-91435979D01*
X78318794Y-91284715D01*
X78363664Y-91003199D01*
X78441919Y-90711085D01*
X78546154Y-90427410D01*
X78668962Y-90171213D01*
X78802937Y-89961530D01*
X78940673Y-89817398D01*
X79110591Y-89687295D01*
X78890379Y-89632396D01*
X78811167Y-89610963D01*
X78587201Y-89521830D01*
X78426276Y-89400761D01*
X78313233Y-89237382D01*
X78261202Y-89105670D01*
X78238802Y-88900909D01*
X78314118Y-88900909D01*
X78339069Y-89064402D01*
X78411775Y-89227617D01*
X78525720Y-89371080D01*
X78674387Y-89475320D01*
X78790708Y-89513260D01*
X78984724Y-89550537D01*
X79234929Y-89582299D01*
X79526523Y-89607028D01*
X79844709Y-89623205D01*
X80174690Y-89629311D01*
X80341144Y-89632964D01*
X80696293Y-89670586D01*
X80995058Y-89751429D01*
X81250768Y-89878578D01*
X81352490Y-89952335D01*
X81401651Y-90011344D01*
X81382798Y-90035080D01*
X81303141Y-90017096D01*
X81169887Y-89950941D01*
X81086771Y-89906648D01*
X80868433Y-89823571D01*
X80601551Y-89764148D01*
X80274674Y-89726223D01*
X79876347Y-89707644D01*
X79667302Y-89703760D01*
X79493867Y-89703897D01*
X79372452Y-89710824D01*
X79285707Y-89726561D01*
X79216282Y-89753127D01*
X79146826Y-89792540D01*
X78994292Y-89903526D01*
X78821649Y-90090322D01*
X78678904Y-90332286D01*
X78556020Y-90643883D01*
X78496892Y-90833517D01*
X78450758Y-91026748D01*
X78427528Y-91212505D01*
X78420581Y-91429167D01*
X78420503Y-91466735D01*
X78424789Y-91655290D01*
X78441197Y-91794239D01*
X78475174Y-91913552D01*
X78532164Y-92043195D01*
X78597695Y-92165960D01*
X78773922Y-92403002D01*
X78977682Y-92562057D01*
X79207144Y-92641504D01*
X79335657Y-92655735D01*
X79667577Y-92644153D01*
X80019795Y-92572065D01*
X80369363Y-92443382D01*
X80469323Y-92400382D01*
X80654199Y-92333293D01*
X80826536Y-92284719D01*
X80969936Y-92258186D01*
X81068001Y-92257221D01*
X81104334Y-92285349D01*
X81097889Y-92297484D01*
X81034199Y-92328578D01*
X80924417Y-92352543D01*
X80900105Y-92356684D01*
X80762526Y-92394151D01*
X80588752Y-92456158D01*
X80410454Y-92531667D01*
X80327320Y-92568066D01*
X80033013Y-92668375D01*
X79734924Y-92730941D01*
X79448659Y-92755172D01*
X79189822Y-92740478D01*
X78974020Y-92686269D01*
X78816858Y-92591954D01*
X78688656Y-92472196D01*
X78579020Y-92637866D01*
X78541176Y-92698188D01*
X78497351Y-92796707D01*
X78482266Y-92906871D01*
X78488273Y-93064654D01*
X78499691Y-93170384D01*
X78548694Y-93341197D01*
X78641286Y-93450153D01*
X78789300Y-93507796D01*
X79004567Y-93524667D01*
X79120515Y-93520608D01*
X79296901Y-93496391D01*
X79485238Y-93445888D01*
X79700200Y-93364004D01*
X79956459Y-93245644D01*
X80268690Y-93085713D01*
X80293340Y-93072747D01*
X80507966Y-92964606D01*
X80717033Y-92866690D01*
X80897731Y-92789313D01*
X81027252Y-92742785D01*
X81153961Y-92701886D01*
X81330438Y-92615801D01*
X81454797Y-92500960D01*
X81547990Y-92341206D01*
X81592446Y-92253694D01*
X81647025Y-92190618D01*
X81686101Y-92210176D01*
X81709183Y-92311917D01*
X81715780Y-92495392D01*
X81707583Y-92671680D01*
X81678418Y-92821623D01*
X81621958Y-92946362D01*
X81568540Y-93050772D01*
X81565575Y-93095275D01*
X81612905Y-93073770D01*
X81707554Y-92984917D01*
X81750669Y-92936040D01*
X81869227Y-92726666D01*
X81908667Y-92487243D01*
X81914831Y-92393393D01*
X81940908Y-92330315D01*
X81981696Y-92347877D01*
X82030956Y-92448079D01*
X82040966Y-92473654D01*
X82085424Y-92551317D01*
X82123312Y-92570326D01*
X82137566Y-92556242D01*
X82160767Y-92472628D01*
X82157053Y-92350204D01*
X82129236Y-92219023D01*
X82080132Y-92109141D01*
X82052831Y-92064873D01*
X82019025Y-91975134D01*
X82049268Y-91939366D01*
X82142999Y-91958903D01*
X82213714Y-91979870D01*
X82247334Y-91976350D01*
X82230894Y-91920865D01*
X82180752Y-91827122D01*
X82118958Y-91738059D01*
X82068308Y-91690119D01*
X82065140Y-91688731D01*
X82052538Y-91652324D01*
X82115250Y-91586714D01*
X82216000Y-91505172D01*
X82119769Y-91437770D01*
X82023539Y-91370367D01*
X82119018Y-91073425D01*
X82164037Y-90909460D01*
X82183300Y-90722805D01*
X82148686Y-90575548D01*
X82058596Y-90451215D01*
X82046192Y-90435743D01*
X82006971Y-90337628D01*
X81989114Y-90209060D01*
X81987968Y-90180996D01*
X81977307Y-90073947D01*
X81959845Y-89969302D01*
X81940204Y-89887423D01*
X81923010Y-89848674D01*
X81912887Y-89873417D01*
X81908466Y-89892591D01*
X81866334Y-89926333D01*
X81847319Y-89899752D01*
X81830461Y-89808499D01*
X81824000Y-89673807D01*
X81825284Y-89586561D01*
X81839541Y-89462838D01*
X81879046Y-89369689D01*
X81955386Y-89271640D01*
X82013774Y-89197858D01*
X82041406Y-89135090D01*
X82007327Y-89124532D01*
X81913577Y-89171092D01*
X81889128Y-89183870D01*
X81830337Y-89188366D01*
X81762708Y-89148045D01*
X81674340Y-89053846D01*
X81553335Y-88896703D01*
X81515776Y-88848447D01*
X81432656Y-88757673D01*
X81370795Y-88710635D01*
X81301256Y-88667987D01*
X81214288Y-88593106D01*
X81186752Y-88571151D01*
X81076954Y-88510163D01*
X80920706Y-88442152D01*
X80742265Y-88378165D01*
X80609206Y-88337071D01*
X80445834Y-88295498D01*
X80289676Y-88271336D01*
X80110148Y-88260349D01*
X79876667Y-88258302D01*
X79715726Y-88261537D01*
X79493557Y-88273543D01*
X79297572Y-88292195D01*
X79157000Y-88315185D01*
X78994094Y-88363282D01*
X78768985Y-88454277D01*
X78561901Y-88562419D01*
X78405584Y-88672154D01*
X78343439Y-88756611D01*
X78314118Y-88900909D01*
X78238802Y-88900909D01*
X78235238Y-88868327D01*
X78245089Y-88770356D01*
X78273896Y-88690789D01*
X78338894Y-88622719D01*
X78458500Y-88538976D01*
X78658412Y-88423253D01*
X78895530Y-88327068D01*
X79162412Y-88262995D01*
X79476566Y-88226974D01*
X79855500Y-88214945D01*
X80111822Y-88216260D01*
G37*
G36*
X83573000Y-85459348D02*
G01*
X76927000Y-85459348D01*
X76927000Y-80713348D01*
X83573000Y-80713348D01*
X83573000Y-85459348D01*
G37*
M02*
