G04 #@! TF.GenerationSoftware,KiCad,Pcbnew,9.0.1*
G04 #@! TF.CreationDate,2025-10-04T13:41:08+13:00*
G04 #@! TF.ProjectId,RGB-to-component-covers,5247422d-746f-42d6-936f-6d706f6e656e,rev?*
G04 #@! TF.SameCoordinates,Original*
G04 #@! TF.FileFunction,Copper,L2,Bot*
G04 #@! TF.FilePolarity,Positive*
%FSLAX46Y46*%
G04 Gerber Fmt 4.6, Leading zero omitted, Abs format (unit mm)*
G04 Created by KiCad (PCBNEW 9.0.1) date 2025-10-04 13:41:08*
%MOMM*%
%LPD*%
G01*
G04 APERTURE LIST*
G04 #@! TA.AperFunction,ComponentPad*
%ADD10C,4.700000*%
G04 #@! TD*
G04 #@! TA.AperFunction,ViaPad*
%ADD11C,0.800000*%
G04 #@! TD*
G04 #@! TA.AperFunction,Conductor*
%ADD12C,0.250000*%
G04 #@! TD*
G04 APERTURE END LIST*
D10*
X102200000Y-109000000D03*
X78800000Y-109000000D03*
X102150000Y-41000000D03*
X78800000Y-41000000D03*
D11*
X88500000Y-43300000D03*
X88500000Y-51900000D03*
D12*
X128000000Y-189600000D02*
X128000000Y-191700000D01*
G04 #@! TA.AperFunction,Conductor*
G36*
X100491298Y-38500927D02*
G01*
X100233137Y-38903532D01*
X102150000Y-40820395D01*
X102164143Y-40806253D01*
X102343748Y-40985858D01*
X102329605Y-41000000D01*
X104246468Y-42916863D01*
X104498001Y-42755573D01*
X104498000Y-74980253D01*
X104498000Y-74980254D01*
X104498001Y-107212365D01*
X104296468Y-107083137D01*
X102379605Y-109000000D01*
X102393748Y-109014143D01*
X102214143Y-109193748D01*
X102200000Y-109179605D01*
X100283137Y-111096468D01*
X100541298Y-111499073D01*
X101010482Y-111748000D01*
X79992994Y-111748000D01*
X80458702Y-111499073D01*
X80716863Y-111096468D01*
X78800000Y-109179605D01*
X78785858Y-109193748D01*
X78606253Y-109014143D01*
X78620395Y-109000000D01*
X78979605Y-109000000D01*
X80896468Y-110916863D01*
X81299073Y-110658702D01*
X81574651Y-110139285D01*
X81743601Y-109576087D01*
X81797665Y-109009250D01*
X99200570Y-109009250D01*
X99260008Y-109594233D01*
X99432429Y-110156379D01*
X99700927Y-110658702D01*
X100103532Y-110916863D01*
X102020395Y-109000000D01*
X100103532Y-107083137D01*
X99700927Y-107341298D01*
X99425349Y-107860715D01*
X99256399Y-108423913D01*
X99200570Y-109009250D01*
X81797665Y-109009250D01*
X81799430Y-108990750D01*
X81739992Y-108405767D01*
X81567571Y-107843621D01*
X81299073Y-107341298D01*
X80896468Y-107083137D01*
X78979605Y-109000000D01*
X78620395Y-109000000D01*
X76703532Y-107083137D01*
X76402000Y-107276487D01*
X76402000Y-106903532D01*
X76883137Y-106903532D01*
X78800000Y-108820395D01*
X80716863Y-106903532D01*
X80458702Y-106500927D01*
X79939285Y-106225349D01*
X79376087Y-106056399D01*
X78790750Y-106000570D01*
X78205767Y-106060008D01*
X77643621Y-106232429D01*
X77141298Y-106500927D01*
X76883137Y-106903532D01*
X76402000Y-106903532D01*
X76402000Y-56600000D01*
X84170935Y-56600000D01*
X84173001Y-56620977D01*
X84173000Y-105679033D01*
X84170935Y-105700000D01*
X84173000Y-105720967D01*
X84173000Y-105720977D01*
X84179178Y-105783706D01*
X84203595Y-105864195D01*
X84203596Y-105864196D01*
X84243245Y-105938376D01*
X84283232Y-105987100D01*
X84296605Y-106003395D01*
X84312900Y-106016768D01*
X84333232Y-106037100D01*
X84346605Y-106053395D01*
X84362900Y-106066768D01*
X84411624Y-106106756D01*
X84448714Y-106126580D01*
X84485804Y-106146405D01*
X84566293Y-106170822D01*
X84629022Y-106177000D01*
X84629033Y-106177000D01*
X84650000Y-106179065D01*
X84670967Y-106177000D01*
X101224337Y-106177000D01*
X101043621Y-106232429D01*
X100541298Y-106500927D01*
X100283137Y-106903532D01*
X102200000Y-108820395D01*
X104116863Y-106903532D01*
X103858702Y-106500927D01*
X103339285Y-106225349D01*
X102776087Y-106056399D01*
X102190750Y-106000570D01*
X101605767Y-106060008D01*
X101509274Y-106089604D01*
X101553395Y-106053395D01*
X101566768Y-106037100D01*
X101587100Y-106016768D01*
X101603395Y-106003395D01*
X101618027Y-105985566D01*
X101656756Y-105938376D01*
X101676580Y-105901286D01*
X101696405Y-105864196D01*
X101720822Y-105783707D01*
X101727000Y-105720978D01*
X101727000Y-105720967D01*
X101729065Y-105700000D01*
X101727000Y-105679033D01*
X101727000Y-56570967D01*
X101729065Y-56550000D01*
X101727000Y-56529033D01*
X101727000Y-56529022D01*
X101720822Y-56466293D01*
X101696405Y-56385804D01*
X101676580Y-56348714D01*
X101656756Y-56311624D01*
X101616768Y-56262900D01*
X101603395Y-56246605D01*
X101587101Y-56233233D01*
X101566768Y-56212900D01*
X101553395Y-56196605D01*
X101488376Y-56143245D01*
X101414196Y-56103595D01*
X101333707Y-56079178D01*
X101270978Y-56073000D01*
X101270967Y-56073000D01*
X101250000Y-56070935D01*
X101229033Y-56073000D01*
X84720964Y-56073000D01*
X84699999Y-56070935D01*
X84679034Y-56073000D01*
X84679022Y-56073000D01*
X84616293Y-56079178D01*
X84535804Y-56103595D01*
X84487942Y-56129178D01*
X84461624Y-56143245D01*
X84412899Y-56183232D01*
X84412895Y-56183236D01*
X84396605Y-56196605D01*
X84383235Y-56212896D01*
X84312894Y-56283237D01*
X84296606Y-56296605D01*
X84283237Y-56312895D01*
X84283232Y-56312900D01*
X84243245Y-56361624D01*
X84214025Y-56416293D01*
X84203596Y-56435804D01*
X84184122Y-56500001D01*
X84179179Y-56516294D01*
X84170935Y-56600000D01*
X76402000Y-56600000D01*
X76402000Y-43096468D01*
X76883137Y-43096468D01*
X77141298Y-43499073D01*
X77660715Y-43774651D01*
X78223913Y-43943601D01*
X78809250Y-43999430D01*
X79394233Y-43939992D01*
X79956379Y-43767571D01*
X80458702Y-43499073D01*
X80716863Y-43096468D01*
X80620395Y-43000000D01*
X84170935Y-43000000D01*
X84173001Y-43020977D01*
X84173000Y-52079033D01*
X84170935Y-52100000D01*
X84173000Y-52120967D01*
X84173000Y-52120977D01*
X84179178Y-52183706D01*
X84203595Y-52264195D01*
X84222052Y-52298726D01*
X84243245Y-52338376D01*
X84283232Y-52387100D01*
X84296605Y-52403395D01*
X84312899Y-52416767D01*
X84383235Y-52487104D01*
X84396605Y-52503395D01*
X84412895Y-52516764D01*
X84412899Y-52516768D01*
X84461624Y-52556755D01*
X84535804Y-52596405D01*
X84616293Y-52620822D01*
X84679022Y-52627000D01*
X84679034Y-52627000D01*
X84699999Y-52629065D01*
X84720964Y-52627000D01*
X87779033Y-52627000D01*
X87800000Y-52629065D01*
X87820967Y-52627000D01*
X87820978Y-52627000D01*
X87883707Y-52620822D01*
X87964196Y-52596405D01*
X88038376Y-52556755D01*
X88103395Y-52503395D01*
X88116767Y-52487101D01*
X88187104Y-52416765D01*
X88203395Y-52403395D01*
X88216764Y-52387105D01*
X88216768Y-52387101D01*
X88256755Y-52338376D01*
X88256756Y-52338375D01*
X88296405Y-52264196D01*
X88320822Y-52183707D01*
X88327000Y-52120978D01*
X88327000Y-52120966D01*
X88329065Y-52100001D01*
X88327000Y-52079036D01*
X88327000Y-43096468D01*
X100233137Y-43096468D01*
X100491298Y-43499073D01*
X101010715Y-43774651D01*
X101573913Y-43943601D01*
X102159250Y-43999430D01*
X102744233Y-43939992D01*
X103306379Y-43767571D01*
X103808702Y-43499073D01*
X104066863Y-43096468D01*
X102150000Y-41179605D01*
X100233137Y-43096468D01*
X88327000Y-43096468D01*
X88327000Y-43020964D01*
X88329065Y-42999999D01*
X88327000Y-42979034D01*
X88327000Y-42979022D01*
X88320822Y-42916293D01*
X88296405Y-42835804D01*
X88256755Y-42761624D01*
X88235565Y-42735804D01*
X88216768Y-42712899D01*
X88216764Y-42712895D01*
X88203395Y-42696605D01*
X88187105Y-42683236D01*
X88116767Y-42612899D01*
X88103395Y-42596605D01*
X88038376Y-42543245D01*
X87964196Y-42503595D01*
X87883707Y-42479178D01*
X87820978Y-42473000D01*
X87820967Y-42473000D01*
X87800000Y-42470935D01*
X87779033Y-42473000D01*
X84720964Y-42473000D01*
X84699999Y-42470935D01*
X84679034Y-42473000D01*
X84679022Y-42473000D01*
X84616293Y-42479178D01*
X84535804Y-42503595D01*
X84461624Y-42543245D01*
X84412899Y-42583232D01*
X84412895Y-42583236D01*
X84396605Y-42596605D01*
X84383235Y-42612896D01*
X84312894Y-42683237D01*
X84296606Y-42696605D01*
X84283237Y-42712895D01*
X84283232Y-42712900D01*
X84243245Y-42761624D01*
X84214025Y-42816293D01*
X84203596Y-42835804D01*
X84184122Y-42900001D01*
X84179179Y-42916294D01*
X84170935Y-43000000D01*
X80620395Y-43000000D01*
X78800000Y-41179605D01*
X76883137Y-43096468D01*
X76402000Y-43096468D01*
X76402000Y-42723513D01*
X76703532Y-42916863D01*
X78620395Y-41000000D01*
X78979605Y-41000000D01*
X80896468Y-42916863D01*
X81299073Y-42658702D01*
X81574651Y-42139285D01*
X81743601Y-41576087D01*
X81797665Y-41009250D01*
X99150570Y-41009250D01*
X99210008Y-41594233D01*
X99382429Y-42156379D01*
X99650927Y-42658702D01*
X100053532Y-42916863D01*
X101970395Y-41000000D01*
X100053532Y-39083137D01*
X99650927Y-39341298D01*
X99375349Y-39860715D01*
X99206399Y-40423913D01*
X99150570Y-41009250D01*
X81797665Y-41009250D01*
X81799430Y-40990750D01*
X81739992Y-40405767D01*
X81567571Y-39843621D01*
X81299073Y-39341298D01*
X80896468Y-39083137D01*
X78979605Y-41000000D01*
X78620395Y-41000000D01*
X78606253Y-40985858D01*
X78785858Y-40806253D01*
X78800000Y-40820395D01*
X80716863Y-38903532D01*
X80458702Y-38500927D01*
X79989518Y-38252000D01*
X100957006Y-38252000D01*
X100491298Y-38500927D01*
G37*
G04 #@! TD.AperFunction*
M02*
