G04 #@! TF.GenerationSoftware,KiCad,Pcbnew,9.0.1*
G04 #@! TF.CreationDate,2025-10-04T13:41:08+13:00*
G04 #@! TF.ProjectId,RGB-to-component-covers,5247422d-746f-42d6-936f-6d706f6e656e,rev?*
G04 #@! TF.SameCoordinates,Original*
G04 #@! TF.FileFunction,Soldermask,Top*
G04 #@! TF.FilePolarity,Negative*
%FSLAX46Y46*%
G04 Gerber Fmt 4.6, Leading zero omitted, Abs format (unit mm)*
G04 Created by KiCad (PCBNEW 9.0.1) date 2025-10-04 13:41:08*
%MOMM*%
%LPD*%
G01*
G04 APERTURE LIST*
G04 APERTURE END LIST*
G36*
X79202182Y-106632924D02*
G01*
X79464682Y-106692838D01*
X79718823Y-106781765D01*
X79961409Y-106898589D01*
X80189390Y-107041838D01*
X80399898Y-107209713D01*
X80590287Y-107400102D01*
X80758162Y-107610610D01*
X80901411Y-107838591D01*
X81018235Y-108081177D01*
X81107162Y-108335318D01*
X81167076Y-108597818D01*
X81197223Y-108865375D01*
X81197223Y-109134625D01*
X81167076Y-109402182D01*
X81107162Y-109664682D01*
X81018235Y-109918823D01*
X80901411Y-110161409D01*
X80758162Y-110389390D01*
X80590287Y-110599898D01*
X80399898Y-110790287D01*
X80189390Y-110958162D01*
X79961409Y-111101411D01*
X79718823Y-111218235D01*
X79464682Y-111307162D01*
X79202182Y-111367076D01*
X78934625Y-111397223D01*
X78665375Y-111397223D01*
X78397818Y-111367076D01*
X78135318Y-111307162D01*
X77881177Y-111218235D01*
X77638591Y-111101411D01*
X77410610Y-110958162D01*
X77200102Y-110790287D01*
X77009713Y-110599898D01*
X76841838Y-110389390D01*
X76698589Y-110161409D01*
X76581765Y-109918823D01*
X76492838Y-109664682D01*
X76432924Y-109402182D01*
X76402777Y-109134625D01*
X76402777Y-108865375D01*
X76432924Y-108597818D01*
X76492838Y-108335318D01*
X76581765Y-108081177D01*
X76698589Y-107838591D01*
X76841838Y-107610610D01*
X77009713Y-107400102D01*
X77200102Y-107209713D01*
X77410610Y-107041838D01*
X77638591Y-106898589D01*
X77881177Y-106781765D01*
X78135318Y-106692838D01*
X78397818Y-106632924D01*
X78665375Y-106602777D01*
X78934625Y-106602777D01*
X79202182Y-106632924D01*
G37*
G36*
X102602182Y-106632924D02*
G01*
X102864682Y-106692838D01*
X103118823Y-106781765D01*
X103361409Y-106898589D01*
X103589390Y-107041838D01*
X103799898Y-107209713D01*
X103990287Y-107400102D01*
X104158162Y-107610610D01*
X104301411Y-107838591D01*
X104418235Y-108081177D01*
X104507162Y-108335318D01*
X104567076Y-108597818D01*
X104597223Y-108865375D01*
X104597223Y-109134625D01*
X104567076Y-109402182D01*
X104507162Y-109664682D01*
X104418235Y-109918823D01*
X104301411Y-110161409D01*
X104158162Y-110389390D01*
X103990287Y-110599898D01*
X103799898Y-110790287D01*
X103589390Y-110958162D01*
X103361409Y-111101411D01*
X103118823Y-111218235D01*
X102864682Y-111307162D01*
X102602182Y-111367076D01*
X102334625Y-111397223D01*
X102065375Y-111397223D01*
X101797818Y-111367076D01*
X101535318Y-111307162D01*
X101281177Y-111218235D01*
X101038591Y-111101411D01*
X100810610Y-110958162D01*
X100600102Y-110790287D01*
X100409713Y-110599898D01*
X100241838Y-110389390D01*
X100098589Y-110161409D01*
X99981765Y-109918823D01*
X99892838Y-109664682D01*
X99832924Y-109402182D01*
X99802777Y-109134625D01*
X99802777Y-108865375D01*
X99832924Y-108597818D01*
X99892838Y-108335318D01*
X99981765Y-108081177D01*
X100098589Y-107838591D01*
X100241838Y-107610610D01*
X100409713Y-107400102D01*
X100600102Y-107209713D01*
X100810610Y-107041838D01*
X101038591Y-106898589D01*
X101281177Y-106781765D01*
X101535318Y-106692838D01*
X101797818Y-106632924D01*
X102065375Y-106602777D01*
X102334625Y-106602777D01*
X102602182Y-106632924D01*
G37*
G36*
X79202182Y-38632924D02*
G01*
X79464682Y-38692838D01*
X79718823Y-38781765D01*
X79961409Y-38898589D01*
X80189390Y-39041838D01*
X80399898Y-39209713D01*
X80590287Y-39400102D01*
X80758162Y-39610610D01*
X80901411Y-39838591D01*
X81018235Y-40081177D01*
X81107162Y-40335318D01*
X81167076Y-40597818D01*
X81197223Y-40865375D01*
X81197223Y-41134625D01*
X81167076Y-41402182D01*
X81107162Y-41664682D01*
X81018235Y-41918823D01*
X80901411Y-42161409D01*
X80758162Y-42389390D01*
X80590287Y-42599898D01*
X80399898Y-42790287D01*
X80189390Y-42958162D01*
X79961409Y-43101411D01*
X79718823Y-43218235D01*
X79464682Y-43307162D01*
X79202182Y-43367076D01*
X78934625Y-43397223D01*
X78665375Y-43397223D01*
X78397818Y-43367076D01*
X78135318Y-43307162D01*
X77881177Y-43218235D01*
X77638591Y-43101411D01*
X77410610Y-42958162D01*
X77200102Y-42790287D01*
X77009713Y-42599898D01*
X76841838Y-42389390D01*
X76698589Y-42161409D01*
X76581765Y-41918823D01*
X76492838Y-41664682D01*
X76432924Y-41402182D01*
X76402777Y-41134625D01*
X76402777Y-40865375D01*
X76432924Y-40597818D01*
X76492838Y-40335318D01*
X76581765Y-40081177D01*
X76698589Y-39838591D01*
X76841838Y-39610610D01*
X77009713Y-39400102D01*
X77200102Y-39209713D01*
X77410610Y-39041838D01*
X77638591Y-38898589D01*
X77881177Y-38781765D01*
X78135318Y-38692838D01*
X78397818Y-38632924D01*
X78665375Y-38602777D01*
X78934625Y-38602777D01*
X79202182Y-38632924D01*
G37*
G36*
X102552182Y-38632924D02*
G01*
X102814682Y-38692838D01*
X103068823Y-38781765D01*
X103311409Y-38898589D01*
X103539390Y-39041838D01*
X103749898Y-39209713D01*
X103940287Y-39400102D01*
X104108162Y-39610610D01*
X104251411Y-39838591D01*
X104368235Y-40081177D01*
X104457162Y-40335318D01*
X104517076Y-40597818D01*
X104547223Y-40865375D01*
X104547223Y-41134625D01*
X104517076Y-41402182D01*
X104457162Y-41664682D01*
X104368235Y-41918823D01*
X104251411Y-42161409D01*
X104108162Y-42389390D01*
X103940287Y-42599898D01*
X103749898Y-42790287D01*
X103539390Y-42958162D01*
X103311409Y-43101411D01*
X103068823Y-43218235D01*
X102814682Y-43307162D01*
X102552182Y-43367076D01*
X102284625Y-43397223D01*
X102015375Y-43397223D01*
X101747818Y-43367076D01*
X101485318Y-43307162D01*
X101231177Y-43218235D01*
X100988591Y-43101411D01*
X100760610Y-42958162D01*
X100550102Y-42790287D01*
X100359713Y-42599898D01*
X100191838Y-42389390D01*
X100048589Y-42161409D01*
X99931765Y-41918823D01*
X99842838Y-41664682D01*
X99782924Y-41402182D01*
X99752777Y-41134625D01*
X99752777Y-40865375D01*
X99782924Y-40597818D01*
X99842838Y-40335318D01*
X99931765Y-40081177D01*
X100048589Y-39838591D01*
X100191838Y-39610610D01*
X100359713Y-39400102D01*
X100550102Y-39209713D01*
X100760610Y-39041838D01*
X100988591Y-38898589D01*
X101231177Y-38781765D01*
X101485318Y-38692838D01*
X101747818Y-38632924D01*
X102015375Y-38602777D01*
X102284625Y-38602777D01*
X102552182Y-38632924D01*
G37*
M02*
