G04 #@! TF.GenerationSoftware,KiCad,Pcbnew,9.0.1*
G04 #@! TF.CreationDate,2025-10-04T13:41:34+13:00*
G04 #@! TF.ProjectId,RGB-to-component-covers,5247422d-746f-42d6-936f-6d706f6e656e,rev?*
G04 #@! TF.SameCoordinates,Original*
G04 #@! TF.FileFunction,Legend,Bot*
G04 #@! TF.FilePolarity,Positive*
%FSLAX46Y46*%
G04 Gerber Fmt 4.6, Leading zero omitted, Abs format (unit mm)*
G04 Created by KiCad (PCBNEW 9.0.1) date 2025-10-04 13:41:34*
%MOMM*%
%LPD*%
G01*
G04 APERTURE LIST*
%ADD10C,0.300000*%
G04 APERTURE END LIST*
D10*
X127090361Y-124542856D02*
X129090361Y-124542856D01*
X129090361Y-124542856D02*
X129090361Y-123780951D01*
X129090361Y-123780951D02*
X128995123Y-123590475D01*
X128995123Y-123590475D02*
X128899885Y-123495237D01*
X128899885Y-123495237D02*
X128709409Y-123399999D01*
X128709409Y-123399999D02*
X128423695Y-123399999D01*
X128423695Y-123399999D02*
X128233219Y-123495237D01*
X128233219Y-123495237D02*
X128137980Y-123590475D01*
X128137980Y-123590475D02*
X128042742Y-123780951D01*
X128042742Y-123780951D02*
X128042742Y-124542856D01*
X127090361Y-122542856D02*
X128423695Y-122542856D01*
X128042742Y-122542856D02*
X128233219Y-122447618D01*
X128233219Y-122447618D02*
X128328457Y-122352380D01*
X128328457Y-122352380D02*
X128423695Y-122161904D01*
X128423695Y-122161904D02*
X128423695Y-121971427D01*
X127090361Y-179280952D02*
X127090361Y-180233333D01*
X127090361Y-180233333D02*
X129090361Y-180233333D01*
X127190361Y-139628571D02*
X129190361Y-139628571D01*
X129190361Y-139628571D02*
X129190361Y-138866666D01*
X129190361Y-138866666D02*
X129095123Y-138676190D01*
X129095123Y-138676190D02*
X128999885Y-138580952D01*
X128999885Y-138580952D02*
X128809409Y-138485714D01*
X128809409Y-138485714D02*
X128523695Y-138485714D01*
X128523695Y-138485714D02*
X128333219Y-138580952D01*
X128333219Y-138580952D02*
X128237980Y-138676190D01*
X128237980Y-138676190D02*
X128142742Y-138866666D01*
X128142742Y-138866666D02*
X128142742Y-139628571D01*
X127190361Y-137628571D02*
X129190361Y-137628571D01*
X128428457Y-137628571D02*
X128523695Y-137438095D01*
X128523695Y-137438095D02*
X128523695Y-137057142D01*
X128523695Y-137057142D02*
X128428457Y-136866666D01*
X128428457Y-136866666D02*
X128333219Y-136771428D01*
X128333219Y-136771428D02*
X128142742Y-136676190D01*
X128142742Y-136676190D02*
X127571314Y-136676190D01*
X127571314Y-136676190D02*
X127380838Y-136771428D01*
X127380838Y-136771428D02*
X127285600Y-136866666D01*
X127285600Y-136866666D02*
X127190361Y-137057142D01*
X127190361Y-137057142D02*
X127190361Y-137438095D01*
X127190361Y-137438095D02*
X127285600Y-137628571D01*
X128042742Y-153300000D02*
X127090361Y-153300000D01*
X129090361Y-153966666D02*
X128042742Y-153300000D01*
X128042742Y-153300000D02*
X129090361Y-152633333D01*
X127090361Y-166180952D02*
X128042742Y-166847619D01*
X127090361Y-167323809D02*
X129090361Y-167323809D01*
X129090361Y-167323809D02*
X129090361Y-166561904D01*
X129090361Y-166561904D02*
X128995123Y-166371428D01*
X128995123Y-166371428D02*
X128899885Y-166276190D01*
X128899885Y-166276190D02*
X128709409Y-166180952D01*
X128709409Y-166180952D02*
X128423695Y-166180952D01*
X128423695Y-166180952D02*
X128233219Y-166276190D01*
X128233219Y-166276190D02*
X128137980Y-166371428D01*
X128137980Y-166371428D02*
X128042742Y-166561904D01*
X128042742Y-166561904D02*
X128042742Y-167323809D01*
M02*
