G04 #@! TF.GenerationSoftware,KiCad,Pcbnew,9.0.1*
G04 #@! TF.CreationDate,2025-10-04T13:40:08+13:00*
G04 #@! TF.ProjectId,RGB-to-component-covers,5247422d-746f-42d6-936f-6d706f6e656e,rev?*
G04 #@! TF.SameCoordinates,Original*
G04 #@! TF.FileFunction,Legend,Bot*
G04 #@! TF.FilePolarity,Positive*
%FSLAX46Y46*%
G04 Gerber Fmt 4.6, Leading zero omitted, Abs format (unit mm)*
G04 Created by KiCad (PCBNEW 9.0.1) date 2025-10-04 13:40:08*
%MOMM*%
%LPD*%
G01*
G04 APERTURE LIST*
%ADD10C,0.150000*%
%ADD11C,0.010000*%
G04 APERTURE END LIST*
D10*
X87245180Y-179919048D02*
X86530895Y-179919048D01*
X86530895Y-179919048D02*
X86388038Y-179966667D01*
X86388038Y-179966667D02*
X86292800Y-180061905D01*
X86292800Y-180061905D02*
X86245180Y-180204762D01*
X86245180Y-180204762D02*
X86245180Y-180300000D01*
X86245180Y-178966667D02*
X86245180Y-179442857D01*
X86245180Y-179442857D02*
X87245180Y-179442857D01*
X86340419Y-178061905D02*
X86292800Y-178109524D01*
X86292800Y-178109524D02*
X86245180Y-178252381D01*
X86245180Y-178252381D02*
X86245180Y-178347619D01*
X86245180Y-178347619D02*
X86292800Y-178490476D01*
X86292800Y-178490476D02*
X86388038Y-178585714D01*
X86388038Y-178585714D02*
X86483276Y-178633333D01*
X86483276Y-178633333D02*
X86673752Y-178680952D01*
X86673752Y-178680952D02*
X86816609Y-178680952D01*
X86816609Y-178680952D02*
X87007085Y-178633333D01*
X87007085Y-178633333D02*
X87102323Y-178585714D01*
X87102323Y-178585714D02*
X87197561Y-178490476D01*
X87197561Y-178490476D02*
X87245180Y-178347619D01*
X87245180Y-178347619D02*
X87245180Y-178252381D01*
X87245180Y-178252381D02*
X87197561Y-178109524D01*
X87197561Y-178109524D02*
X87149942Y-178061905D01*
X87245180Y-177347619D02*
X86530895Y-177347619D01*
X86530895Y-177347619D02*
X86388038Y-177395238D01*
X86388038Y-177395238D02*
X86292800Y-177490476D01*
X86292800Y-177490476D02*
X86245180Y-177633333D01*
X86245180Y-177633333D02*
X86245180Y-177728571D01*
X86245180Y-176395238D02*
X86245180Y-176871428D01*
X86245180Y-176871428D02*
X87245180Y-176871428D01*
X86340419Y-175490476D02*
X86292800Y-175538095D01*
X86292800Y-175538095D02*
X86245180Y-175680952D01*
X86245180Y-175680952D02*
X86245180Y-175776190D01*
X86245180Y-175776190D02*
X86292800Y-175919047D01*
X86292800Y-175919047D02*
X86388038Y-176014285D01*
X86388038Y-176014285D02*
X86483276Y-176061904D01*
X86483276Y-176061904D02*
X86673752Y-176109523D01*
X86673752Y-176109523D02*
X86816609Y-176109523D01*
X86816609Y-176109523D02*
X87007085Y-176061904D01*
X87007085Y-176061904D02*
X87102323Y-176014285D01*
X87102323Y-176014285D02*
X87197561Y-175919047D01*
X87197561Y-175919047D02*
X87245180Y-175776190D01*
X87245180Y-175776190D02*
X87245180Y-175680952D01*
X87245180Y-175680952D02*
X87197561Y-175538095D01*
X87197561Y-175538095D02*
X87149942Y-175490476D01*
X87245180Y-174776190D02*
X86530895Y-174776190D01*
X86530895Y-174776190D02*
X86388038Y-174823809D01*
X86388038Y-174823809D02*
X86292800Y-174919047D01*
X86292800Y-174919047D02*
X86245180Y-175061904D01*
X86245180Y-175061904D02*
X86245180Y-175157142D01*
X86245180Y-173823809D02*
X86245180Y-174299999D01*
X86245180Y-174299999D02*
X87245180Y-174299999D01*
X86340419Y-172919047D02*
X86292800Y-172966666D01*
X86292800Y-172966666D02*
X86245180Y-173109523D01*
X86245180Y-173109523D02*
X86245180Y-173204761D01*
X86245180Y-173204761D02*
X86292800Y-173347618D01*
X86292800Y-173347618D02*
X86388038Y-173442856D01*
X86388038Y-173442856D02*
X86483276Y-173490475D01*
X86483276Y-173490475D02*
X86673752Y-173538094D01*
X86673752Y-173538094D02*
X86816609Y-173538094D01*
X86816609Y-173538094D02*
X87007085Y-173490475D01*
X87007085Y-173490475D02*
X87102323Y-173442856D01*
X87102323Y-173442856D02*
X87197561Y-173347618D01*
X87197561Y-173347618D02*
X87245180Y-173204761D01*
X87245180Y-173204761D02*
X87245180Y-173109523D01*
X87245180Y-173109523D02*
X87197561Y-172966666D01*
X87197561Y-172966666D02*
X87149942Y-172919047D01*
X87245180Y-172204761D02*
X86530895Y-172204761D01*
X86530895Y-172204761D02*
X86388038Y-172252380D01*
X86388038Y-172252380D02*
X86292800Y-172347618D01*
X86292800Y-172347618D02*
X86245180Y-172490475D01*
X86245180Y-172490475D02*
X86245180Y-172585713D01*
X86245180Y-171252380D02*
X86245180Y-171728570D01*
X86245180Y-171728570D02*
X87245180Y-171728570D01*
X86340419Y-170347618D02*
X86292800Y-170395237D01*
X86292800Y-170395237D02*
X86245180Y-170538094D01*
X86245180Y-170538094D02*
X86245180Y-170633332D01*
X86245180Y-170633332D02*
X86292800Y-170776189D01*
X86292800Y-170776189D02*
X86388038Y-170871427D01*
X86388038Y-170871427D02*
X86483276Y-170919046D01*
X86483276Y-170919046D02*
X86673752Y-170966665D01*
X86673752Y-170966665D02*
X86816609Y-170966665D01*
X86816609Y-170966665D02*
X87007085Y-170919046D01*
X87007085Y-170919046D02*
X87102323Y-170871427D01*
X87102323Y-170871427D02*
X87197561Y-170776189D01*
X87197561Y-170776189D02*
X87245180Y-170633332D01*
X87245180Y-170633332D02*
X87245180Y-170538094D01*
X87245180Y-170538094D02*
X87197561Y-170395237D01*
X87197561Y-170395237D02*
X87149942Y-170347618D01*
D11*
X90288978Y-175550918D02*
X90322667Y-175597196D01*
X90315538Y-175614547D01*
X90259167Y-175635000D01*
X90229583Y-175627794D01*
X90195667Y-175572829D01*
X90204553Y-175541529D01*
X90259167Y-175535025D01*
X90288978Y-175550918D01*
G36*
X90288978Y-175550918D02*
G01*
X90322667Y-175597196D01*
X90315538Y-175614547D01*
X90259167Y-175635000D01*
X90229583Y-175627794D01*
X90195667Y-175572829D01*
X90204553Y-175541529D01*
X90259167Y-175535025D01*
X90288978Y-175550918D01*
G37*
X90306945Y-175179166D02*
X90316127Y-175235033D01*
X90300741Y-175276020D01*
X90244541Y-175329451D01*
X90211390Y-175328834D01*
X90202208Y-175272967D01*
X90217594Y-175231980D01*
X90273793Y-175178549D01*
X90306945Y-175179166D01*
G36*
X90306945Y-175179166D02*
G01*
X90316127Y-175235033D01*
X90300741Y-175276020D01*
X90244541Y-175329451D01*
X90211390Y-175328834D01*
X90202208Y-175272967D01*
X90217594Y-175231980D01*
X90273793Y-175178549D01*
X90306945Y-175179166D01*
G37*
X90268852Y-174720407D02*
X90260000Y-174743684D01*
X90199293Y-174786393D01*
X90141676Y-174807658D01*
X90111000Y-174794352D01*
X90111217Y-174791209D01*
X90148258Y-174747234D01*
X90216429Y-174716313D01*
X90268852Y-174720407D01*
G36*
X90268852Y-174720407D02*
G01*
X90260000Y-174743684D01*
X90199293Y-174786393D01*
X90141676Y-174807658D01*
X90111000Y-174794352D01*
X90111217Y-174791209D01*
X90148258Y-174747234D01*
X90216429Y-174716313D01*
X90268852Y-174720407D01*
G37*
X90351997Y-176372513D02*
X90303993Y-176419513D01*
X90240146Y-176457081D01*
X90155826Y-176480167D01*
X90151717Y-176479996D01*
X90135182Y-176462260D01*
X90195667Y-176418167D01*
X90269073Y-176380762D01*
X90335869Y-176359540D01*
X90351997Y-176372513D01*
G36*
X90351997Y-176372513D02*
G01*
X90303993Y-176419513D01*
X90240146Y-176457081D01*
X90155826Y-176480167D01*
X90151717Y-176479996D01*
X90135182Y-176462260D01*
X90195667Y-176418167D01*
X90269073Y-176380762D01*
X90335869Y-176359540D01*
X90351997Y-176372513D01*
G37*
X90428314Y-174492301D02*
X90425389Y-174496413D01*
X90365165Y-174544800D01*
X90267066Y-174600079D01*
X90132167Y-174665222D01*
X90259167Y-174557655D01*
X90314899Y-174513137D01*
X90396403Y-174460911D01*
X90438562Y-174452284D01*
X90428314Y-174492301D01*
G36*
X90428314Y-174492301D02*
G01*
X90425389Y-174496413D01*
X90365165Y-174544800D01*
X90267066Y-174600079D01*
X90132167Y-174665222D01*
X90259167Y-174557655D01*
X90314899Y-174513137D01*
X90396403Y-174460911D01*
X90438562Y-174452284D01*
X90428314Y-174492301D01*
G37*
X90413045Y-173998848D02*
X90381217Y-174039674D01*
X90299799Y-174100806D01*
X90261474Y-174124508D01*
X90184107Y-174161643D01*
X90153334Y-174158591D01*
X90184913Y-174110571D01*
X90261024Y-174051127D01*
X90347019Y-174004016D01*
X90408214Y-173991916D01*
X90413045Y-173998848D01*
G36*
X90413045Y-173998848D02*
G01*
X90381217Y-174039674D01*
X90299799Y-174100806D01*
X90261474Y-174124508D01*
X90184107Y-174161643D01*
X90153334Y-174158591D01*
X90184913Y-174110571D01*
X90261024Y-174051127D01*
X90347019Y-174004016D01*
X90408214Y-173991916D01*
X90413045Y-173998848D01*
G37*
X90400174Y-174333341D02*
X90368547Y-174372994D01*
X90305837Y-174425881D01*
X90236569Y-174472164D01*
X90185268Y-174492000D01*
X90181091Y-174491469D01*
X90188819Y-174463882D01*
X90249552Y-174407333D01*
X90253382Y-174404339D01*
X90337714Y-174346985D01*
X90392844Y-174324075D01*
X90400174Y-174333341D01*
G36*
X90400174Y-174333341D02*
G01*
X90368547Y-174372994D01*
X90305837Y-174425881D01*
X90236569Y-174472164D01*
X90185268Y-174492000D01*
X90181091Y-174491469D01*
X90188819Y-174463882D01*
X90249552Y-174407333D01*
X90253382Y-174404339D01*
X90337714Y-174346985D01*
X90392844Y-174324075D01*
X90400174Y-174333341D01*
G37*
X90395261Y-176497816D02*
X90393862Y-176509078D01*
X90351932Y-176556407D01*
X90279890Y-176617685D01*
X90205039Y-176670723D01*
X90154680Y-176693333D01*
X90141539Y-176686852D01*
X90125112Y-176631515D01*
X90126436Y-176623662D01*
X90171276Y-176574093D01*
X90254293Y-176525080D01*
X90340589Y-176493897D01*
X90395261Y-176497816D01*
G36*
X90395261Y-176497816D02*
G01*
X90393862Y-176509078D01*
X90351932Y-176556407D01*
X90279890Y-176617685D01*
X90205039Y-176670723D01*
X90154680Y-176693333D01*
X90141539Y-176686852D01*
X90125112Y-176631515D01*
X90126436Y-176623662D01*
X90171276Y-176574093D01*
X90254293Y-176525080D01*
X90340589Y-176493897D01*
X90395261Y-176497816D01*
G37*
X90422442Y-174111287D02*
X90436562Y-174136436D01*
X90386400Y-174196021D01*
X90279054Y-174281245D01*
X90256537Y-174296740D01*
X90182998Y-174337772D01*
X90153334Y-174337481D01*
X90155509Y-174328397D01*
X90199177Y-174271186D01*
X90276784Y-174199038D01*
X90358981Y-174137221D01*
X90416417Y-174111000D01*
X90422442Y-174111287D01*
G36*
X90422442Y-174111287D02*
G01*
X90436562Y-174136436D01*
X90386400Y-174196021D01*
X90279054Y-174281245D01*
X90256537Y-174296740D01*
X90182998Y-174337772D01*
X90153334Y-174337481D01*
X90155509Y-174328397D01*
X90199177Y-174271186D01*
X90276784Y-174199038D01*
X90358981Y-174137221D01*
X90416417Y-174111000D01*
X90422442Y-174111287D01*
G37*
X90407334Y-176230811D02*
X90407092Y-176237597D01*
X90391337Y-176270000D01*
X90385176Y-176271257D01*
X90323303Y-176293282D01*
X90222004Y-176334068D01*
X90187899Y-176347511D01*
X90102916Y-176371834D01*
X90069098Y-176365818D01*
X90075243Y-176354739D01*
X90135252Y-176312621D01*
X90238431Y-176262561D01*
X90286719Y-176243922D01*
X90373112Y-176221604D01*
X90407334Y-176230811D01*
G36*
X90407334Y-176230811D02*
G01*
X90407092Y-176237597D01*
X90391337Y-176270000D01*
X90385176Y-176271257D01*
X90323303Y-176293282D01*
X90222004Y-176334068D01*
X90187899Y-176347511D01*
X90102916Y-176371834D01*
X90069098Y-176365818D01*
X90075243Y-176354739D01*
X90135252Y-176312621D01*
X90238431Y-176262561D01*
X90286719Y-176243922D01*
X90373112Y-176221604D01*
X90407334Y-176230811D01*
G37*
X90230474Y-176072785D02*
X90176993Y-176123180D01*
X90156566Y-176139370D01*
X90123592Y-176178490D01*
X90155929Y-176179299D01*
X90244409Y-176139570D01*
X90302252Y-176115806D01*
X90351394Y-176115282D01*
X90353039Y-176118281D01*
X90324719Y-176153337D01*
X90245253Y-176202750D01*
X90204913Y-176222515D01*
X90130540Y-176243718D01*
X90096494Y-176216455D01*
X90082228Y-176177984D01*
X90080544Y-176118455D01*
X90135630Y-176084029D01*
X90210045Y-176061235D01*
X90230474Y-176072785D01*
G36*
X90230474Y-176072785D02*
G01*
X90176993Y-176123180D01*
X90156566Y-176139370D01*
X90123592Y-176178490D01*
X90155929Y-176179299D01*
X90244409Y-176139570D01*
X90302252Y-176115806D01*
X90351394Y-176115282D01*
X90353039Y-176118281D01*
X90324719Y-176153337D01*
X90245253Y-176202750D01*
X90204913Y-176222515D01*
X90130540Y-176243718D01*
X90096494Y-176216455D01*
X90082228Y-176177984D01*
X90080544Y-176118455D01*
X90135630Y-176084029D01*
X90210045Y-176061235D01*
X90230474Y-176072785D01*
G37*
X91559033Y-174069205D02*
X91627971Y-174103050D01*
X91665797Y-174197241D01*
X91677334Y-174362555D01*
X91697393Y-174496217D01*
X91783167Y-174678473D01*
X91799942Y-174703909D01*
X91872686Y-174849579D01*
X91881559Y-174955675D01*
X91825683Y-175015239D01*
X91794096Y-175014647D01*
X91717662Y-174955392D01*
X91614017Y-174819250D01*
X91562955Y-174740730D01*
X91500291Y-174618658D01*
X91472170Y-174497115D01*
X91465667Y-174333815D01*
X91467291Y-174216671D01*
X91477353Y-174121943D01*
X91501635Y-174078860D01*
X91545805Y-174068667D01*
X91559033Y-174069205D01*
G36*
X91559033Y-174069205D02*
G01*
X91627971Y-174103050D01*
X91665797Y-174197241D01*
X91677334Y-174362555D01*
X91697393Y-174496217D01*
X91783167Y-174678473D01*
X91799942Y-174703909D01*
X91872686Y-174849579D01*
X91881559Y-174955675D01*
X91825683Y-175015239D01*
X91794096Y-175014647D01*
X91717662Y-174955392D01*
X91614017Y-174819250D01*
X91562955Y-174740730D01*
X91500291Y-174618658D01*
X91472170Y-174497115D01*
X91465667Y-174333815D01*
X91467291Y-174216671D01*
X91477353Y-174121943D01*
X91501635Y-174078860D01*
X91545805Y-174068667D01*
X91559033Y-174069205D01*
G37*
X91976996Y-175282729D02*
X91980330Y-175286369D01*
X91995363Y-175341134D01*
X91975817Y-175440430D01*
X91918939Y-175599278D01*
X91868594Y-175737956D01*
X91815586Y-175910659D01*
X91783724Y-176047750D01*
X91771471Y-176110974D01*
X91735258Y-176200947D01*
X91680668Y-176227667D01*
X91641129Y-176223854D01*
X91576393Y-176197281D01*
X91568582Y-176184979D01*
X91561678Y-176099588D01*
X91581516Y-175964328D01*
X91621646Y-175800349D01*
X91675619Y-175628801D01*
X91736983Y-175470832D01*
X91799289Y-175347591D01*
X91856085Y-175280228D01*
X91910584Y-175257113D01*
X91976996Y-175282729D01*
G36*
X91976996Y-175282729D02*
G01*
X91980330Y-175286369D01*
X91995363Y-175341134D01*
X91975817Y-175440430D01*
X91918939Y-175599278D01*
X91868594Y-175737956D01*
X91815586Y-175910659D01*
X91783724Y-176047750D01*
X91771471Y-176110974D01*
X91735258Y-176200947D01*
X91680668Y-176227667D01*
X91641129Y-176223854D01*
X91576393Y-176197281D01*
X91568582Y-176184979D01*
X91561678Y-176099588D01*
X91581516Y-175964328D01*
X91621646Y-175800349D01*
X91675619Y-175628801D01*
X91736983Y-175470832D01*
X91799289Y-175347591D01*
X91856085Y-175280228D01*
X91910584Y-175257113D01*
X91976996Y-175282729D01*
G37*
X91212765Y-174325487D02*
X91279067Y-174348385D01*
X91296334Y-174404050D01*
X91261532Y-174476248D01*
X91148298Y-174534290D01*
X91139736Y-174537204D01*
X91023257Y-174595667D01*
X90939094Y-174669902D01*
X90901959Y-174742531D01*
X90926569Y-174796173D01*
X90990219Y-174818177D01*
X91096579Y-174830019D01*
X91147824Y-174836365D01*
X91224323Y-174879404D01*
X91248974Y-174943651D01*
X91207253Y-175006010D01*
X91114067Y-175030948D01*
X90980148Y-175023863D01*
X90844032Y-174989465D01*
X90742715Y-174933527D01*
X90705817Y-174893781D01*
X90663639Y-174776084D01*
X90703539Y-174640798D01*
X90825687Y-174487020D01*
X90929544Y-174393466D01*
X91031343Y-174337723D01*
X91143187Y-174322667D01*
X91212765Y-174325487D01*
G36*
X91212765Y-174325487D02*
G01*
X91279067Y-174348385D01*
X91296334Y-174404050D01*
X91261532Y-174476248D01*
X91148298Y-174534290D01*
X91139736Y-174537204D01*
X91023257Y-174595667D01*
X90939094Y-174669902D01*
X90901959Y-174742531D01*
X90926569Y-174796173D01*
X90990219Y-174818177D01*
X91096579Y-174830019D01*
X91147824Y-174836365D01*
X91224323Y-174879404D01*
X91248974Y-174943651D01*
X91207253Y-175006010D01*
X91114067Y-175030948D01*
X90980148Y-175023863D01*
X90844032Y-174989465D01*
X90742715Y-174933527D01*
X90705817Y-174893781D01*
X90663639Y-174776084D01*
X90703539Y-174640798D01*
X90825687Y-174487020D01*
X90929544Y-174393466D01*
X91031343Y-174337723D01*
X91143187Y-174322667D01*
X91212765Y-174325487D01*
G37*
X91249613Y-175469171D02*
X91310455Y-175526072D01*
X91313987Y-175536737D01*
X91305439Y-175596245D01*
X91236782Y-175652991D01*
X91096654Y-175717126D01*
X91090229Y-175719713D01*
X90984402Y-175772932D01*
X90915276Y-175825570D01*
X90897613Y-175873326D01*
X90930785Y-175941257D01*
X91014645Y-175994481D01*
X91130024Y-176016000D01*
X91217204Y-176021147D01*
X91254000Y-176033704D01*
X91256797Y-176049188D01*
X91278451Y-176115125D01*
X91276998Y-176164268D01*
X91212878Y-176227019D01*
X91146945Y-176247632D01*
X91007931Y-176236594D01*
X90864494Y-176174270D01*
X90746662Y-176070727D01*
X90744513Y-176067978D01*
X90671781Y-175927677D01*
X90682700Y-175796845D01*
X90777750Y-175669260D01*
X90862149Y-175598816D01*
X91008702Y-175510048D01*
X91143443Y-175465331D01*
X91249613Y-175469171D01*
G36*
X91249613Y-175469171D02*
G01*
X91310455Y-175526072D01*
X91313987Y-175536737D01*
X91305439Y-175596245D01*
X91236782Y-175652991D01*
X91096654Y-175717126D01*
X91090229Y-175719713D01*
X90984402Y-175772932D01*
X90915276Y-175825570D01*
X90897613Y-175873326D01*
X90930785Y-175941257D01*
X91014645Y-175994481D01*
X91130024Y-176016000D01*
X91217204Y-176021147D01*
X91254000Y-176033704D01*
X91256797Y-176049188D01*
X91278451Y-176115125D01*
X91276998Y-176164268D01*
X91212878Y-176227019D01*
X91146945Y-176247632D01*
X91007931Y-176236594D01*
X90864494Y-176174270D01*
X90746662Y-176070727D01*
X90744513Y-176067978D01*
X90671781Y-175927677D01*
X90682700Y-175796845D01*
X90777750Y-175669260D01*
X90862149Y-175598816D01*
X91008702Y-175510048D01*
X91143443Y-175465331D01*
X91249613Y-175469171D01*
G37*
X89669947Y-174889809D02*
X89724077Y-174949214D01*
X89711557Y-175036166D01*
X89634750Y-175130770D01*
X89578870Y-175182346D01*
X89566913Y-175223701D01*
X89613584Y-175269222D01*
X89658327Y-175313262D01*
X89682536Y-175405085D01*
X89623519Y-175508717D01*
X89588560Y-175556874D01*
X89592080Y-175610844D01*
X89648737Y-175693211D01*
X89655258Y-175701752D01*
X89706391Y-175796023D01*
X89714214Y-175869078D01*
X89704564Y-175889031D01*
X89646715Y-175926706D01*
X89569605Y-175906262D01*
X89487916Y-175841928D01*
X89416327Y-175747933D01*
X89369520Y-175638506D01*
X89362176Y-175527876D01*
X89366357Y-175417248D01*
X89345859Y-175335034D01*
X89339029Y-175323778D01*
X89310387Y-175226032D01*
X89346210Y-175124793D01*
X89452044Y-175002705D01*
X89479913Y-174976764D01*
X89587531Y-174900219D01*
X89663710Y-174887238D01*
X89669947Y-174889809D01*
G36*
X89669947Y-174889809D02*
G01*
X89724077Y-174949214D01*
X89711557Y-175036166D01*
X89634750Y-175130770D01*
X89578870Y-175182346D01*
X89566913Y-175223701D01*
X89613584Y-175269222D01*
X89658327Y-175313262D01*
X89682536Y-175405085D01*
X89623519Y-175508717D01*
X89588560Y-175556874D01*
X89592080Y-175610844D01*
X89648737Y-175693211D01*
X89655258Y-175701752D01*
X89706391Y-175796023D01*
X89714214Y-175869078D01*
X89704564Y-175889031D01*
X89646715Y-175926706D01*
X89569605Y-175906262D01*
X89487916Y-175841928D01*
X89416327Y-175747933D01*
X89369520Y-175638506D01*
X89362176Y-175527876D01*
X89366357Y-175417248D01*
X89345859Y-175335034D01*
X89339029Y-175323778D01*
X89310387Y-175226032D01*
X89346210Y-175124793D01*
X89452044Y-175002705D01*
X89479913Y-174976764D01*
X89587531Y-174900219D01*
X89663710Y-174887238D01*
X89669947Y-174889809D01*
G37*
X90811822Y-172316260D02*
X91009638Y-172323761D01*
X91166406Y-172339705D01*
X91304051Y-172366335D01*
X91444500Y-172405894D01*
X91733324Y-172516700D01*
X92060907Y-172705420D01*
X92322803Y-172938358D01*
X92388654Y-173010637D01*
X92448489Y-173066379D01*
X92475316Y-173067652D01*
X92481553Y-173020917D01*
X92490914Y-172961547D01*
X92524000Y-172925667D01*
X92527187Y-172926055D01*
X92555424Y-172969580D01*
X92567856Y-173063250D01*
X92569379Y-173200833D01*
X92673479Y-173073833D01*
X92688628Y-173054540D01*
X92751980Y-172951793D01*
X92777790Y-172870252D01*
X92785932Y-172829888D01*
X92824999Y-172822717D01*
X92825414Y-172822978D01*
X92852383Y-172884121D01*
X92848828Y-172994549D01*
X92839872Y-173070300D01*
X92853791Y-173124486D01*
X92907662Y-173137333D01*
X92925742Y-173137827D01*
X92983078Y-173159594D01*
X92962144Y-173213583D01*
X92862949Y-173299764D01*
X92783884Y-173359933D01*
X92703793Y-173434311D01*
X92657293Y-173511741D01*
X92642818Y-173607744D01*
X92658801Y-173737839D01*
X92703675Y-173917546D01*
X92775873Y-174162387D01*
X92807212Y-174268039D01*
X92884351Y-174557214D01*
X92928824Y-174788235D01*
X92941989Y-174975688D01*
X92925205Y-175134155D01*
X92879830Y-175278220D01*
X92865394Y-175313197D01*
X92835444Y-175402576D01*
X92842581Y-175453226D01*
X92887921Y-175495057D01*
X92939343Y-175527769D01*
X92997758Y-175550333D01*
X93030450Y-175574762D01*
X93018870Y-175633601D01*
X92966586Y-175694665D01*
X92961572Y-175698386D01*
X92926174Y-175738035D01*
X92927846Y-175795149D01*
X92966586Y-175899056D01*
X93005894Y-176008321D01*
X93030111Y-176128944D01*
X93019977Y-176202848D01*
X92975085Y-176214885D01*
X92944457Y-176216525D01*
X92930514Y-176269201D01*
X92936506Y-176390272D01*
X92939023Y-176423656D01*
X92925950Y-176606079D01*
X92858973Y-176799167D01*
X92763104Y-177010833D01*
X92738717Y-176862667D01*
X92714329Y-176714500D01*
X92608581Y-176924176D01*
X92501067Y-177089869D01*
X92297128Y-177273426D01*
X92191828Y-177341210D01*
X92074207Y-177401931D01*
X92013788Y-177409412D01*
X92013539Y-177363765D01*
X92076425Y-177265102D01*
X92117921Y-177207895D01*
X92240541Y-176998027D01*
X92322972Y-176789099D01*
X92353579Y-176608667D01*
X92354351Y-176460500D01*
X92275799Y-176589312D01*
X92264005Y-176608049D01*
X92151584Y-176738134D01*
X91995880Y-176836928D01*
X91776251Y-176918013D01*
X91730855Y-176931645D01*
X91655014Y-176956049D01*
X91579228Y-176984245D01*
X91490916Y-177022012D01*
X91377498Y-177075126D01*
X91226392Y-177149365D01*
X91025019Y-177250506D01*
X90760798Y-177384326D01*
X90573332Y-177474884D01*
X90370063Y-177564050D01*
X90192484Y-177633027D01*
X90064972Y-177671747D01*
X90013216Y-177681059D01*
X89828984Y-177696668D01*
X89704567Y-177695729D01*
X89625858Y-177695136D01*
X89437991Y-177677642D01*
X89299537Y-177645362D01*
X89223130Y-177578107D01*
X89157158Y-177446470D01*
X89111843Y-177272972D01*
X89095000Y-177079249D01*
X89095104Y-177055175D01*
X89105978Y-176900414D01*
X89143478Y-176782683D01*
X89219986Y-176660500D01*
X89344971Y-176487962D01*
X89256985Y-176376107D01*
X89226902Y-176332664D01*
X89145782Y-176165524D01*
X89076647Y-175956168D01*
X89028660Y-175735889D01*
X89010984Y-175535979D01*
X89018794Y-175384715D01*
X89063664Y-175103199D01*
X89141919Y-174811085D01*
X89246154Y-174527410D01*
X89368962Y-174271213D01*
X89502937Y-174061530D01*
X89640673Y-173917398D01*
X89810591Y-173787295D01*
X89590379Y-173732396D01*
X89511167Y-173710963D01*
X89287201Y-173621830D01*
X89126276Y-173500761D01*
X89013233Y-173337382D01*
X88961202Y-173205670D01*
X88938802Y-173000909D01*
X89014118Y-173000909D01*
X89039069Y-173164402D01*
X89111775Y-173327617D01*
X89225720Y-173471080D01*
X89374387Y-173575320D01*
X89490708Y-173613260D01*
X89684724Y-173650537D01*
X89934929Y-173682299D01*
X90226523Y-173707028D01*
X90544709Y-173723205D01*
X90874690Y-173729311D01*
X91041144Y-173732964D01*
X91396293Y-173770586D01*
X91695058Y-173851429D01*
X91950768Y-173978578D01*
X92052490Y-174052335D01*
X92101651Y-174111344D01*
X92082798Y-174135080D01*
X92003141Y-174117096D01*
X91869887Y-174050941D01*
X91786771Y-174006648D01*
X91568433Y-173923571D01*
X91301551Y-173864148D01*
X90974674Y-173826223D01*
X90576347Y-173807644D01*
X90367302Y-173803760D01*
X90193867Y-173803897D01*
X90072452Y-173810824D01*
X89985707Y-173826561D01*
X89916282Y-173853127D01*
X89846826Y-173892540D01*
X89694292Y-174003526D01*
X89521649Y-174190322D01*
X89378904Y-174432286D01*
X89256020Y-174743883D01*
X89196892Y-174933517D01*
X89150758Y-175126748D01*
X89127528Y-175312505D01*
X89120581Y-175529167D01*
X89120503Y-175566735D01*
X89124789Y-175755290D01*
X89141197Y-175894239D01*
X89175174Y-176013552D01*
X89232164Y-176143195D01*
X89297695Y-176265960D01*
X89473922Y-176503002D01*
X89677682Y-176662057D01*
X89907144Y-176741504D01*
X90035657Y-176755735D01*
X90367577Y-176744153D01*
X90719795Y-176672065D01*
X91069363Y-176543382D01*
X91169323Y-176500382D01*
X91354199Y-176433293D01*
X91526536Y-176384719D01*
X91669936Y-176358186D01*
X91768001Y-176357221D01*
X91804334Y-176385349D01*
X91797889Y-176397484D01*
X91734199Y-176428578D01*
X91624417Y-176452543D01*
X91600105Y-176456684D01*
X91462526Y-176494151D01*
X91288752Y-176556158D01*
X91110454Y-176631667D01*
X91027320Y-176668066D01*
X90733013Y-176768375D01*
X90434924Y-176830941D01*
X90148659Y-176855172D01*
X89889822Y-176840478D01*
X89674020Y-176786269D01*
X89516858Y-176691954D01*
X89388656Y-176572196D01*
X89279020Y-176737866D01*
X89241176Y-176798188D01*
X89197351Y-176896707D01*
X89182266Y-177006871D01*
X89188273Y-177164654D01*
X89199691Y-177270384D01*
X89248694Y-177441197D01*
X89341286Y-177550153D01*
X89489300Y-177607796D01*
X89704567Y-177624667D01*
X89820515Y-177620608D01*
X89996901Y-177596391D01*
X90185238Y-177545888D01*
X90400200Y-177464004D01*
X90656459Y-177345644D01*
X90968690Y-177185713D01*
X90993340Y-177172747D01*
X91207966Y-177064606D01*
X91417033Y-176966690D01*
X91597731Y-176889313D01*
X91727252Y-176842785D01*
X91853961Y-176801886D01*
X92030438Y-176715801D01*
X92154797Y-176600960D01*
X92247990Y-176441206D01*
X92292446Y-176353694D01*
X92347025Y-176290618D01*
X92386101Y-176310176D01*
X92409183Y-176411917D01*
X92415780Y-176595392D01*
X92407583Y-176771680D01*
X92378418Y-176921623D01*
X92321958Y-177046362D01*
X92268540Y-177150772D01*
X92265575Y-177195275D01*
X92312905Y-177173770D01*
X92407554Y-177084917D01*
X92450669Y-177036040D01*
X92569227Y-176826666D01*
X92608667Y-176587243D01*
X92614831Y-176493393D01*
X92640908Y-176430315D01*
X92681696Y-176447877D01*
X92730956Y-176548079D01*
X92740966Y-176573654D01*
X92785424Y-176651317D01*
X92823312Y-176670326D01*
X92837566Y-176656242D01*
X92860767Y-176572628D01*
X92857053Y-176450204D01*
X92829236Y-176319023D01*
X92780132Y-176209141D01*
X92752831Y-176164873D01*
X92719025Y-176075134D01*
X92749268Y-176039366D01*
X92842999Y-176058903D01*
X92913714Y-176079870D01*
X92947334Y-176076350D01*
X92930894Y-176020865D01*
X92880752Y-175927122D01*
X92818958Y-175838059D01*
X92768308Y-175790119D01*
X92765140Y-175788731D01*
X92752538Y-175752324D01*
X92815250Y-175686714D01*
X92916000Y-175605172D01*
X92819769Y-175537770D01*
X92723539Y-175470367D01*
X92819018Y-175173425D01*
X92864037Y-175009460D01*
X92883300Y-174822805D01*
X92848686Y-174675548D01*
X92758596Y-174551215D01*
X92746192Y-174535743D01*
X92706971Y-174437628D01*
X92689114Y-174309060D01*
X92687968Y-174280996D01*
X92677307Y-174173947D01*
X92659845Y-174069302D01*
X92640204Y-173987423D01*
X92623010Y-173948674D01*
X92612887Y-173973417D01*
X92608466Y-173992591D01*
X92566334Y-174026333D01*
X92547319Y-173999752D01*
X92530461Y-173908499D01*
X92524000Y-173773807D01*
X92525284Y-173686561D01*
X92539541Y-173562838D01*
X92579046Y-173469689D01*
X92655386Y-173371640D01*
X92713774Y-173297858D01*
X92741406Y-173235090D01*
X92707327Y-173224532D01*
X92613577Y-173271092D01*
X92589128Y-173283870D01*
X92530337Y-173288366D01*
X92462708Y-173248045D01*
X92374340Y-173153846D01*
X92253335Y-172996703D01*
X92215776Y-172948447D01*
X92132656Y-172857673D01*
X92070795Y-172810635D01*
X92001256Y-172767987D01*
X91914288Y-172693106D01*
X91886752Y-172671151D01*
X91776954Y-172610163D01*
X91620706Y-172542152D01*
X91442265Y-172478165D01*
X91309206Y-172437071D01*
X91145834Y-172395498D01*
X90989676Y-172371336D01*
X90810148Y-172360349D01*
X90576667Y-172358302D01*
X90415726Y-172361537D01*
X90193557Y-172373543D01*
X89997572Y-172392195D01*
X89857000Y-172415185D01*
X89694094Y-172463282D01*
X89468985Y-172554277D01*
X89261901Y-172662419D01*
X89105584Y-172772154D01*
X89043439Y-172856611D01*
X89014118Y-173000909D01*
X88938802Y-173000909D01*
X88935238Y-172968327D01*
X88945089Y-172870356D01*
X88973896Y-172790789D01*
X89038894Y-172722719D01*
X89158500Y-172638976D01*
X89358412Y-172523253D01*
X89595530Y-172427068D01*
X89862412Y-172362995D01*
X90176566Y-172326974D01*
X90555500Y-172314945D01*
X90811822Y-172316260D01*
G36*
X90811822Y-172316260D02*
G01*
X91009638Y-172323761D01*
X91166406Y-172339705D01*
X91304051Y-172366335D01*
X91444500Y-172405894D01*
X91733324Y-172516700D01*
X92060907Y-172705420D01*
X92322803Y-172938358D01*
X92388654Y-173010637D01*
X92448489Y-173066379D01*
X92475316Y-173067652D01*
X92481553Y-173020917D01*
X92490914Y-172961547D01*
X92524000Y-172925667D01*
X92527187Y-172926055D01*
X92555424Y-172969580D01*
X92567856Y-173063250D01*
X92569379Y-173200833D01*
X92673479Y-173073833D01*
X92688628Y-173054540D01*
X92751980Y-172951793D01*
X92777790Y-172870252D01*
X92785932Y-172829888D01*
X92824999Y-172822717D01*
X92825414Y-172822978D01*
X92852383Y-172884121D01*
X92848828Y-172994549D01*
X92839872Y-173070300D01*
X92853791Y-173124486D01*
X92907662Y-173137333D01*
X92925742Y-173137827D01*
X92983078Y-173159594D01*
X92962144Y-173213583D01*
X92862949Y-173299764D01*
X92783884Y-173359933D01*
X92703793Y-173434311D01*
X92657293Y-173511741D01*
X92642818Y-173607744D01*
X92658801Y-173737839D01*
X92703675Y-173917546D01*
X92775873Y-174162387D01*
X92807212Y-174268039D01*
X92884351Y-174557214D01*
X92928824Y-174788235D01*
X92941989Y-174975688D01*
X92925205Y-175134155D01*
X92879830Y-175278220D01*
X92865394Y-175313197D01*
X92835444Y-175402576D01*
X92842581Y-175453226D01*
X92887921Y-175495057D01*
X92939343Y-175527769D01*
X92997758Y-175550333D01*
X93030450Y-175574762D01*
X93018870Y-175633601D01*
X92966586Y-175694665D01*
X92961572Y-175698386D01*
X92926174Y-175738035D01*
X92927846Y-175795149D01*
X92966586Y-175899056D01*
X93005894Y-176008321D01*
X93030111Y-176128944D01*
X93019977Y-176202848D01*
X92975085Y-176214885D01*
X92944457Y-176216525D01*
X92930514Y-176269201D01*
X92936506Y-176390272D01*
X92939023Y-176423656D01*
X92925950Y-176606079D01*
X92858973Y-176799167D01*
X92763104Y-177010833D01*
X92738717Y-176862667D01*
X92714329Y-176714500D01*
X92608581Y-176924176D01*
X92501067Y-177089869D01*
X92297128Y-177273426D01*
X92191828Y-177341210D01*
X92074207Y-177401931D01*
X92013788Y-177409412D01*
X92013539Y-177363765D01*
X92076425Y-177265102D01*
X92117921Y-177207895D01*
X92240541Y-176998027D01*
X92322972Y-176789099D01*
X92353579Y-176608667D01*
X92354351Y-176460500D01*
X92275799Y-176589312D01*
X92264005Y-176608049D01*
X92151584Y-176738134D01*
X91995880Y-176836928D01*
X91776251Y-176918013D01*
X91730855Y-176931645D01*
X91655014Y-176956049D01*
X91579228Y-176984245D01*
X91490916Y-177022012D01*
X91377498Y-177075126D01*
X91226392Y-177149365D01*
X91025019Y-177250506D01*
X90760798Y-177384326D01*
X90573332Y-177474884D01*
X90370063Y-177564050D01*
X90192484Y-177633027D01*
X90064972Y-177671747D01*
X90013216Y-177681059D01*
X89828984Y-177696668D01*
X89704567Y-177695729D01*
X89625858Y-177695136D01*
X89437991Y-177677642D01*
X89299537Y-177645362D01*
X89223130Y-177578107D01*
X89157158Y-177446470D01*
X89111843Y-177272972D01*
X89095000Y-177079249D01*
X89095104Y-177055175D01*
X89105978Y-176900414D01*
X89143478Y-176782683D01*
X89219986Y-176660500D01*
X89344971Y-176487962D01*
X89256985Y-176376107D01*
X89226902Y-176332664D01*
X89145782Y-176165524D01*
X89076647Y-175956168D01*
X89028660Y-175735889D01*
X89010984Y-175535979D01*
X89018794Y-175384715D01*
X89063664Y-175103199D01*
X89141919Y-174811085D01*
X89246154Y-174527410D01*
X89368962Y-174271213D01*
X89502937Y-174061530D01*
X89640673Y-173917398D01*
X89810591Y-173787295D01*
X89590379Y-173732396D01*
X89511167Y-173710963D01*
X89287201Y-173621830D01*
X89126276Y-173500761D01*
X89013233Y-173337382D01*
X88961202Y-173205670D01*
X88938802Y-173000909D01*
X89014118Y-173000909D01*
X89039069Y-173164402D01*
X89111775Y-173327617D01*
X89225720Y-173471080D01*
X89374387Y-173575320D01*
X89490708Y-173613260D01*
X89684724Y-173650537D01*
X89934929Y-173682299D01*
X90226523Y-173707028D01*
X90544709Y-173723205D01*
X90874690Y-173729311D01*
X91041144Y-173732964D01*
X91396293Y-173770586D01*
X91695058Y-173851429D01*
X91950768Y-173978578D01*
X92052490Y-174052335D01*
X92101651Y-174111344D01*
X92082798Y-174135080D01*
X92003141Y-174117096D01*
X91869887Y-174050941D01*
X91786771Y-174006648D01*
X91568433Y-173923571D01*
X91301551Y-173864148D01*
X90974674Y-173826223D01*
X90576347Y-173807644D01*
X90367302Y-173803760D01*
X90193867Y-173803897D01*
X90072452Y-173810824D01*
X89985707Y-173826561D01*
X89916282Y-173853127D01*
X89846826Y-173892540D01*
X89694292Y-174003526D01*
X89521649Y-174190322D01*
X89378904Y-174432286D01*
X89256020Y-174743883D01*
X89196892Y-174933517D01*
X89150758Y-175126748D01*
X89127528Y-175312505D01*
X89120581Y-175529167D01*
X89120503Y-175566735D01*
X89124789Y-175755290D01*
X89141197Y-175894239D01*
X89175174Y-176013552D01*
X89232164Y-176143195D01*
X89297695Y-176265960D01*
X89473922Y-176503002D01*
X89677682Y-176662057D01*
X89907144Y-176741504D01*
X90035657Y-176755735D01*
X90367577Y-176744153D01*
X90719795Y-176672065D01*
X91069363Y-176543382D01*
X91169323Y-176500382D01*
X91354199Y-176433293D01*
X91526536Y-176384719D01*
X91669936Y-176358186D01*
X91768001Y-176357221D01*
X91804334Y-176385349D01*
X91797889Y-176397484D01*
X91734199Y-176428578D01*
X91624417Y-176452543D01*
X91600105Y-176456684D01*
X91462526Y-176494151D01*
X91288752Y-176556158D01*
X91110454Y-176631667D01*
X91027320Y-176668066D01*
X90733013Y-176768375D01*
X90434924Y-176830941D01*
X90148659Y-176855172D01*
X89889822Y-176840478D01*
X89674020Y-176786269D01*
X89516858Y-176691954D01*
X89388656Y-176572196D01*
X89279020Y-176737866D01*
X89241176Y-176798188D01*
X89197351Y-176896707D01*
X89182266Y-177006871D01*
X89188273Y-177164654D01*
X89199691Y-177270384D01*
X89248694Y-177441197D01*
X89341286Y-177550153D01*
X89489300Y-177607796D01*
X89704567Y-177624667D01*
X89820515Y-177620608D01*
X89996901Y-177596391D01*
X90185238Y-177545888D01*
X90400200Y-177464004D01*
X90656459Y-177345644D01*
X90968690Y-177185713D01*
X90993340Y-177172747D01*
X91207966Y-177064606D01*
X91417033Y-176966690D01*
X91597731Y-176889313D01*
X91727252Y-176842785D01*
X91853961Y-176801886D01*
X92030438Y-176715801D01*
X92154797Y-176600960D01*
X92247990Y-176441206D01*
X92292446Y-176353694D01*
X92347025Y-176290618D01*
X92386101Y-176310176D01*
X92409183Y-176411917D01*
X92415780Y-176595392D01*
X92407583Y-176771680D01*
X92378418Y-176921623D01*
X92321958Y-177046362D01*
X92268540Y-177150772D01*
X92265575Y-177195275D01*
X92312905Y-177173770D01*
X92407554Y-177084917D01*
X92450669Y-177036040D01*
X92569227Y-176826666D01*
X92608667Y-176587243D01*
X92614831Y-176493393D01*
X92640908Y-176430315D01*
X92681696Y-176447877D01*
X92730956Y-176548079D01*
X92740966Y-176573654D01*
X92785424Y-176651317D01*
X92823312Y-176670326D01*
X92837566Y-176656242D01*
X92860767Y-176572628D01*
X92857053Y-176450204D01*
X92829236Y-176319023D01*
X92780132Y-176209141D01*
X92752831Y-176164873D01*
X92719025Y-176075134D01*
X92749268Y-176039366D01*
X92842999Y-176058903D01*
X92913714Y-176079870D01*
X92947334Y-176076350D01*
X92930894Y-176020865D01*
X92880752Y-175927122D01*
X92818958Y-175838059D01*
X92768308Y-175790119D01*
X92765140Y-175788731D01*
X92752538Y-175752324D01*
X92815250Y-175686714D01*
X92916000Y-175605172D01*
X92819769Y-175537770D01*
X92723539Y-175470367D01*
X92819018Y-175173425D01*
X92864037Y-175009460D01*
X92883300Y-174822805D01*
X92848686Y-174675548D01*
X92758596Y-174551215D01*
X92746192Y-174535743D01*
X92706971Y-174437628D01*
X92689114Y-174309060D01*
X92687968Y-174280996D01*
X92677307Y-174173947D01*
X92659845Y-174069302D01*
X92640204Y-173987423D01*
X92623010Y-173948674D01*
X92612887Y-173973417D01*
X92608466Y-173992591D01*
X92566334Y-174026333D01*
X92547319Y-173999752D01*
X92530461Y-173908499D01*
X92524000Y-173773807D01*
X92525284Y-173686561D01*
X92539541Y-173562838D01*
X92579046Y-173469689D01*
X92655386Y-173371640D01*
X92713774Y-173297858D01*
X92741406Y-173235090D01*
X92707327Y-173224532D01*
X92613577Y-173271092D01*
X92589128Y-173283870D01*
X92530337Y-173288366D01*
X92462708Y-173248045D01*
X92374340Y-173153846D01*
X92253335Y-172996703D01*
X92215776Y-172948447D01*
X92132656Y-172857673D01*
X92070795Y-172810635D01*
X92001256Y-172767987D01*
X91914288Y-172693106D01*
X91886752Y-172671151D01*
X91776954Y-172610163D01*
X91620706Y-172542152D01*
X91442265Y-172478165D01*
X91309206Y-172437071D01*
X91145834Y-172395498D01*
X90989676Y-172371336D01*
X90810148Y-172360349D01*
X90576667Y-172358302D01*
X90415726Y-172361537D01*
X90193557Y-172373543D01*
X89997572Y-172392195D01*
X89857000Y-172415185D01*
X89694094Y-172463282D01*
X89468985Y-172554277D01*
X89261901Y-172662419D01*
X89105584Y-172772154D01*
X89043439Y-172856611D01*
X89014118Y-173000909D01*
X88938802Y-173000909D01*
X88935238Y-172968327D01*
X88945089Y-172870356D01*
X88973896Y-172790789D01*
X89038894Y-172722719D01*
X89158500Y-172638976D01*
X89358412Y-172523253D01*
X89595530Y-172427068D01*
X89862412Y-172362995D01*
X90176566Y-172326974D01*
X90555500Y-172314945D01*
X90811822Y-172316260D01*
G37*
G36*
X102873000Y-178873000D02*
G01*
X98127000Y-178873000D01*
X98127000Y-170127000D01*
X102873000Y-170127000D01*
X102873000Y-178873000D01*
G37*
M02*
