G04 #@! TF.GenerationSoftware,KiCad,Pcbnew,9.0.1*
G04 #@! TF.CreationDate,2025-10-04T13:40:08+13:00*
G04 #@! TF.ProjectId,RGB-to-component-covers,5247422d-746f-42d6-936f-6d706f6e656e,rev?*
G04 #@! TF.SameCoordinates,Original*
G04 #@! TF.FileFunction,Legend,Top*
G04 #@! TF.FilePolarity,Positive*
%FSLAX46Y46*%
G04 Gerber Fmt 4.6, Leading zero omitted, Abs format (unit mm)*
G04 Created by KiCad (PCBNEW 9.0.1) date 2025-10-04 13:40:08*
%MOMM*%
%LPD*%
G01*
G04 APERTURE LIST*
%ADD10C,0.300000*%
%ADD11C,0.150000*%
%ADD12C,0.010000*%
G04 APERTURE END LIST*
D10*
X80700305Y-132523808D02*
X81652686Y-131857141D01*
X80700305Y-131380951D02*
X82700305Y-131380951D01*
X82700305Y-131380951D02*
X82700305Y-132142856D01*
X82700305Y-132142856D02*
X82605067Y-132333332D01*
X82605067Y-132333332D02*
X82509829Y-132428570D01*
X82509829Y-132428570D02*
X82319353Y-132523808D01*
X82319353Y-132523808D02*
X82033639Y-132523808D01*
X82033639Y-132523808D02*
X81843163Y-132428570D01*
X81843163Y-132428570D02*
X81747924Y-132333332D01*
X81747924Y-132333332D02*
X81652686Y-132142856D01*
X81652686Y-132142856D02*
X81652686Y-131380951D01*
X82605067Y-134428570D02*
X82700305Y-134238094D01*
X82700305Y-134238094D02*
X82700305Y-133952380D01*
X82700305Y-133952380D02*
X82605067Y-133666665D01*
X82605067Y-133666665D02*
X82414591Y-133476189D01*
X82414591Y-133476189D02*
X82224115Y-133380951D01*
X82224115Y-133380951D02*
X81843163Y-133285713D01*
X81843163Y-133285713D02*
X81557448Y-133285713D01*
X81557448Y-133285713D02*
X81176496Y-133380951D01*
X81176496Y-133380951D02*
X80986020Y-133476189D01*
X80986020Y-133476189D02*
X80795544Y-133666665D01*
X80795544Y-133666665D02*
X80700305Y-133952380D01*
X80700305Y-133952380D02*
X80700305Y-134142856D01*
X80700305Y-134142856D02*
X80795544Y-134428570D01*
X80795544Y-134428570D02*
X80890782Y-134523808D01*
X80890782Y-134523808D02*
X81557448Y-134523808D01*
X81557448Y-134523808D02*
X81557448Y-134142856D01*
X81747924Y-136047618D02*
X81652686Y-136333332D01*
X81652686Y-136333332D02*
X81557448Y-136428570D01*
X81557448Y-136428570D02*
X81366972Y-136523808D01*
X81366972Y-136523808D02*
X81081258Y-136523808D01*
X81081258Y-136523808D02*
X80890782Y-136428570D01*
X80890782Y-136428570D02*
X80795544Y-136333332D01*
X80795544Y-136333332D02*
X80700305Y-136142856D01*
X80700305Y-136142856D02*
X80700305Y-135380951D01*
X80700305Y-135380951D02*
X82700305Y-135380951D01*
X82700305Y-135380951D02*
X82700305Y-136047618D01*
X82700305Y-136047618D02*
X82605067Y-136238094D01*
X82605067Y-136238094D02*
X82509829Y-136333332D01*
X82509829Y-136333332D02*
X82319353Y-136428570D01*
X82319353Y-136428570D02*
X82128877Y-136428570D01*
X82128877Y-136428570D02*
X81938401Y-136333332D01*
X81938401Y-136333332D02*
X81843163Y-136238094D01*
X81843163Y-136238094D02*
X81747924Y-136047618D01*
X81747924Y-136047618D02*
X81747924Y-135380951D01*
X82033639Y-138619047D02*
X82033639Y-139380951D01*
X82700305Y-138904761D02*
X80986020Y-138904761D01*
X80986020Y-138904761D02*
X80795544Y-138999999D01*
X80795544Y-138999999D02*
X80700305Y-139190475D01*
X80700305Y-139190475D02*
X80700305Y-139380951D01*
X80700305Y-140333332D02*
X80795544Y-140142856D01*
X80795544Y-140142856D02*
X80890782Y-140047618D01*
X80890782Y-140047618D02*
X81081258Y-139952380D01*
X81081258Y-139952380D02*
X81652686Y-139952380D01*
X81652686Y-139952380D02*
X81843163Y-140047618D01*
X81843163Y-140047618D02*
X81938401Y-140142856D01*
X81938401Y-140142856D02*
X82033639Y-140333332D01*
X82033639Y-140333332D02*
X82033639Y-140619047D01*
X82033639Y-140619047D02*
X81938401Y-140809523D01*
X81938401Y-140809523D02*
X81843163Y-140904761D01*
X81843163Y-140904761D02*
X81652686Y-140999999D01*
X81652686Y-140999999D02*
X81081258Y-140999999D01*
X81081258Y-140999999D02*
X80890782Y-140904761D01*
X80890782Y-140904761D02*
X80795544Y-140809523D01*
X80795544Y-140809523D02*
X80700305Y-140619047D01*
X80700305Y-140619047D02*
X80700305Y-140333332D01*
X81652686Y-143761904D02*
X80700305Y-143761904D01*
X82700305Y-143095238D02*
X81652686Y-143761904D01*
X81652686Y-143761904D02*
X82700305Y-144428571D01*
X80700305Y-145095238D02*
X82700305Y-145095238D01*
X82700305Y-145095238D02*
X82700305Y-145857143D01*
X82700305Y-145857143D02*
X82605067Y-146047619D01*
X82605067Y-146047619D02*
X82509829Y-146142857D01*
X82509829Y-146142857D02*
X82319353Y-146238095D01*
X82319353Y-146238095D02*
X82033639Y-146238095D01*
X82033639Y-146238095D02*
X81843163Y-146142857D01*
X81843163Y-146142857D02*
X81747924Y-146047619D01*
X81747924Y-146047619D02*
X81652686Y-145857143D01*
X81652686Y-145857143D02*
X81652686Y-145095238D01*
X80700305Y-147095238D02*
X82700305Y-147095238D01*
X81938401Y-147095238D02*
X82033639Y-147285714D01*
X82033639Y-147285714D02*
X82033639Y-147666667D01*
X82033639Y-147666667D02*
X81938401Y-147857143D01*
X81938401Y-147857143D02*
X81843163Y-147952381D01*
X81843163Y-147952381D02*
X81652686Y-148047619D01*
X81652686Y-148047619D02*
X81081258Y-148047619D01*
X81081258Y-148047619D02*
X80890782Y-147952381D01*
X80890782Y-147952381D02*
X80795544Y-147857143D01*
X80795544Y-147857143D02*
X80700305Y-147666667D01*
X80700305Y-147666667D02*
X80700305Y-147285714D01*
X80700305Y-147285714D02*
X80795544Y-147095238D01*
X80700305Y-148904762D02*
X82700305Y-148904762D01*
X82700305Y-148904762D02*
X82700305Y-149666667D01*
X82700305Y-149666667D02*
X82605067Y-149857143D01*
X82605067Y-149857143D02*
X82509829Y-149952381D01*
X82509829Y-149952381D02*
X82319353Y-150047619D01*
X82319353Y-150047619D02*
X82033639Y-150047619D01*
X82033639Y-150047619D02*
X81843163Y-149952381D01*
X81843163Y-149952381D02*
X81747924Y-149857143D01*
X81747924Y-149857143D02*
X81652686Y-149666667D01*
X81652686Y-149666667D02*
X81652686Y-148904762D01*
X80700305Y-150904762D02*
X82033639Y-150904762D01*
X81652686Y-150904762D02*
X81843163Y-151000000D01*
X81843163Y-151000000D02*
X81938401Y-151095238D01*
X81938401Y-151095238D02*
X82033639Y-151285714D01*
X82033639Y-151285714D02*
X82033639Y-151476191D01*
X82033639Y-153380953D02*
X82033639Y-154142857D01*
X82700305Y-153666667D02*
X80986020Y-153666667D01*
X80986020Y-153666667D02*
X80795544Y-153761905D01*
X80795544Y-153761905D02*
X80700305Y-153952381D01*
X80700305Y-153952381D02*
X80700305Y-154142857D01*
X80700305Y-154809524D02*
X82033639Y-154809524D01*
X81652686Y-154809524D02*
X81843163Y-154904762D01*
X81843163Y-154904762D02*
X81938401Y-155000000D01*
X81938401Y-155000000D02*
X82033639Y-155190476D01*
X82033639Y-155190476D02*
X82033639Y-155380953D01*
X80700305Y-156904762D02*
X81747924Y-156904762D01*
X81747924Y-156904762D02*
X81938401Y-156809524D01*
X81938401Y-156809524D02*
X82033639Y-156619048D01*
X82033639Y-156619048D02*
X82033639Y-156238095D01*
X82033639Y-156238095D02*
X81938401Y-156047619D01*
X80795544Y-156904762D02*
X80700305Y-156714286D01*
X80700305Y-156714286D02*
X80700305Y-156238095D01*
X80700305Y-156238095D02*
X80795544Y-156047619D01*
X80795544Y-156047619D02*
X80986020Y-155952381D01*
X80986020Y-155952381D02*
X81176496Y-155952381D01*
X81176496Y-155952381D02*
X81366972Y-156047619D01*
X81366972Y-156047619D02*
X81462210Y-156238095D01*
X81462210Y-156238095D02*
X81462210Y-156714286D01*
X81462210Y-156714286D02*
X81557448Y-156904762D01*
X82033639Y-157857143D02*
X80700305Y-157857143D01*
X81843163Y-157857143D02*
X81938401Y-157952381D01*
X81938401Y-157952381D02*
X82033639Y-158142857D01*
X82033639Y-158142857D02*
X82033639Y-158428572D01*
X82033639Y-158428572D02*
X81938401Y-158619048D01*
X81938401Y-158619048D02*
X81747924Y-158714286D01*
X81747924Y-158714286D02*
X80700305Y-158714286D01*
X80795544Y-159571429D02*
X80700305Y-159761905D01*
X80700305Y-159761905D02*
X80700305Y-160142857D01*
X80700305Y-160142857D02*
X80795544Y-160333334D01*
X80795544Y-160333334D02*
X80986020Y-160428572D01*
X80986020Y-160428572D02*
X81081258Y-160428572D01*
X81081258Y-160428572D02*
X81271734Y-160333334D01*
X81271734Y-160333334D02*
X81366972Y-160142857D01*
X81366972Y-160142857D02*
X81366972Y-159857143D01*
X81366972Y-159857143D02*
X81462210Y-159666667D01*
X81462210Y-159666667D02*
X81652686Y-159571429D01*
X81652686Y-159571429D02*
X81747924Y-159571429D01*
X81747924Y-159571429D02*
X81938401Y-159666667D01*
X81938401Y-159666667D02*
X82033639Y-159857143D01*
X82033639Y-159857143D02*
X82033639Y-160142857D01*
X82033639Y-160142857D02*
X81938401Y-160333334D01*
X80795544Y-162142858D02*
X80700305Y-161952382D01*
X80700305Y-161952382D02*
X80700305Y-161571429D01*
X80700305Y-161571429D02*
X80795544Y-161380953D01*
X80795544Y-161380953D02*
X80890782Y-161285715D01*
X80890782Y-161285715D02*
X81081258Y-161190477D01*
X81081258Y-161190477D02*
X81652686Y-161190477D01*
X81652686Y-161190477D02*
X81843163Y-161285715D01*
X81843163Y-161285715D02*
X81938401Y-161380953D01*
X81938401Y-161380953D02*
X82033639Y-161571429D01*
X82033639Y-161571429D02*
X82033639Y-161952382D01*
X82033639Y-161952382D02*
X81938401Y-162142858D01*
X80700305Y-163285715D02*
X80795544Y-163095239D01*
X80795544Y-163095239D02*
X80890782Y-163000001D01*
X80890782Y-163000001D02*
X81081258Y-162904763D01*
X81081258Y-162904763D02*
X81652686Y-162904763D01*
X81652686Y-162904763D02*
X81843163Y-163000001D01*
X81843163Y-163000001D02*
X81938401Y-163095239D01*
X81938401Y-163095239D02*
X82033639Y-163285715D01*
X82033639Y-163285715D02*
X82033639Y-163571430D01*
X82033639Y-163571430D02*
X81938401Y-163761906D01*
X81938401Y-163761906D02*
X81843163Y-163857144D01*
X81843163Y-163857144D02*
X81652686Y-163952382D01*
X81652686Y-163952382D02*
X81081258Y-163952382D01*
X81081258Y-163952382D02*
X80890782Y-163857144D01*
X80890782Y-163857144D02*
X80795544Y-163761906D01*
X80795544Y-163761906D02*
X80700305Y-163571430D01*
X80700305Y-163571430D02*
X80700305Y-163285715D01*
X80700305Y-165666668D02*
X82700305Y-165666668D01*
X80795544Y-165666668D02*
X80700305Y-165476192D01*
X80700305Y-165476192D02*
X80700305Y-165095239D01*
X80700305Y-165095239D02*
X80795544Y-164904763D01*
X80795544Y-164904763D02*
X80890782Y-164809525D01*
X80890782Y-164809525D02*
X81081258Y-164714287D01*
X81081258Y-164714287D02*
X81652686Y-164714287D01*
X81652686Y-164714287D02*
X81843163Y-164809525D01*
X81843163Y-164809525D02*
X81938401Y-164904763D01*
X81938401Y-164904763D02*
X82033639Y-165095239D01*
X82033639Y-165095239D02*
X82033639Y-165476192D01*
X82033639Y-165476192D02*
X81938401Y-165666668D01*
X80795544Y-167380954D02*
X80700305Y-167190478D01*
X80700305Y-167190478D02*
X80700305Y-166809525D01*
X80700305Y-166809525D02*
X80795544Y-166619049D01*
X80795544Y-166619049D02*
X80986020Y-166523811D01*
X80986020Y-166523811D02*
X81747924Y-166523811D01*
X81747924Y-166523811D02*
X81938401Y-166619049D01*
X81938401Y-166619049D02*
X82033639Y-166809525D01*
X82033639Y-166809525D02*
X82033639Y-167190478D01*
X82033639Y-167190478D02*
X81938401Y-167380954D01*
X81938401Y-167380954D02*
X81747924Y-167476192D01*
X81747924Y-167476192D02*
X81557448Y-167476192D01*
X81557448Y-167476192D02*
X81366972Y-166523811D01*
X80700305Y-168333335D02*
X82033639Y-168333335D01*
X81652686Y-168333335D02*
X81843163Y-168428573D01*
X81843163Y-168428573D02*
X81938401Y-168523811D01*
X81938401Y-168523811D02*
X82033639Y-168714287D01*
X82033639Y-168714287D02*
X82033639Y-168904764D01*
X78813751Y-137333332D02*
X77480417Y-137714284D01*
X77480417Y-137714284D02*
X78432798Y-138095237D01*
X78432798Y-138095237D02*
X77480417Y-138476189D01*
X77480417Y-138476189D02*
X78813751Y-138857141D01*
X77480417Y-140476189D02*
X78528036Y-140476189D01*
X78528036Y-140476189D02*
X78718513Y-140380951D01*
X78718513Y-140380951D02*
X78813751Y-140190475D01*
X78813751Y-140190475D02*
X78813751Y-139809522D01*
X78813751Y-139809522D02*
X78718513Y-139619046D01*
X77575656Y-140476189D02*
X77480417Y-140285713D01*
X77480417Y-140285713D02*
X77480417Y-139809522D01*
X77480417Y-139809522D02*
X77575656Y-139619046D01*
X77575656Y-139619046D02*
X77766132Y-139523808D01*
X77766132Y-139523808D02*
X77956608Y-139523808D01*
X77956608Y-139523808D02*
X78147084Y-139619046D01*
X78147084Y-139619046D02*
X78242322Y-139809522D01*
X78242322Y-139809522D02*
X78242322Y-140285713D01*
X78242322Y-140285713D02*
X78337560Y-140476189D01*
X77480417Y-141428570D02*
X79480417Y-141428570D01*
X78242322Y-141619046D02*
X77480417Y-142190475D01*
X78813751Y-142190475D02*
X78051846Y-141428570D01*
X77480417Y-143904761D02*
X78528036Y-143904761D01*
X78528036Y-143904761D02*
X78718513Y-143809523D01*
X78718513Y-143809523D02*
X78813751Y-143619047D01*
X78813751Y-143619047D02*
X78813751Y-143238094D01*
X78813751Y-143238094D02*
X78718513Y-143047618D01*
X77575656Y-143904761D02*
X77480417Y-143714285D01*
X77480417Y-143714285D02*
X77480417Y-143238094D01*
X77480417Y-143238094D02*
X77575656Y-143047618D01*
X77575656Y-143047618D02*
X77766132Y-142952380D01*
X77766132Y-142952380D02*
X77956608Y-142952380D01*
X77956608Y-142952380D02*
X78147084Y-143047618D01*
X78147084Y-143047618D02*
X78242322Y-143238094D01*
X78242322Y-143238094D02*
X78242322Y-143714285D01*
X78242322Y-143714285D02*
X78337560Y-143904761D01*
X77480417Y-144857142D02*
X79480417Y-144857142D01*
X78718513Y-144857142D02*
X78813751Y-145047618D01*
X78813751Y-145047618D02*
X78813751Y-145428571D01*
X78813751Y-145428571D02*
X78718513Y-145619047D01*
X78718513Y-145619047D02*
X78623275Y-145714285D01*
X78623275Y-145714285D02*
X78432798Y-145809523D01*
X78432798Y-145809523D02*
X77861370Y-145809523D01*
X77861370Y-145809523D02*
X77670894Y-145714285D01*
X77670894Y-145714285D02*
X77575656Y-145619047D01*
X77575656Y-145619047D02*
X77480417Y-145428571D01*
X77480417Y-145428571D02*
X77480417Y-145047618D01*
X77480417Y-145047618D02*
X77575656Y-144857142D01*
X77480417Y-147523809D02*
X78528036Y-147523809D01*
X78528036Y-147523809D02*
X78718513Y-147428571D01*
X78718513Y-147428571D02*
X78813751Y-147238095D01*
X78813751Y-147238095D02*
X78813751Y-146857142D01*
X78813751Y-146857142D02*
X78718513Y-146666666D01*
X77575656Y-147523809D02*
X77480417Y-147333333D01*
X77480417Y-147333333D02*
X77480417Y-146857142D01*
X77480417Y-146857142D02*
X77575656Y-146666666D01*
X77575656Y-146666666D02*
X77766132Y-146571428D01*
X77766132Y-146571428D02*
X77956608Y-146571428D01*
X77956608Y-146571428D02*
X78147084Y-146666666D01*
X78147084Y-146666666D02*
X78242322Y-146857142D01*
X78242322Y-146857142D02*
X78242322Y-147333333D01*
X78242322Y-147333333D02*
X78337560Y-147523809D01*
X78813751Y-148285714D02*
X77480417Y-148761904D01*
X77480417Y-148761904D02*
X78813751Y-149238095D01*
X77480417Y-150000000D02*
X78813751Y-150000000D01*
X79480417Y-150000000D02*
X79385179Y-149904762D01*
X79385179Y-149904762D02*
X79289941Y-150000000D01*
X79289941Y-150000000D02*
X79385179Y-150095238D01*
X79385179Y-150095238D02*
X79480417Y-150000000D01*
X79480417Y-150000000D02*
X79289941Y-150000000D01*
X77480417Y-151809524D02*
X79480417Y-151809524D01*
X77575656Y-151809524D02*
X77480417Y-151619048D01*
X77480417Y-151619048D02*
X77480417Y-151238095D01*
X77480417Y-151238095D02*
X77575656Y-151047619D01*
X77575656Y-151047619D02*
X77670894Y-150952381D01*
X77670894Y-150952381D02*
X77861370Y-150857143D01*
X77861370Y-150857143D02*
X78432798Y-150857143D01*
X78432798Y-150857143D02*
X78623275Y-150952381D01*
X78623275Y-150952381D02*
X78718513Y-151047619D01*
X78718513Y-151047619D02*
X78813751Y-151238095D01*
X78813751Y-151238095D02*
X78813751Y-151619048D01*
X78813751Y-151619048D02*
X78718513Y-151809524D01*
X77575656Y-153523810D02*
X77480417Y-153333334D01*
X77480417Y-153333334D02*
X77480417Y-152952381D01*
X77480417Y-152952381D02*
X77575656Y-152761905D01*
X77575656Y-152761905D02*
X77766132Y-152666667D01*
X77766132Y-152666667D02*
X78528036Y-152666667D01*
X78528036Y-152666667D02*
X78718513Y-152761905D01*
X78718513Y-152761905D02*
X78813751Y-152952381D01*
X78813751Y-152952381D02*
X78813751Y-153333334D01*
X78813751Y-153333334D02*
X78718513Y-153523810D01*
X78718513Y-153523810D02*
X78528036Y-153619048D01*
X78528036Y-153619048D02*
X78337560Y-153619048D01*
X78337560Y-153619048D02*
X78147084Y-152666667D01*
X77480417Y-154761905D02*
X77575656Y-154571429D01*
X77575656Y-154571429D02*
X77670894Y-154476191D01*
X77670894Y-154476191D02*
X77861370Y-154380953D01*
X77861370Y-154380953D02*
X78432798Y-154380953D01*
X78432798Y-154380953D02*
X78623275Y-154476191D01*
X78623275Y-154476191D02*
X78718513Y-154571429D01*
X78718513Y-154571429D02*
X78813751Y-154761905D01*
X78813751Y-154761905D02*
X78813751Y-155047620D01*
X78813751Y-155047620D02*
X78718513Y-155238096D01*
X78718513Y-155238096D02*
X78623275Y-155333334D01*
X78623275Y-155333334D02*
X78432798Y-155428572D01*
X78432798Y-155428572D02*
X77861370Y-155428572D01*
X77861370Y-155428572D02*
X77670894Y-155333334D01*
X77670894Y-155333334D02*
X77575656Y-155238096D01*
X77575656Y-155238096D02*
X77480417Y-155047620D01*
X77480417Y-155047620D02*
X77480417Y-154761905D01*
X77670894Y-156285715D02*
X77575656Y-156380953D01*
X77575656Y-156380953D02*
X77480417Y-156285715D01*
X77480417Y-156285715D02*
X77575656Y-156190477D01*
X77575656Y-156190477D02*
X77670894Y-156285715D01*
X77670894Y-156285715D02*
X77480417Y-156285715D01*
X77575656Y-158095239D02*
X77480417Y-157904763D01*
X77480417Y-157904763D02*
X77480417Y-157523810D01*
X77480417Y-157523810D02*
X77575656Y-157333334D01*
X77575656Y-157333334D02*
X77670894Y-157238096D01*
X77670894Y-157238096D02*
X77861370Y-157142858D01*
X77861370Y-157142858D02*
X78432798Y-157142858D01*
X78432798Y-157142858D02*
X78623275Y-157238096D01*
X78623275Y-157238096D02*
X78718513Y-157333334D01*
X78718513Y-157333334D02*
X78813751Y-157523810D01*
X78813751Y-157523810D02*
X78813751Y-157904763D01*
X78813751Y-157904763D02*
X78718513Y-158095239D01*
X77480417Y-159238096D02*
X77575656Y-159047620D01*
X77575656Y-159047620D02*
X77670894Y-158952382D01*
X77670894Y-158952382D02*
X77861370Y-158857144D01*
X77861370Y-158857144D02*
X78432798Y-158857144D01*
X78432798Y-158857144D02*
X78623275Y-158952382D01*
X78623275Y-158952382D02*
X78718513Y-159047620D01*
X78718513Y-159047620D02*
X78813751Y-159238096D01*
X78813751Y-159238096D02*
X78813751Y-159523811D01*
X78813751Y-159523811D02*
X78718513Y-159714287D01*
X78718513Y-159714287D02*
X78623275Y-159809525D01*
X78623275Y-159809525D02*
X78432798Y-159904763D01*
X78432798Y-159904763D02*
X77861370Y-159904763D01*
X77861370Y-159904763D02*
X77670894Y-159809525D01*
X77670894Y-159809525D02*
X77575656Y-159714287D01*
X77575656Y-159714287D02*
X77480417Y-159523811D01*
X77480417Y-159523811D02*
X77480417Y-159238096D01*
X77480417Y-160761906D02*
X78813751Y-160761906D01*
X78623275Y-160761906D02*
X78718513Y-160857144D01*
X78718513Y-160857144D02*
X78813751Y-161047620D01*
X78813751Y-161047620D02*
X78813751Y-161333335D01*
X78813751Y-161333335D02*
X78718513Y-161523811D01*
X78718513Y-161523811D02*
X78528036Y-161619049D01*
X78528036Y-161619049D02*
X77480417Y-161619049D01*
X78528036Y-161619049D02*
X78718513Y-161714287D01*
X78718513Y-161714287D02*
X78813751Y-161904763D01*
X78813751Y-161904763D02*
X78813751Y-162190477D01*
X78813751Y-162190477D02*
X78718513Y-162380954D01*
X78718513Y-162380954D02*
X78528036Y-162476192D01*
X78528036Y-162476192D02*
X77480417Y-162476192D01*
D11*
X99345180Y-143357142D02*
X99821371Y-143023809D01*
X99345180Y-142785714D02*
X100345180Y-142785714D01*
X100345180Y-142785714D02*
X100345180Y-143166666D01*
X100345180Y-143166666D02*
X100297561Y-143261904D01*
X100297561Y-143261904D02*
X100249942Y-143309523D01*
X100249942Y-143309523D02*
X100154704Y-143357142D01*
X100154704Y-143357142D02*
X100011847Y-143357142D01*
X100011847Y-143357142D02*
X99916609Y-143309523D01*
X99916609Y-143309523D02*
X99868990Y-143261904D01*
X99868990Y-143261904D02*
X99821371Y-143166666D01*
X99821371Y-143166666D02*
X99821371Y-142785714D01*
X100297561Y-144309523D02*
X100345180Y-144214285D01*
X100345180Y-144214285D02*
X100345180Y-144071428D01*
X100345180Y-144071428D02*
X100297561Y-143928571D01*
X100297561Y-143928571D02*
X100202323Y-143833333D01*
X100202323Y-143833333D02*
X100107085Y-143785714D01*
X100107085Y-143785714D02*
X99916609Y-143738095D01*
X99916609Y-143738095D02*
X99773752Y-143738095D01*
X99773752Y-143738095D02*
X99583276Y-143785714D01*
X99583276Y-143785714D02*
X99488038Y-143833333D01*
X99488038Y-143833333D02*
X99392800Y-143928571D01*
X99392800Y-143928571D02*
X99345180Y-144071428D01*
X99345180Y-144071428D02*
X99345180Y-144166666D01*
X99345180Y-144166666D02*
X99392800Y-144309523D01*
X99392800Y-144309523D02*
X99440419Y-144357142D01*
X99440419Y-144357142D02*
X99773752Y-144357142D01*
X99773752Y-144357142D02*
X99773752Y-144166666D01*
X99868990Y-145119047D02*
X99821371Y-145261904D01*
X99821371Y-145261904D02*
X99773752Y-145309523D01*
X99773752Y-145309523D02*
X99678514Y-145357142D01*
X99678514Y-145357142D02*
X99535657Y-145357142D01*
X99535657Y-145357142D02*
X99440419Y-145309523D01*
X99440419Y-145309523D02*
X99392800Y-145261904D01*
X99392800Y-145261904D02*
X99345180Y-145166666D01*
X99345180Y-145166666D02*
X99345180Y-144785714D01*
X99345180Y-144785714D02*
X100345180Y-144785714D01*
X100345180Y-144785714D02*
X100345180Y-145119047D01*
X100345180Y-145119047D02*
X100297561Y-145214285D01*
X100297561Y-145214285D02*
X100249942Y-145261904D01*
X100249942Y-145261904D02*
X100154704Y-145309523D01*
X100154704Y-145309523D02*
X100059466Y-145309523D01*
X100059466Y-145309523D02*
X99964228Y-145261904D01*
X99964228Y-145261904D02*
X99916609Y-145214285D01*
X99916609Y-145214285D02*
X99868990Y-145119047D01*
X99868990Y-145119047D02*
X99868990Y-144785714D01*
X99345180Y-145785714D02*
X100345180Y-145785714D01*
X99868990Y-145785714D02*
X99868990Y-146357142D01*
X99345180Y-146357142D02*
X100345180Y-146357142D01*
X100345180Y-146690476D02*
X99345180Y-147023809D01*
X99345180Y-147023809D02*
X100345180Y-147357142D01*
X100392800Y-149166666D02*
X99107085Y-148309524D01*
X99345180Y-150833333D02*
X99821371Y-150500000D01*
X99345180Y-150261905D02*
X100345180Y-150261905D01*
X100345180Y-150261905D02*
X100345180Y-150642857D01*
X100345180Y-150642857D02*
X100297561Y-150738095D01*
X100297561Y-150738095D02*
X100249942Y-150785714D01*
X100249942Y-150785714D02*
X100154704Y-150833333D01*
X100154704Y-150833333D02*
X100011847Y-150833333D01*
X100011847Y-150833333D02*
X99916609Y-150785714D01*
X99916609Y-150785714D02*
X99868990Y-150738095D01*
X99868990Y-150738095D02*
X99821371Y-150642857D01*
X99821371Y-150642857D02*
X99821371Y-150261905D01*
X100297561Y-151785714D02*
X100345180Y-151690476D01*
X100345180Y-151690476D02*
X100345180Y-151547619D01*
X100345180Y-151547619D02*
X100297561Y-151404762D01*
X100297561Y-151404762D02*
X100202323Y-151309524D01*
X100202323Y-151309524D02*
X100107085Y-151261905D01*
X100107085Y-151261905D02*
X99916609Y-151214286D01*
X99916609Y-151214286D02*
X99773752Y-151214286D01*
X99773752Y-151214286D02*
X99583276Y-151261905D01*
X99583276Y-151261905D02*
X99488038Y-151309524D01*
X99488038Y-151309524D02*
X99392800Y-151404762D01*
X99392800Y-151404762D02*
X99345180Y-151547619D01*
X99345180Y-151547619D02*
X99345180Y-151642857D01*
X99345180Y-151642857D02*
X99392800Y-151785714D01*
X99392800Y-151785714D02*
X99440419Y-151833333D01*
X99440419Y-151833333D02*
X99773752Y-151833333D01*
X99773752Y-151833333D02*
X99773752Y-151642857D01*
X99868990Y-152595238D02*
X99821371Y-152738095D01*
X99821371Y-152738095D02*
X99773752Y-152785714D01*
X99773752Y-152785714D02*
X99678514Y-152833333D01*
X99678514Y-152833333D02*
X99535657Y-152833333D01*
X99535657Y-152833333D02*
X99440419Y-152785714D01*
X99440419Y-152785714D02*
X99392800Y-152738095D01*
X99392800Y-152738095D02*
X99345180Y-152642857D01*
X99345180Y-152642857D02*
X99345180Y-152261905D01*
X99345180Y-152261905D02*
X100345180Y-152261905D01*
X100345180Y-152261905D02*
X100345180Y-152595238D01*
X100345180Y-152595238D02*
X100297561Y-152690476D01*
X100297561Y-152690476D02*
X100249942Y-152738095D01*
X100249942Y-152738095D02*
X100154704Y-152785714D01*
X100154704Y-152785714D02*
X100059466Y-152785714D01*
X100059466Y-152785714D02*
X99964228Y-152738095D01*
X99964228Y-152738095D02*
X99916609Y-152690476D01*
X99916609Y-152690476D02*
X99868990Y-152595238D01*
X99868990Y-152595238D02*
X99868990Y-152261905D01*
X99392800Y-153214286D02*
X99345180Y-153357143D01*
X99345180Y-153357143D02*
X99345180Y-153595238D01*
X99345180Y-153595238D02*
X99392800Y-153690476D01*
X99392800Y-153690476D02*
X99440419Y-153738095D01*
X99440419Y-153738095D02*
X99535657Y-153785714D01*
X99535657Y-153785714D02*
X99630895Y-153785714D01*
X99630895Y-153785714D02*
X99726133Y-153738095D01*
X99726133Y-153738095D02*
X99773752Y-153690476D01*
X99773752Y-153690476D02*
X99821371Y-153595238D01*
X99821371Y-153595238D02*
X99868990Y-153404762D01*
X99868990Y-153404762D02*
X99916609Y-153309524D01*
X99916609Y-153309524D02*
X99964228Y-153261905D01*
X99964228Y-153261905D02*
X100059466Y-153214286D01*
X100059466Y-153214286D02*
X100154704Y-153214286D01*
X100154704Y-153214286D02*
X100249942Y-153261905D01*
X100249942Y-153261905D02*
X100297561Y-153309524D01*
X100297561Y-153309524D02*
X100345180Y-153404762D01*
X100345180Y-153404762D02*
X100345180Y-153642857D01*
X100345180Y-153642857D02*
X100297561Y-153785714D01*
X100345180Y-154833334D02*
X99345180Y-155166667D01*
X99345180Y-155166667D02*
X100345180Y-155500000D01*
X100297561Y-156357143D02*
X100345180Y-156261905D01*
X100345180Y-156261905D02*
X100345180Y-156119048D01*
X100345180Y-156119048D02*
X100297561Y-155976191D01*
X100297561Y-155976191D02*
X100202323Y-155880953D01*
X100202323Y-155880953D02*
X100107085Y-155833334D01*
X100107085Y-155833334D02*
X99916609Y-155785715D01*
X99916609Y-155785715D02*
X99773752Y-155785715D01*
X99773752Y-155785715D02*
X99583276Y-155833334D01*
X99583276Y-155833334D02*
X99488038Y-155880953D01*
X99488038Y-155880953D02*
X99392800Y-155976191D01*
X99392800Y-155976191D02*
X99345180Y-156119048D01*
X99345180Y-156119048D02*
X99345180Y-156214286D01*
X99345180Y-156214286D02*
X99392800Y-156357143D01*
X99392800Y-156357143D02*
X99440419Y-156404762D01*
X99440419Y-156404762D02*
X99773752Y-156404762D01*
X99773752Y-156404762D02*
X99773752Y-156214286D01*
X99630895Y-156785715D02*
X99630895Y-157261905D01*
X99345180Y-156690477D02*
X100345180Y-157023810D01*
X100345180Y-157023810D02*
X99345180Y-157357143D01*
X89945180Y-121728571D02*
X89945180Y-121252381D01*
X89945180Y-121252381D02*
X89468990Y-121204762D01*
X89468990Y-121204762D02*
X89516609Y-121252381D01*
X89516609Y-121252381D02*
X89564228Y-121347619D01*
X89564228Y-121347619D02*
X89564228Y-121585714D01*
X89564228Y-121585714D02*
X89516609Y-121680952D01*
X89516609Y-121680952D02*
X89468990Y-121728571D01*
X89468990Y-121728571D02*
X89373752Y-121776190D01*
X89373752Y-121776190D02*
X89135657Y-121776190D01*
X89135657Y-121776190D02*
X89040419Y-121728571D01*
X89040419Y-121728571D02*
X88992800Y-121680952D01*
X88992800Y-121680952D02*
X88945180Y-121585714D01*
X88945180Y-121585714D02*
X88945180Y-121347619D01*
X88945180Y-121347619D02*
X88992800Y-121252381D01*
X88992800Y-121252381D02*
X89040419Y-121204762D01*
X89945180Y-122061905D02*
X88945180Y-122395238D01*
X88945180Y-122395238D02*
X89945180Y-122728571D01*
X88945180Y-123823810D02*
X89945180Y-123823810D01*
X89945180Y-123823810D02*
X89945180Y-124061905D01*
X89945180Y-124061905D02*
X89897561Y-124204762D01*
X89897561Y-124204762D02*
X89802323Y-124300000D01*
X89802323Y-124300000D02*
X89707085Y-124347619D01*
X89707085Y-124347619D02*
X89516609Y-124395238D01*
X89516609Y-124395238D02*
X89373752Y-124395238D01*
X89373752Y-124395238D02*
X89183276Y-124347619D01*
X89183276Y-124347619D02*
X89088038Y-124300000D01*
X89088038Y-124300000D02*
X88992800Y-124204762D01*
X88992800Y-124204762D02*
X88945180Y-124061905D01*
X88945180Y-124061905D02*
X88945180Y-123823810D01*
X89040419Y-125395238D02*
X88992800Y-125347619D01*
X88992800Y-125347619D02*
X88945180Y-125204762D01*
X88945180Y-125204762D02*
X88945180Y-125109524D01*
X88945180Y-125109524D02*
X88992800Y-124966667D01*
X88992800Y-124966667D02*
X89088038Y-124871429D01*
X89088038Y-124871429D02*
X89183276Y-124823810D01*
X89183276Y-124823810D02*
X89373752Y-124776191D01*
X89373752Y-124776191D02*
X89516609Y-124776191D01*
X89516609Y-124776191D02*
X89707085Y-124823810D01*
X89707085Y-124823810D02*
X89802323Y-124871429D01*
X89802323Y-124871429D02*
X89897561Y-124966667D01*
X89897561Y-124966667D02*
X89945180Y-125109524D01*
X89945180Y-125109524D02*
X89945180Y-125204762D01*
X89945180Y-125204762D02*
X89897561Y-125347619D01*
X89897561Y-125347619D02*
X89849942Y-125395238D01*
D12*
X98251200Y-122887200D02*
X97844800Y-122887200D01*
X97844800Y-122074400D01*
X98251200Y-122074400D01*
X98251200Y-122887200D01*
G36*
X98251200Y-122887200D02*
G01*
X97844800Y-122887200D01*
X97844800Y-122074400D01*
X98251200Y-122074400D01*
X98251200Y-122887200D01*
G37*
X97844800Y-123293600D02*
X97438400Y-123293600D01*
X97438400Y-122887200D01*
X97844800Y-122887200D01*
X97844800Y-123293600D01*
G36*
X97844800Y-123293600D02*
G01*
X97438400Y-123293600D01*
X97438400Y-122887200D01*
X97844800Y-122887200D01*
X97844800Y-123293600D01*
G37*
X96625600Y-124106400D02*
X96219200Y-124106400D01*
X96219200Y-123700000D01*
X96625600Y-123700000D01*
X96625600Y-124106400D01*
G36*
X96625600Y-124106400D02*
G01*
X96219200Y-124106400D01*
X96219200Y-123700000D01*
X96625600Y-123700000D01*
X96625600Y-124106400D01*
G37*
X95812800Y-124106400D02*
X95406400Y-124106400D01*
X95406400Y-123700000D01*
X95812800Y-123700000D01*
X95812800Y-124106400D01*
G36*
X95812800Y-124106400D02*
G01*
X95406400Y-124106400D01*
X95406400Y-123700000D01*
X95812800Y-123700000D01*
X95812800Y-124106400D01*
G37*
X95000000Y-124106400D02*
X94593600Y-124106400D01*
X94593600Y-123700000D01*
X95000000Y-123700000D01*
X95000000Y-124106400D01*
G36*
X95000000Y-124106400D02*
G01*
X94593600Y-124106400D01*
X94593600Y-123700000D01*
X95000000Y-123700000D01*
X95000000Y-124106400D01*
G37*
X94187200Y-124106400D02*
X93780800Y-124106400D01*
X93780800Y-123700000D01*
X94187200Y-123700000D01*
X94187200Y-124106400D01*
G36*
X94187200Y-124106400D02*
G01*
X93780800Y-124106400D01*
X93780800Y-123700000D01*
X94187200Y-123700000D01*
X94187200Y-124106400D01*
G37*
X97844800Y-124512800D02*
X97438400Y-124512800D01*
X97438400Y-124106400D01*
X97844800Y-124106400D01*
X97844800Y-124512800D01*
G36*
X97844800Y-124512800D02*
G01*
X97438400Y-124512800D01*
X97438400Y-124106400D01*
X97844800Y-124106400D01*
X97844800Y-124512800D01*
G37*
X97438400Y-124106400D02*
X97032000Y-124106400D01*
X97032000Y-123293600D01*
X97438400Y-123293600D01*
X97438400Y-124106400D01*
G36*
X97438400Y-124106400D02*
G01*
X97032000Y-124106400D01*
X97032000Y-123293600D01*
X97438400Y-123293600D01*
X97438400Y-124106400D01*
G37*
X97032000Y-124512800D02*
X96625600Y-124512800D01*
X96625600Y-124106400D01*
X97032000Y-124106400D01*
X97032000Y-124512800D01*
G36*
X97032000Y-124512800D02*
G01*
X96625600Y-124512800D01*
X96625600Y-124106400D01*
X97032000Y-124106400D01*
X97032000Y-124512800D01*
G37*
X93374400Y-124106400D02*
X92968000Y-124106400D01*
X92968000Y-123700000D01*
X93374400Y-123700000D01*
X93374400Y-124106400D01*
G36*
X93374400Y-124106400D02*
G01*
X92968000Y-124106400D01*
X92968000Y-123700000D01*
X93374400Y-123700000D01*
X93374400Y-124106400D01*
G37*
X97438400Y-124919200D02*
X97032000Y-124919200D01*
X97032000Y-124512800D01*
X97438400Y-124512800D01*
X97438400Y-124919200D01*
G36*
X97438400Y-124919200D02*
G01*
X97032000Y-124919200D01*
X97032000Y-124512800D01*
X97438400Y-124512800D01*
X97438400Y-124919200D01*
G37*
X96625600Y-124919200D02*
X96219200Y-124919200D01*
X96219200Y-124512800D01*
X96625600Y-124512800D01*
X96625600Y-124919200D01*
G36*
X96625600Y-124919200D02*
G01*
X96219200Y-124919200D01*
X96219200Y-124512800D01*
X96625600Y-124512800D01*
X96625600Y-124919200D01*
G37*
X96219200Y-124512800D02*
X95812800Y-124512800D01*
X95812800Y-124106400D01*
X96219200Y-124106400D01*
X96219200Y-124512800D01*
G36*
X96219200Y-124512800D02*
G01*
X95812800Y-124512800D01*
X95812800Y-124106400D01*
X96219200Y-124106400D01*
X96219200Y-124512800D01*
G37*
X95812800Y-124919200D02*
X95406400Y-124919200D01*
X95406400Y-124512800D01*
X95812800Y-124512800D01*
X95812800Y-124919200D01*
G36*
X95812800Y-124919200D02*
G01*
X95406400Y-124919200D01*
X95406400Y-124512800D01*
X95812800Y-124512800D01*
X95812800Y-124919200D01*
G37*
X95406400Y-124512800D02*
X95000000Y-124512800D01*
X95000000Y-124106400D01*
X95406400Y-124106400D01*
X95406400Y-124512800D01*
G36*
X95406400Y-124512800D02*
G01*
X95000000Y-124512800D01*
X95000000Y-124106400D01*
X95406400Y-124106400D01*
X95406400Y-124512800D01*
G37*
X95000000Y-124919200D02*
X94593600Y-124919200D01*
X94593600Y-124512800D01*
X95000000Y-124512800D01*
X95000000Y-124919200D01*
G36*
X95000000Y-124919200D02*
G01*
X94593600Y-124919200D01*
X94593600Y-124512800D01*
X95000000Y-124512800D01*
X95000000Y-124919200D01*
G37*
X94593600Y-124512800D02*
X94187200Y-124512800D01*
X94187200Y-124106400D01*
X94593600Y-124106400D01*
X94593600Y-124512800D01*
G36*
X94593600Y-124512800D02*
G01*
X94187200Y-124512800D01*
X94187200Y-124106400D01*
X94593600Y-124106400D01*
X94593600Y-124512800D01*
G37*
X94187200Y-124919200D02*
X93780800Y-124919200D01*
X93780800Y-124512800D01*
X94187200Y-124512800D01*
X94187200Y-124919200D01*
G36*
X94187200Y-124919200D02*
G01*
X93780800Y-124919200D01*
X93780800Y-124512800D01*
X94187200Y-124512800D01*
X94187200Y-124919200D01*
G37*
X93780800Y-124512800D02*
X93374400Y-124512800D01*
X93374400Y-124106400D01*
X93780800Y-124106400D01*
X93780800Y-124512800D01*
G36*
X93780800Y-124512800D02*
G01*
X93374400Y-124512800D01*
X93374400Y-124106400D01*
X93780800Y-124106400D01*
X93780800Y-124512800D01*
G37*
X97844800Y-122074400D02*
X93780800Y-122074400D01*
X93780800Y-122480800D01*
X93374400Y-122480800D01*
X93374400Y-122887200D01*
X92968000Y-122887200D01*
X92968000Y-123293600D01*
X92561600Y-123293600D01*
X92561600Y-124106400D01*
X92968000Y-124106400D01*
X92968000Y-124512800D01*
X93374400Y-124512800D01*
X93374400Y-124919200D01*
X93780800Y-124919200D01*
X93780800Y-125325600D01*
X94187200Y-125325600D01*
X94187200Y-124919200D01*
X94593600Y-124919200D01*
X94593600Y-125325600D01*
X95000000Y-125325600D01*
X95000000Y-124919200D01*
X95406400Y-124919200D01*
X95406400Y-125325600D01*
X95812800Y-125325600D01*
X95812800Y-124919200D01*
X96219200Y-124919200D01*
X96219200Y-125325600D01*
X96625600Y-125325600D01*
X96625600Y-124919200D01*
X97032000Y-124919200D01*
X97032000Y-125325600D01*
X97438400Y-125325600D01*
X97438400Y-124919200D01*
X97844800Y-124919200D01*
X97844800Y-124512800D01*
X98251200Y-124512800D01*
X98251200Y-125325600D01*
X97844800Y-125325600D01*
X97844800Y-125732000D01*
X93374400Y-125732000D01*
X93374400Y-125325600D01*
X92968000Y-125325600D01*
X92968000Y-124919200D01*
X92561600Y-124919200D01*
X92561600Y-124512800D01*
X92155200Y-124512800D01*
X92155200Y-124106400D01*
X91748800Y-124106400D01*
X91748800Y-123293600D01*
X92155200Y-123293600D01*
X92155200Y-122887200D01*
X92561600Y-122887200D01*
X92561600Y-122480800D01*
X92968000Y-122480800D01*
X92968000Y-122074400D01*
X93374400Y-122074400D01*
X93374400Y-121668000D01*
X97844800Y-121668000D01*
X97844800Y-122074400D01*
G36*
X97844800Y-122074400D02*
G01*
X93780800Y-122074400D01*
X93780800Y-122480800D01*
X93374400Y-122480800D01*
X93374400Y-122887200D01*
X92968000Y-122887200D01*
X92968000Y-123293600D01*
X92561600Y-123293600D01*
X92561600Y-124106400D01*
X92968000Y-124106400D01*
X92968000Y-124512800D01*
X93374400Y-124512800D01*
X93374400Y-124919200D01*
X93780800Y-124919200D01*
X93780800Y-125325600D01*
X94187200Y-125325600D01*
X94187200Y-124919200D01*
X94593600Y-124919200D01*
X94593600Y-125325600D01*
X95000000Y-125325600D01*
X95000000Y-124919200D01*
X95406400Y-124919200D01*
X95406400Y-125325600D01*
X95812800Y-125325600D01*
X95812800Y-124919200D01*
X96219200Y-124919200D01*
X96219200Y-125325600D01*
X96625600Y-125325600D01*
X96625600Y-124919200D01*
X97032000Y-124919200D01*
X97032000Y-125325600D01*
X97438400Y-125325600D01*
X97438400Y-124919200D01*
X97844800Y-124919200D01*
X97844800Y-124512800D01*
X98251200Y-124512800D01*
X98251200Y-125325600D01*
X97844800Y-125325600D01*
X97844800Y-125732000D01*
X93374400Y-125732000D01*
X93374400Y-125325600D01*
X92968000Y-125325600D01*
X92968000Y-124919200D01*
X92561600Y-124919200D01*
X92561600Y-124512800D01*
X92155200Y-124512800D01*
X92155200Y-124106400D01*
X91748800Y-124106400D01*
X91748800Y-123293600D01*
X92155200Y-123293600D01*
X92155200Y-122887200D01*
X92561600Y-122887200D01*
X92561600Y-122480800D01*
X92968000Y-122480800D01*
X92968000Y-122074400D01*
X93374400Y-122074400D01*
X93374400Y-121668000D01*
X97844800Y-121668000D01*
X97844800Y-122074400D01*
G37*
M02*
