G04 #@! TF.GenerationSoftware,KiCad,Pcbnew,9.0.1*
G04 #@! TF.CreationDate,2025-10-04T13:40:08+13:00*
G04 #@! TF.ProjectId,RGB-to-component-covers,5247422d-746f-42d6-936f-6d706f6e656e,rev?*
G04 #@! TF.SameCoordinates,Original*
G04 #@! TF.FileFunction,Soldermask,Top*
G04 #@! TF.FilePolarity,Negative*
%FSLAX46Y46*%
G04 Gerber Fmt 4.6, Leading zero omitted, Abs format (unit mm)*
G04 Created by KiCad (PCBNEW 9.0.1) date 2025-10-04 13:40:08*
%MOMM*%
%LPD*%
G01*
G04 APERTURE LIST*
G04 APERTURE END LIST*
G36*
X79202182Y-182932924D02*
G01*
X79464682Y-182992838D01*
X79718823Y-183081765D01*
X79961409Y-183198589D01*
X80189390Y-183341838D01*
X80399898Y-183509713D01*
X80590287Y-183700102D01*
X80758162Y-183910610D01*
X80901411Y-184138591D01*
X81018235Y-184381177D01*
X81107162Y-184635318D01*
X81167076Y-184897818D01*
X81197223Y-185165375D01*
X81197223Y-185434625D01*
X81167076Y-185702182D01*
X81107162Y-185964682D01*
X81018235Y-186218823D01*
X80901411Y-186461409D01*
X80758162Y-186689390D01*
X80590287Y-186899898D01*
X80399898Y-187090287D01*
X80189390Y-187258162D01*
X79961409Y-187401411D01*
X79718823Y-187518235D01*
X79464682Y-187607162D01*
X79202182Y-187667076D01*
X78934625Y-187697223D01*
X78665375Y-187697223D01*
X78397818Y-187667076D01*
X78135318Y-187607162D01*
X77881177Y-187518235D01*
X77638591Y-187401411D01*
X77410610Y-187258162D01*
X77200102Y-187090287D01*
X77009713Y-186899898D01*
X76841838Y-186689390D01*
X76698589Y-186461409D01*
X76581765Y-186218823D01*
X76492838Y-185964682D01*
X76432924Y-185702182D01*
X76402777Y-185434625D01*
X76402777Y-185165375D01*
X76432924Y-184897818D01*
X76492838Y-184635318D01*
X76581765Y-184381177D01*
X76698589Y-184138591D01*
X76841838Y-183910610D01*
X77009713Y-183700102D01*
X77200102Y-183509713D01*
X77410610Y-183341838D01*
X77638591Y-183198589D01*
X77881177Y-183081765D01*
X78135318Y-182992838D01*
X78397818Y-182932924D01*
X78665375Y-182902777D01*
X78934625Y-182902777D01*
X79202182Y-182932924D01*
G37*
G36*
X102602182Y-182932924D02*
G01*
X102864682Y-182992838D01*
X103118823Y-183081765D01*
X103361409Y-183198589D01*
X103589390Y-183341838D01*
X103799898Y-183509713D01*
X103990287Y-183700102D01*
X104158162Y-183910610D01*
X104301411Y-184138591D01*
X104418235Y-184381177D01*
X104507162Y-184635318D01*
X104567076Y-184897818D01*
X104597223Y-185165375D01*
X104597223Y-185434625D01*
X104567076Y-185702182D01*
X104507162Y-185964682D01*
X104418235Y-186218823D01*
X104301411Y-186461409D01*
X104158162Y-186689390D01*
X103990287Y-186899898D01*
X103799898Y-187090287D01*
X103589390Y-187258162D01*
X103361409Y-187401411D01*
X103118823Y-187518235D01*
X102864682Y-187607162D01*
X102602182Y-187667076D01*
X102334625Y-187697223D01*
X102065375Y-187697223D01*
X101797818Y-187667076D01*
X101535318Y-187607162D01*
X101281177Y-187518235D01*
X101038591Y-187401411D01*
X100810610Y-187258162D01*
X100600102Y-187090287D01*
X100409713Y-186899898D01*
X100241838Y-186689390D01*
X100098589Y-186461409D01*
X99981765Y-186218823D01*
X99892838Y-185964682D01*
X99832924Y-185702182D01*
X99802777Y-185434625D01*
X99802777Y-185165375D01*
X99832924Y-184897818D01*
X99892838Y-184635318D01*
X99981765Y-184381177D01*
X100098589Y-184138591D01*
X100241838Y-183910610D01*
X100409713Y-183700102D01*
X100600102Y-183509713D01*
X100810610Y-183341838D01*
X101038591Y-183198589D01*
X101281177Y-183081765D01*
X101535318Y-182992838D01*
X101797818Y-182932924D01*
X102065375Y-182902777D01*
X102334625Y-182902777D01*
X102602182Y-182932924D01*
G37*
G36*
X79202182Y-114932924D02*
G01*
X79464682Y-114992838D01*
X79718823Y-115081765D01*
X79961409Y-115198589D01*
X80189390Y-115341838D01*
X80399898Y-115509713D01*
X80590287Y-115700102D01*
X80758162Y-115910610D01*
X80901411Y-116138591D01*
X81018235Y-116381177D01*
X81107162Y-116635318D01*
X81167076Y-116897818D01*
X81197223Y-117165375D01*
X81197223Y-117434625D01*
X81167076Y-117702182D01*
X81107162Y-117964682D01*
X81018235Y-118218823D01*
X80901411Y-118461409D01*
X80758162Y-118689390D01*
X80590287Y-118899898D01*
X80399898Y-119090287D01*
X80189390Y-119258162D01*
X79961409Y-119401411D01*
X79718823Y-119518235D01*
X79464682Y-119607162D01*
X79202182Y-119667076D01*
X78934625Y-119697223D01*
X78665375Y-119697223D01*
X78397818Y-119667076D01*
X78135318Y-119607162D01*
X77881177Y-119518235D01*
X77638591Y-119401411D01*
X77410610Y-119258162D01*
X77200102Y-119090287D01*
X77009713Y-118899898D01*
X76841838Y-118689390D01*
X76698589Y-118461409D01*
X76581765Y-118218823D01*
X76492838Y-117964682D01*
X76432924Y-117702182D01*
X76402777Y-117434625D01*
X76402777Y-117165375D01*
X76432924Y-116897818D01*
X76492838Y-116635318D01*
X76581765Y-116381177D01*
X76698589Y-116138591D01*
X76841838Y-115910610D01*
X77009713Y-115700102D01*
X77200102Y-115509713D01*
X77410610Y-115341838D01*
X77638591Y-115198589D01*
X77881177Y-115081765D01*
X78135318Y-114992838D01*
X78397818Y-114932924D01*
X78665375Y-114902777D01*
X78934625Y-114902777D01*
X79202182Y-114932924D01*
G37*
G36*
X102552182Y-114932924D02*
G01*
X102814682Y-114992838D01*
X103068823Y-115081765D01*
X103311409Y-115198589D01*
X103539390Y-115341838D01*
X103749898Y-115509713D01*
X103940287Y-115700102D01*
X104108162Y-115910610D01*
X104251411Y-116138591D01*
X104368235Y-116381177D01*
X104457162Y-116635318D01*
X104517076Y-116897818D01*
X104547223Y-117165375D01*
X104547223Y-117434625D01*
X104517076Y-117702182D01*
X104457162Y-117964682D01*
X104368235Y-118218823D01*
X104251411Y-118461409D01*
X104108162Y-118689390D01*
X103940287Y-118899898D01*
X103749898Y-119090287D01*
X103539390Y-119258162D01*
X103311409Y-119401411D01*
X103068823Y-119518235D01*
X102814682Y-119607162D01*
X102552182Y-119667076D01*
X102284625Y-119697223D01*
X102015375Y-119697223D01*
X101747818Y-119667076D01*
X101485318Y-119607162D01*
X101231177Y-119518235D01*
X100988591Y-119401411D01*
X100760610Y-119258162D01*
X100550102Y-119090287D01*
X100359713Y-118899898D01*
X100191838Y-118689390D01*
X100048589Y-118461409D01*
X99931765Y-118218823D01*
X99842838Y-117964682D01*
X99782924Y-117702182D01*
X99752777Y-117434625D01*
X99752777Y-117165375D01*
X99782924Y-116897818D01*
X99842838Y-116635318D01*
X99931765Y-116381177D01*
X100048589Y-116138591D01*
X100191838Y-115910610D01*
X100359713Y-115700102D01*
X100550102Y-115509713D01*
X100760610Y-115341838D01*
X100988591Y-115198589D01*
X101231177Y-115081765D01*
X101485318Y-114992838D01*
X101747818Y-114932924D01*
X102015375Y-114902777D01*
X102284625Y-114902777D01*
X102552182Y-114932924D01*
G37*
M02*
